<?xml version="1.0" encoding="utf-8" standalone="no"?>
<!DOCTYPE svg PUBLIC "-//W3C//DTD SVG 1.1//EN"
  "http://www.w3.org/Graphics/SVG/1.1/DTD/svg11.dtd">
<!-- Created with matplotlib (http://matplotlib.org/) -->
<svg height="260pt" version="1.1" viewBox="0 0 1298 260" width="1298pt" xmlns="http://www.w3.org/2000/svg" xmlns:xlink="http://www.w3.org/1999/xlink">
 <defs>
  <style type="text/css">
*{stroke-linecap:butt;stroke-linejoin:round;}
  </style>
 </defs>
 <g id="figure_1">
  <g id="patch_1">
   <path d="M 0 260.334 
L 1298.127494 260.334 
L 1298.127494 0 
L 0 0 
z
" style="fill:#ffffff;"/>
  </g>
  <g id="axes_1">
   <g id="patch_2">
    <path d="M 61.1565 207.20575 
L 308.884155 207.20575 
L 308.884155 25.79775 
L 61.1565 25.79775 
z
" style="fill:#ffffff;"/>
   </g>
   <g id="matplotlib.axis_1">
    <g id="xtick_1">
     <g id="line2d_1"/>
     <g id="text_1">
      <!-- 1 -->
      <defs>
       <path d="M 37.25 0 
L 28.46875 0 
L 28.46875 56 
Q 25.296875 52.984375 20.140625 49.953125 
Q 14.984375 46.921875 10.890625 45.40625 
L 10.890625 53.90625 
Q 18.265625 57.375 23.78125 62.296875 
Q 29.296875 67.234375 31.59375 71.875 
L 37.25 71.875 
z
" id="ArialMT-31"/>
      </defs>
      <g style="fill:#262626;" transform="translate(87.673707 229.85825)scale(0.16 -0.16)">
       <use xlink:href="#ArialMT-31"/>
      </g>
     </g>
    </g>
    <g id="xtick_2">
     <g id="line2d_2"/>
     <g id="text_2">
      <!-- 2 -->
      <defs>
       <path d="M 50.34375 8.453125 
L 50.34375 0 
L 3.03125 0 
Q 2.9375 3.171875 4.046875 6.109375 
Q 5.859375 10.9375 9.828125 15.625 
Q 13.8125 20.3125 21.34375 26.46875 
Q 33.015625 36.03125 37.109375 41.625 
Q 41.21875 47.21875 41.21875 52.203125 
Q 41.21875 57.421875 37.46875 61 
Q 33.734375 64.59375 27.734375 64.59375 
Q 21.390625 64.59375 17.578125 60.78125 
Q 13.765625 56.984375 13.71875 50.25 
L 4.6875 51.171875 
Q 5.609375 61.28125 11.65625 66.578125 
Q 17.71875 71.875 27.9375 71.875 
Q 38.234375 71.875 44.234375 66.15625 
Q 50.25 60.453125 50.25 52 
Q 50.25 47.703125 48.484375 43.546875 
Q 46.734375 39.40625 42.65625 34.8125 
Q 38.578125 30.21875 29.109375 22.21875 
Q 21.1875 15.578125 18.9375 13.203125 
Q 16.703125 10.84375 15.234375 8.453125 
z
" id="ArialMT-32"/>
      </defs>
      <g style="fill:#262626;" transform="translate(149.605621 229.85825)scale(0.16 -0.16)">
       <use xlink:href="#ArialMT-32"/>
      </g>
     </g>
    </g>
    <g id="xtick_3">
     <g id="line2d_3"/>
     <g id="text_3">
      <!-- 4 -->
      <defs>
       <path d="M 32.328125 0 
L 32.328125 17.140625 
L 1.265625 17.140625 
L 1.265625 25.203125 
L 33.9375 71.578125 
L 41.109375 71.578125 
L 41.109375 25.203125 
L 50.78125 25.203125 
L 50.78125 17.140625 
L 41.109375 17.140625 
L 41.109375 0 
z
M 32.328125 25.203125 
L 32.328125 57.46875 
L 9.90625 25.203125 
z
" id="ArialMT-34"/>
      </defs>
      <g style="fill:#262626;" transform="translate(211.537534 229.85825)scale(0.16 -0.16)">
       <use xlink:href="#ArialMT-34"/>
      </g>
     </g>
    </g>
    <g id="xtick_4">
     <g id="line2d_4"/>
     <g id="text_4">
      <!-- 8 -->
      <defs>
       <path d="M 17.671875 38.8125 
Q 12.203125 40.828125 9.5625 44.53125 
Q 6.9375 48.25 6.9375 53.421875 
Q 6.9375 61.234375 12.546875 66.546875 
Q 18.171875 71.875 27.484375 71.875 
Q 36.859375 71.875 42.578125 66.421875 
Q 48.296875 60.984375 48.296875 53.171875 
Q 48.296875 48.1875 45.671875 44.5 
Q 43.0625 40.828125 37.75 38.8125 
Q 44.34375 36.671875 47.78125 31.875 
Q 51.21875 27.09375 51.21875 20.453125 
Q 51.21875 11.28125 44.71875 5.03125 
Q 38.234375 -1.21875 27.640625 -1.21875 
Q 17.046875 -1.21875 10.546875 5.046875 
Q 4.046875 11.328125 4.046875 20.703125 
Q 4.046875 27.6875 7.59375 32.390625 
Q 11.140625 37.109375 17.671875 38.8125 
z
M 15.921875 53.71875 
Q 15.921875 48.640625 19.1875 45.40625 
Q 22.46875 42.1875 27.6875 42.1875 
Q 32.765625 42.1875 36.015625 45.375 
Q 39.265625 48.578125 39.265625 53.21875 
Q 39.265625 58.0625 35.90625 61.359375 
Q 32.5625 64.65625 27.59375 64.65625 
Q 22.5625 64.65625 19.234375 61.421875 
Q 15.921875 58.203125 15.921875 53.71875 
z
M 13.09375 20.65625 
Q 13.09375 16.890625 14.875 13.375 
Q 16.65625 9.859375 20.171875 7.921875 
Q 23.6875 6 27.734375 6 
Q 34.03125 6 38.125 10.046875 
Q 42.234375 14.109375 42.234375 20.359375 
Q 42.234375 26.703125 38.015625 30.859375 
Q 33.796875 35.015625 27.4375 35.015625 
Q 21.234375 35.015625 17.15625 30.90625 
Q 13.09375 26.8125 13.09375 20.65625 
z
" id="ArialMT-38"/>
      </defs>
      <g style="fill:#262626;" transform="translate(273.469448 229.85825)scale(0.16 -0.16)">
       <use xlink:href="#ArialMT-38"/>
      </g>
     </g>
    </g>
    <g id="text_5">
     <!-- processors amount -->
     <defs>
      <path d="M 6.59375 -19.875 
L 6.59375 51.859375 
L 14.59375 51.859375 
L 14.59375 45.125 
Q 17.4375 49.078125 21 51.046875 
Q 24.5625 53.03125 29.640625 53.03125 
Q 36.28125 53.03125 41.359375 49.609375 
Q 46.4375 46.1875 49.015625 39.953125 
Q 51.609375 33.734375 51.609375 26.3125 
Q 51.609375 18.359375 48.75 11.984375 
Q 45.90625 5.609375 40.453125 2.21875 
Q 35.015625 -1.171875 29 -1.171875 
Q 24.609375 -1.171875 21.109375 0.6875 
Q 17.625 2.546875 15.375 5.375 
L 15.375 -19.875 
z
M 14.546875 25.640625 
Q 14.546875 15.625 18.59375 10.84375 
Q 22.65625 6.0625 28.421875 6.0625 
Q 34.28125 6.0625 38.453125 11.015625 
Q 42.625 15.96875 42.625 26.375 
Q 42.625 36.28125 38.546875 41.203125 
Q 34.46875 46.140625 28.8125 46.140625 
Q 23.1875 46.140625 18.859375 40.890625 
Q 14.546875 35.640625 14.546875 25.640625 
z
" id="ArialMT-70"/>
      <path d="M 6.5 0 
L 6.5 51.859375 
L 14.40625 51.859375 
L 14.40625 44 
Q 17.4375 49.515625 20 51.265625 
Q 22.5625 53.03125 25.640625 53.03125 
Q 30.078125 53.03125 34.671875 50.203125 
L 31.640625 42.046875 
Q 28.421875 43.953125 25.203125 43.953125 
Q 22.3125 43.953125 20.015625 42.21875 
Q 17.71875 40.484375 16.75 37.40625 
Q 15.28125 32.71875 15.28125 27.15625 
L 15.28125 0 
z
" id="ArialMT-72"/>
      <path d="M 3.328125 25.921875 
Q 3.328125 40.328125 11.328125 47.265625 
Q 18.015625 53.03125 27.640625 53.03125 
Q 38.328125 53.03125 45.109375 46.015625 
Q 51.90625 39.015625 51.90625 26.65625 
Q 51.90625 16.65625 48.90625 10.90625 
Q 45.90625 5.171875 40.15625 2 
Q 34.421875 -1.171875 27.640625 -1.171875 
Q 16.75 -1.171875 10.03125 5.8125 
Q 3.328125 12.796875 3.328125 25.921875 
z
M 12.359375 25.921875 
Q 12.359375 15.96875 16.703125 11.015625 
Q 21.046875 6.0625 27.640625 6.0625 
Q 34.1875 6.0625 38.53125 11.03125 
Q 42.875 16.015625 42.875 26.21875 
Q 42.875 35.84375 38.5 40.796875 
Q 34.125 45.75 27.640625 45.75 
Q 21.046875 45.75 16.703125 40.8125 
Q 12.359375 35.890625 12.359375 25.921875 
z
" id="ArialMT-6f"/>
      <path d="M 40.4375 19 
L 49.078125 17.875 
Q 47.65625 8.9375 41.8125 3.875 
Q 35.984375 -1.171875 27.484375 -1.171875 
Q 16.84375 -1.171875 10.375 5.78125 
Q 3.90625 12.75 3.90625 25.734375 
Q 3.90625 34.125 6.6875 40.421875 
Q 9.46875 46.734375 15.15625 49.875 
Q 20.84375 53.03125 27.546875 53.03125 
Q 35.984375 53.03125 41.359375 48.75 
Q 46.734375 44.484375 48.25 36.625 
L 39.703125 35.296875 
Q 38.484375 40.53125 35.375 43.15625 
Q 32.28125 45.796875 27.875 45.796875 
Q 21.234375 45.796875 17.078125 41.03125 
Q 12.9375 36.28125 12.9375 25.984375 
Q 12.9375 15.53125 16.9375 10.796875 
Q 20.953125 6.0625 27.390625 6.0625 
Q 32.5625 6.0625 36.03125 9.234375 
Q 39.5 12.40625 40.4375 19 
z
" id="ArialMT-63"/>
      <path d="M 42.09375 16.703125 
L 51.171875 15.578125 
Q 49.03125 7.625 43.21875 3.21875 
Q 37.40625 -1.171875 28.375 -1.171875 
Q 17 -1.171875 10.328125 5.828125 
Q 3.65625 12.84375 3.65625 25.484375 
Q 3.65625 38.578125 10.390625 45.796875 
Q 17.140625 53.03125 27.875 53.03125 
Q 38.28125 53.03125 44.875 45.953125 
Q 51.46875 38.875 51.46875 26.03125 
Q 51.46875 25.25 51.421875 23.6875 
L 12.75 23.6875 
Q 13.234375 15.140625 17.578125 10.59375 
Q 21.921875 6.0625 28.421875 6.0625 
Q 33.25 6.0625 36.671875 8.59375 
Q 40.09375 11.140625 42.09375 16.703125 
z
M 13.234375 30.90625 
L 42.1875 30.90625 
Q 41.609375 37.453125 38.875 40.71875 
Q 34.671875 45.796875 27.984375 45.796875 
Q 21.921875 45.796875 17.796875 41.75 
Q 13.671875 37.703125 13.234375 30.90625 
z
" id="ArialMT-65"/>
      <path d="M 3.078125 15.484375 
L 11.765625 16.84375 
Q 12.5 11.625 15.84375 8.84375 
Q 19.1875 6.0625 25.203125 6.0625 
Q 31.25 6.0625 34.171875 8.515625 
Q 37.109375 10.984375 37.109375 14.3125 
Q 37.109375 17.28125 34.515625 19 
Q 32.71875 20.171875 25.53125 21.96875 
Q 15.875 24.421875 12.140625 26.203125 
Q 8.40625 27.984375 6.46875 31.125 
Q 4.546875 34.28125 4.546875 38.09375 
Q 4.546875 41.546875 6.125 44.5 
Q 7.71875 47.46875 10.453125 49.421875 
Q 12.5 50.921875 16.03125 51.96875 
Q 19.578125 53.03125 23.640625 53.03125 
Q 29.734375 53.03125 34.34375 51.265625 
Q 38.96875 49.515625 41.15625 46.5 
Q 43.359375 43.5 44.1875 38.484375 
L 35.59375 37.3125 
Q 35.015625 41.3125 32.203125 43.546875 
Q 29.390625 45.796875 24.265625 45.796875 
Q 18.21875 45.796875 15.625 43.796875 
Q 13.03125 41.796875 13.03125 39.109375 
Q 13.03125 37.40625 14.109375 36.03125 
Q 15.1875 34.625 17.484375 33.6875 
Q 18.796875 33.203125 25.25 31.453125 
Q 34.578125 28.953125 38.25 27.359375 
Q 41.9375 25.78125 44.03125 22.75 
Q 46.140625 19.734375 46.140625 15.234375 
Q 46.140625 10.84375 43.578125 6.953125 
Q 41.015625 3.078125 36.171875 0.953125 
Q 31.34375 -1.171875 25.25 -1.171875 
Q 15.140625 -1.171875 9.84375 3.03125 
Q 4.546875 7.234375 3.078125 15.484375 
z
" id="ArialMT-73"/>
      <path id="ArialMT-20"/>
      <path d="M 40.4375 6.390625 
Q 35.546875 2.25 31.03125 0.53125 
Q 26.515625 -1.171875 21.34375 -1.171875 
Q 12.796875 -1.171875 8.203125 3 
Q 3.609375 7.171875 3.609375 13.671875 
Q 3.609375 17.484375 5.34375 20.625 
Q 7.078125 23.78125 9.890625 25.6875 
Q 12.703125 27.59375 16.21875 28.5625 
Q 18.796875 29.25 24.03125 29.890625 
Q 34.671875 31.15625 39.703125 32.90625 
Q 39.75 34.71875 39.75 35.203125 
Q 39.75 40.578125 37.25 42.78125 
Q 33.890625 45.75 27.25 45.75 
Q 21.046875 45.75 18.09375 43.578125 
Q 15.140625 41.40625 13.71875 35.890625 
L 5.125 37.0625 
Q 6.296875 42.578125 8.984375 45.96875 
Q 11.671875 49.359375 16.75 51.1875 
Q 21.828125 53.03125 28.515625 53.03125 
Q 35.15625 53.03125 39.296875 51.46875 
Q 43.453125 49.90625 45.40625 47.53125 
Q 47.359375 45.171875 48.140625 41.546875 
Q 48.578125 39.3125 48.578125 33.453125 
L 48.578125 21.734375 
Q 48.578125 9.46875 49.140625 6.21875 
Q 49.703125 2.984375 51.375 0 
L 42.1875 0 
Q 40.828125 2.734375 40.4375 6.390625 
z
M 39.703125 26.03125 
Q 34.90625 24.078125 25.34375 22.703125 
Q 19.921875 21.921875 17.671875 20.9375 
Q 15.4375 19.96875 14.203125 18.09375 
Q 12.984375 16.21875 12.984375 13.921875 
Q 12.984375 10.40625 15.640625 8.0625 
Q 18.3125 5.71875 23.4375 5.71875 
Q 28.515625 5.71875 32.46875 7.9375 
Q 36.421875 10.15625 38.28125 14.015625 
Q 39.703125 17 39.703125 22.796875 
z
" id="ArialMT-61"/>
      <path d="M 6.59375 0 
L 6.59375 51.859375 
L 14.453125 51.859375 
L 14.453125 44.578125 
Q 16.890625 48.390625 20.9375 50.703125 
Q 25 53.03125 30.171875 53.03125 
Q 35.9375 53.03125 39.625 50.640625 
Q 43.3125 48.25 44.828125 43.953125 
Q 50.984375 53.03125 60.84375 53.03125 
Q 68.5625 53.03125 72.703125 48.75 
Q 76.859375 44.484375 76.859375 35.59375 
L 76.859375 0 
L 68.109375 0 
L 68.109375 32.671875 
Q 68.109375 37.9375 67.25 40.25 
Q 66.40625 42.578125 64.15625 43.984375 
Q 61.921875 45.40625 58.890625 45.40625 
Q 53.421875 45.40625 49.796875 41.765625 
Q 46.1875 38.140625 46.1875 30.125 
L 46.1875 0 
L 37.40625 0 
L 37.40625 33.6875 
Q 37.40625 39.546875 35.25 42.46875 
Q 33.109375 45.40625 28.21875 45.40625 
Q 24.515625 45.40625 21.359375 43.453125 
Q 18.21875 41.5 16.796875 37.734375 
Q 15.375 33.984375 15.375 26.90625 
L 15.375 0 
z
" id="ArialMT-6d"/>
      <path d="M 40.578125 0 
L 40.578125 7.625 
Q 34.515625 -1.171875 24.125 -1.171875 
Q 19.53125 -1.171875 15.546875 0.578125 
Q 11.578125 2.34375 9.640625 5 
Q 7.71875 7.671875 6.9375 11.53125 
Q 6.390625 14.109375 6.390625 19.734375 
L 6.390625 51.859375 
L 15.1875 51.859375 
L 15.1875 23.09375 
Q 15.1875 16.21875 15.71875 13.8125 
Q 16.546875 10.359375 19.234375 8.375 
Q 21.921875 6.390625 25.875 6.390625 
Q 29.828125 6.390625 33.296875 8.421875 
Q 36.765625 10.453125 38.203125 13.9375 
Q 39.65625 17.4375 39.65625 24.078125 
L 39.65625 51.859375 
L 48.4375 51.859375 
L 48.4375 0 
z
" id="ArialMT-75"/>
      <path d="M 6.59375 0 
L 6.59375 51.859375 
L 14.5 51.859375 
L 14.5 44.484375 
Q 20.21875 53.03125 31 53.03125 
Q 35.6875 53.03125 39.625 51.34375 
Q 43.5625 49.65625 45.515625 46.921875 
Q 47.46875 44.1875 48.25 40.4375 
Q 48.734375 37.984375 48.734375 31.890625 
L 48.734375 0 
L 39.9375 0 
L 39.9375 31.546875 
Q 39.9375 36.921875 38.90625 39.578125 
Q 37.890625 42.234375 35.28125 43.8125 
Q 32.671875 45.40625 29.15625 45.40625 
Q 23.53125 45.40625 19.453125 41.84375 
Q 15.375 38.28125 15.375 28.328125 
L 15.375 0 
z
" id="ArialMT-6e"/>
      <path d="M 25.78125 7.859375 
L 27.046875 0.09375 
Q 23.34375 -0.6875 20.40625 -0.6875 
Q 15.625 -0.6875 12.984375 0.828125 
Q 10.359375 2.34375 9.28125 4.8125 
Q 8.203125 7.28125 8.203125 15.1875 
L 8.203125 45.015625 
L 1.765625 45.015625 
L 1.765625 51.859375 
L 8.203125 51.859375 
L 8.203125 64.703125 
L 16.9375 69.96875 
L 16.9375 51.859375 
L 25.78125 51.859375 
L 25.78125 45.015625 
L 16.9375 45.015625 
L 16.9375 14.703125 
Q 16.9375 10.9375 17.40625 9.859375 
Q 17.875 8.796875 18.921875 8.15625 
Q 19.96875 7.515625 21.921875 7.515625 
Q 23.390625 7.515625 25.78125 7.859375 
z
" id="ArialMT-74"/>
     </defs>
     <g style="fill:#262626;" transform="translate(110.191452 249.636)scale(0.176 -0.176)">
      <use xlink:href="#ArialMT-70"/>
      <use x="55.615234" xlink:href="#ArialMT-72"/>
      <use x="88.916016" xlink:href="#ArialMT-6f"/>
      <use x="144.53125" xlink:href="#ArialMT-63"/>
      <use x="194.53125" xlink:href="#ArialMT-65"/>
      <use x="250.146484" xlink:href="#ArialMT-73"/>
      <use x="300.146484" xlink:href="#ArialMT-73"/>
      <use x="350.146484" xlink:href="#ArialMT-6f"/>
      <use x="405.761719" xlink:href="#ArialMT-72"/>
      <use x="439.0625" xlink:href="#ArialMT-73"/>
      <use x="489.0625" xlink:href="#ArialMT-20"/>
      <use x="516.845703" xlink:href="#ArialMT-61"/>
      <use x="572.460938" xlink:href="#ArialMT-6d"/>
      <use x="655.761719" xlink:href="#ArialMT-6f"/>
      <use x="711.376953" xlink:href="#ArialMT-75"/>
      <use x="766.992188" xlink:href="#ArialMT-6e"/>
      <use x="822.607422" xlink:href="#ArialMT-74"/>
     </g>
    </g>
   </g>
   <g id="matplotlib.axis_2">
    <g id="ytick_1">
     <g id="line2d_5">
      <path clip-path="url(#pcfc0e1052d)" d="M 61.1565 207.588118 
L 308.884155 207.588118 
" style="fill:none;stroke:#cccccc;stroke-linecap:round;stroke-width:1.6;"/>
     </g>
     <g id="line2d_6"/>
     <g id="text_6">
      <!-- 0.2 -->
      <defs>
       <path d="M 4.15625 35.296875 
Q 4.15625 48 6.765625 55.734375 
Q 9.375 63.484375 14.515625 67.671875 
Q 19.671875 71.875 27.484375 71.875 
Q 33.25 71.875 37.59375 69.546875 
Q 41.9375 67.234375 44.765625 62.859375 
Q 47.609375 58.5 49.21875 52.21875 
Q 50.828125 45.953125 50.828125 35.296875 
Q 50.828125 22.703125 48.234375 14.96875 
Q 45.65625 7.234375 40.5 3 
Q 35.359375 -1.21875 27.484375 -1.21875 
Q 17.140625 -1.21875 11.234375 6.203125 
Q 4.15625 15.140625 4.15625 35.296875 
z
M 13.1875 35.296875 
Q 13.1875 17.671875 17.3125 11.828125 
Q 21.4375 6 27.484375 6 
Q 33.546875 6 37.671875 11.859375 
Q 41.796875 17.71875 41.796875 35.296875 
Q 41.796875 52.984375 37.671875 58.78125 
Q 33.546875 64.59375 27.390625 64.59375 
Q 21.34375 64.59375 17.71875 59.46875 
Q 13.1875 52.9375 13.1875 35.296875 
z
" id="ArialMT-30"/>
       <path d="M 9.078125 0 
L 9.078125 10.015625 
L 19.09375 10.015625 
L 19.09375 0 
z
" id="ArialMT-2e"/>
      </defs>
      <g style="fill:#262626;" transform="translate(27.7165 213.314368)scale(0.16 -0.16)">
       <use xlink:href="#ArialMT-30"/>
       <use x="55.615234" xlink:href="#ArialMT-2e"/>
       <use x="83.398438" xlink:href="#ArialMT-32"/>
      </g>
     </g>
    </g>
    <g id="ytick_2">
     <g id="line2d_7">
      <path clip-path="url(#pcfc0e1052d)" d="M 61.1565 164.859084 
L 308.884155 164.859084 
" style="fill:none;stroke:#cccccc;stroke-linecap:round;stroke-width:1.6;"/>
     </g>
     <g id="line2d_8"/>
     <g id="text_7">
      <!-- 0.4 -->
      <g style="fill:#262626;" transform="translate(27.7165 170.585334)scale(0.16 -0.16)">
       <use xlink:href="#ArialMT-30"/>
       <use x="55.615234" xlink:href="#ArialMT-2e"/>
       <use x="83.398438" xlink:href="#ArialMT-34"/>
      </g>
     </g>
    </g>
    <g id="ytick_3">
     <g id="line2d_9">
      <path clip-path="url(#pcfc0e1052d)" d="M 61.1565 122.130051 
L 308.884155 122.130051 
" style="fill:none;stroke:#cccccc;stroke-linecap:round;stroke-width:1.6;"/>
     </g>
     <g id="line2d_10"/>
     <g id="text_8">
      <!-- 0.6 -->
      <defs>
       <path d="M 49.75 54.046875 
L 41.015625 53.375 
Q 39.84375 58.546875 37.703125 60.890625 
Q 34.125 64.65625 28.90625 64.65625 
Q 24.703125 64.65625 21.53125 62.3125 
Q 17.390625 59.28125 14.984375 53.46875 
Q 12.59375 47.65625 12.5 36.921875 
Q 15.671875 41.75 20.265625 44.09375 
Q 24.859375 46.4375 29.890625 46.4375 
Q 38.671875 46.4375 44.84375 39.96875 
Q 51.03125 33.5 51.03125 23.25 
Q 51.03125 16.5 48.125 10.71875 
Q 45.21875 4.9375 40.140625 1.859375 
Q 35.0625 -1.21875 28.609375 -1.21875 
Q 17.625 -1.21875 10.6875 6.859375 
Q 3.765625 14.9375 3.765625 33.5 
Q 3.765625 54.25 11.421875 63.671875 
Q 18.109375 71.875 29.4375 71.875 
Q 37.890625 71.875 43.28125 67.140625 
Q 48.6875 62.40625 49.75 54.046875 
z
M 13.875 23.1875 
Q 13.875 18.65625 15.796875 14.5 
Q 17.71875 10.359375 21.1875 8.171875 
Q 24.65625 6 28.46875 6 
Q 34.03125 6 38.03125 10.484375 
Q 42.046875 14.984375 42.046875 22.703125 
Q 42.046875 30.125 38.078125 34.390625 
Q 34.125 38.671875 28.125 38.671875 
Q 22.171875 38.671875 18.015625 34.390625 
Q 13.875 30.125 13.875 23.1875 
z
" id="ArialMT-36"/>
      </defs>
      <g style="fill:#262626;" transform="translate(27.7165 127.856301)scale(0.16 -0.16)">
       <use xlink:href="#ArialMT-30"/>
       <use x="55.615234" xlink:href="#ArialMT-2e"/>
       <use x="83.398438" xlink:href="#ArialMT-36"/>
      </g>
     </g>
    </g>
    <g id="ytick_4">
     <g id="line2d_11">
      <path clip-path="url(#pcfc0e1052d)" d="M 61.1565 79.401017 
L 308.884155 79.401017 
" style="fill:none;stroke:#cccccc;stroke-linecap:round;stroke-width:1.6;"/>
     </g>
     <g id="line2d_12"/>
     <g id="text_9">
      <!-- 0.8 -->
      <g style="fill:#262626;" transform="translate(27.7165 85.127267)scale(0.16 -0.16)">
       <use xlink:href="#ArialMT-30"/>
       <use x="55.615234" xlink:href="#ArialMT-2e"/>
       <use x="83.398438" xlink:href="#ArialMT-38"/>
      </g>
     </g>
    </g>
    <g id="ytick_5">
     <g id="line2d_13">
      <path clip-path="url(#pcfc0e1052d)" d="M 61.1565 36.671984 
L 308.884155 36.671984 
" style="fill:none;stroke:#cccccc;stroke-linecap:round;stroke-width:1.6;"/>
     </g>
     <g id="line2d_14"/>
     <g id="text_10">
      <!-- 1.0 -->
      <g style="fill:#262626;" transform="translate(27.7165 42.398234)scale(0.16 -0.16)">
       <use xlink:href="#ArialMT-31"/>
       <use x="55.615234" xlink:href="#ArialMT-2e"/>
       <use x="83.398438" xlink:href="#ArialMT-30"/>
      </g>
     </g>
    </g>
    <g id="text_11">
     <!-- efficiency -->
     <defs>
      <path d="M 8.6875 0 
L 8.6875 45.015625 
L 0.921875 45.015625 
L 0.921875 51.859375 
L 8.6875 51.859375 
L 8.6875 57.375 
Q 8.6875 62.59375 9.625 65.140625 
Q 10.890625 68.5625 14.078125 70.671875 
Q 17.28125 72.796875 23.046875 72.796875 
Q 26.765625 72.796875 31.25 71.921875 
L 29.9375 64.265625 
Q 27.203125 64.75 24.75 64.75 
Q 20.75 64.75 19.09375 63.03125 
Q 17.4375 61.328125 17.4375 56.640625 
L 17.4375 51.859375 
L 27.546875 51.859375 
L 27.546875 45.015625 
L 17.4375 45.015625 
L 17.4375 0 
z
" id="ArialMT-66"/>
      <path d="M 6.640625 61.46875 
L 6.640625 71.578125 
L 15.4375 71.578125 
L 15.4375 61.46875 
z
M 6.640625 0 
L 6.640625 51.859375 
L 15.4375 51.859375 
L 15.4375 0 
z
" id="ArialMT-69"/>
      <path d="M 6.203125 -19.96875 
L 5.21875 -11.71875 
Q 8.109375 -12.5 10.25 -12.5 
Q 13.1875 -12.5 14.9375 -11.515625 
Q 16.703125 -10.546875 17.828125 -8.796875 
Q 18.65625 -7.46875 20.515625 -2.25 
Q 20.75 -1.515625 21.296875 -0.09375 
L 1.609375 51.859375 
L 11.078125 51.859375 
L 21.875 21.828125 
Q 23.96875 16.109375 25.640625 9.8125 
Q 27.15625 15.875 29.25 21.625 
L 40.328125 51.859375 
L 49.125 51.859375 
L 29.390625 -0.875 
Q 26.21875 -9.421875 24.46875 -12.640625 
Q 22.125 -17 19.09375 -19.015625 
Q 16.0625 -21.046875 11.859375 -21.046875 
Q 9.328125 -21.046875 6.203125 -19.96875 
z
" id="ArialMT-79"/>
     </defs>
     <g style="fill:#262626;" transform="translate(20.01225 153.18125)rotate(-90)scale(0.176 -0.176)">
      <use xlink:href="#ArialMT-65"/>
      <use x="55.615234" xlink:href="#ArialMT-66"/>
      <use x="83.382812" xlink:href="#ArialMT-66"/>
      <use x="111.166016" xlink:href="#ArialMT-69"/>
      <use x="133.382812" xlink:href="#ArialMT-63"/>
      <use x="183.382812" xlink:href="#ArialMT-69"/>
      <use x="205.599609" xlink:href="#ArialMT-65"/>
      <use x="261.214844" xlink:href="#ArialMT-6e"/>
      <use x="316.830078" xlink:href="#ArialMT-63"/>
      <use x="366.830078" xlink:href="#ArialMT-79"/>
     </g>
    </g>
   </g>
   <g id="PathCollection_1">
    <path clip-path="url(#pcfc0e1052d)" d="M 88.738509 40.055932 
L 95.506405 40.055932 
L 95.506405 33.288035 
L 88.738509 33.288035 
z
" style="fill:#db5f57;stroke:#db5f57;stroke-width:2.025;"/>
    <path clip-path="url(#pcfc0e1052d)" d="M 150.670422 146.878516 
L 157.438319 146.878516 
L 157.438319 140.110619 
L 150.670422 140.110619 
z
" style="fill:#db5f57;stroke:#db5f57;stroke-width:2.025;"/>
    <path clip-path="url(#pcfc0e1052d)" d="M 212.602336 182.486043 
L 219.370232 182.486043 
L 219.370232 175.718147 
L 212.602336 175.718147 
z
" style="fill:#db5f57;stroke:#db5f57;stroke-width:2.025;"/>
    <path clip-path="url(#pcfc0e1052d)" d="M 274.53425 200.289807 
L 281.302146 200.289807 
L 281.302146 193.521911 
L 274.53425 193.521911 
z
" style="fill:#db5f57;stroke:#db5f57;stroke-width:2.025;"/>
   </g>
   <g id="line2d_15">
    <path clip-path="url(#pcfc0e1052d)" d="M 92.122457 36.671984 
L 154.054371 143.494567 
L 215.986284 179.102095 
L 277.918198 196.905859 
" style="fill:none;stroke:#db5f57;stroke-linecap:round;stroke-width:2.7;"/>
   </g>
   <g id="line2d_16">
    <path clip-path="url(#pcfc0e1052d)" d="M 0 0 
" style="fill:none;stroke:#db5f57;stroke-linecap:round;stroke-width:2.7;"/>
   </g>
   <g id="line2d_17">
    <path clip-path="url(#pcfc0e1052d)" d="M 0 0 
" style="fill:none;stroke:#db5f57;stroke-linecap:round;stroke-width:2.7;"/>
   </g>
   <g id="line2d_18">
    <path clip-path="url(#pcfc0e1052d)" d="M 0 0 
" style="fill:none;stroke:#db5f57;stroke-linecap:round;stroke-width:2.7;"/>
   </g>
   <g id="line2d_19">
    <path clip-path="url(#pcfc0e1052d)" d="M 0 0 
" style="fill:none;stroke:#db5f57;stroke-linecap:round;stroke-width:2.7;"/>
   </g>
   <g id="PathCollection_2">
    <defs>
     <path d="M 0 3.383948 
C 0.897434 3.383948 1.758231 3.027394 2.392813 2.392813 
C 3.027394 1.758231 3.383948 0.897434 3.383948 0 
C 3.383948 -0.897434 3.027394 -1.758231 2.392813 -2.392813 
C 1.758231 -3.027394 0.897434 -3.383948 0 -3.383948 
C -0.897434 -3.383948 -1.758231 -3.027394 -2.392813 -2.392813 
C -3.027394 -1.758231 -3.383948 -0.897434 -3.383948 0 
C -3.383948 0.897434 -3.027394 1.758231 -2.392813 2.392813 
C -1.758231 3.027394 -0.897434 3.383948 0 3.383948 
z
" id="C0_0_d54b866507"/>
    </defs>
    <g clip-path="url(#pcfc0e1052d)">
     <use style="fill:#d3db57;stroke:#d3db57;stroke-width:2.025;" x="92.122457" xlink:href="#C0_0_d54b866507" y="37.271077"/>
    </g>
    <g clip-path="url(#pcfc0e1052d)">
     <use style="fill:#d3db57;stroke:#d3db57;stroke-width:2.025;" x="154.054371" xlink:href="#C0_0_d54b866507" y="72.013203"/>
    </g>
    <g clip-path="url(#pcfc0e1052d)">
     <use style="fill:#d3db57;stroke:#d3db57;stroke-width:2.025;" x="215.986284" xlink:href="#C0_0_d54b866507" y="129.226406"/>
    </g>
    <g clip-path="url(#pcfc0e1052d)">
     <use style="fill:#d3db57;stroke:#d3db57;stroke-width:2.025;" x="277.918198" xlink:href="#C0_0_d54b866507" y="149.946914"/>
    </g>
   </g>
   <g id="line2d_20">
    <path clip-path="url(#pcfc0e1052d)" d="M 92.122457 37.271077 
L 154.054371 72.013203 
L 215.986284 129.226406 
L 277.918198 149.946914 
" style="fill:none;stroke:#d3db57;stroke-linecap:round;stroke-width:2.7;"/>
   </g>
   <g id="line2d_21">
    <path clip-path="url(#pcfc0e1052d)" d="M 0 0 
" style="fill:none;stroke:#d3db57;stroke-linecap:round;stroke-width:2.7;"/>
   </g>
   <g id="line2d_22">
    <path clip-path="url(#pcfc0e1052d)" d="M 0 0 
" style="fill:none;stroke:#d3db57;stroke-linecap:round;stroke-width:2.7;"/>
   </g>
   <g id="line2d_23">
    <path clip-path="url(#pcfc0e1052d)" d="M 0 0 
" style="fill:none;stroke:#d3db57;stroke-linecap:round;stroke-width:2.7;"/>
   </g>
   <g id="line2d_24">
    <path clip-path="url(#pcfc0e1052d)" d="M 0 0 
" style="fill:none;stroke:#d3db57;stroke-linecap:round;stroke-width:2.7;"/>
   </g>
   <g id="patch_3">
    <path d="M 61.1565 207.20575 
L 61.1565 25.79775 
" style="fill:none;stroke:#cccccc;stroke-linecap:square;stroke-linejoin:miter;stroke-width:1.5;"/>
   </g>
   <g id="patch_4">
    <path d="M 61.1565 207.20575 
L 308.884155 207.20575 
" style="fill:none;stroke:#cccccc;stroke-linecap:square;stroke-linejoin:miter;stroke-width:1.5;"/>
   </g>
   <g id="PathCollection_3">
    <path clip-path="url(#pcfc0e1052d)" d="M 92.122457 41.08153 
L 95.506405 34.313633 
L 88.738509 34.313633 
z
" style="fill:#57db5f;stroke:#57db5f;stroke-width:2.025;"/>
    <path clip-path="url(#pcfc0e1052d)" d="M 154.054371 74.340524 
L 157.438319 67.572628 
L 150.670422 67.572628 
z
" style="fill:#57db5f;stroke:#57db5f;stroke-width:2.025;"/>
    <path clip-path="url(#pcfc0e1052d)" d="M 215.986284 141.600455 
L 219.370232 134.832559 
L 212.602336 134.832559 
z
" style="fill:#57db5f;stroke:#57db5f;stroke-width:2.025;"/>
    <path clip-path="url(#pcfc0e1052d)" d="M 277.918198 170.635411 
L 281.302146 163.867515 
L 274.53425 163.867515 
z
" style="fill:#57db5f;stroke:#57db5f;stroke-width:2.025;"/>
   </g>
   <g id="line2d_25">
    <path clip-path="url(#pcfc0e1052d)" d="M 92.122457 37.697581 
L 154.054371 70.956576 
L 215.986284 138.216507 
L 277.918198 167.251463 
" style="fill:none;stroke:#57db5f;stroke-linecap:round;stroke-width:2.7;"/>
   </g>
   <g id="line2d_26">
    <path clip-path="url(#pcfc0e1052d)" d="M 0 0 
" style="fill:none;stroke:#57db5f;stroke-linecap:round;stroke-width:2.7;"/>
   </g>
   <g id="line2d_27">
    <path clip-path="url(#pcfc0e1052d)" d="M 0 0 
" style="fill:none;stroke:#57db5f;stroke-linecap:round;stroke-width:2.7;"/>
   </g>
   <g id="line2d_28">
    <path clip-path="url(#pcfc0e1052d)" d="M 0 0 
" style="fill:none;stroke:#57db5f;stroke-linecap:round;stroke-width:2.7;"/>
   </g>
   <g id="line2d_29">
    <path clip-path="url(#pcfc0e1052d)" d="M 0 0 
" style="fill:none;stroke:#57db5f;stroke-linecap:round;stroke-width:2.7;"/>
   </g>
   <g id="text_12">
    <!-- iteration limit = 100 -->
    <defs>
     <path d="M 6.390625 0 
L 6.390625 71.578125 
L 15.1875 71.578125 
L 15.1875 0 
z
" id="ArialMT-6c"/>
     <path d="M 52.828125 42.09375 
L 5.5625 42.09375 
L 5.5625 50.296875 
L 52.828125 50.296875 
z
M 52.828125 20.359375 
L 5.5625 20.359375 
L 5.5625 28.5625 
L 52.828125 28.5625 
z
" id="ArialMT-3d"/>
    </defs>
    <g style="fill:#262626;" transform="translate(110.920202 19.79775)scale(0.176 -0.176)">
     <use xlink:href="#ArialMT-69"/>
     <use x="22.216797" xlink:href="#ArialMT-74"/>
     <use x="50" xlink:href="#ArialMT-65"/>
     <use x="105.615234" xlink:href="#ArialMT-72"/>
     <use x="138.916016" xlink:href="#ArialMT-61"/>
     <use x="194.53125" xlink:href="#ArialMT-74"/>
     <use x="222.314453" xlink:href="#ArialMT-69"/>
     <use x="244.53125" xlink:href="#ArialMT-6f"/>
     <use x="300.146484" xlink:href="#ArialMT-6e"/>
     <use x="355.761719" xlink:href="#ArialMT-20"/>
     <use x="383.544922" xlink:href="#ArialMT-6c"/>
     <use x="405.761719" xlink:href="#ArialMT-69"/>
     <use x="427.978516" xlink:href="#ArialMT-6d"/>
     <use x="511.279297" xlink:href="#ArialMT-69"/>
     <use x="533.496094" xlink:href="#ArialMT-74"/>
     <use x="561.279297" xlink:href="#ArialMT-20"/>
     <use x="589.0625" xlink:href="#ArialMT-3d"/>
     <use x="647.460938" xlink:href="#ArialMT-20"/>
     <use x="675.244141" xlink:href="#ArialMT-31"/>
     <use x="730.859375" xlink:href="#ArialMT-30"/>
     <use x="786.474609" xlink:href="#ArialMT-30"/>
    </g>
   </g>
   <g id="PathCollection_4">
    <defs>
     <path d="M 0 -3.383948 
L -0.759744 -1.045697 
L -3.218326 -1.045697 
L -1.229291 0.399421 
L -1.989035 2.737672 
L -0 1.292553 
L 1.989035 2.737672 
L 1.229291 0.399421 
L 3.218326 -1.045697 
L 0.759744 -1.045697 
z
" id="C1_0_ac9bede0e0"/>
    </defs>
    <g clip-path="url(#pcfc0e1052d)">
     <use style="fill:#57d3db;stroke:#57d3db;stroke-width:2.025;" x="92.122457" xlink:href="#C1_0_ac9bede0e0" y="36.839071"/>
    </g>
    <g clip-path="url(#pcfc0e1052d)">
     <use style="fill:#57d3db;stroke:#57d3db;stroke-width:2.025;" x="154.054371" xlink:href="#C1_0_ac9bede0e0" y="77.062352"/>
    </g>
    <g clip-path="url(#pcfc0e1052d)">
     <use style="fill:#57d3db;stroke:#57d3db;stroke-width:2.025;" x="215.986284" xlink:href="#C1_0_ac9bede0e0" y="98.922459"/>
    </g>
    <g clip-path="url(#pcfc0e1052d)">
     <use style="fill:#57d3db;stroke:#57d3db;stroke-width:2.025;" x="277.918198" xlink:href="#C1_0_ac9bede0e0" y="101.695698"/>
    </g>
   </g>
   <g id="line2d_30">
    <path clip-path="url(#pcfc0e1052d)" d="M 92.122457 36.839071 
L 154.054371 77.062352 
L 215.986284 98.922459 
L 277.918198 101.695698 
" style="fill:none;stroke:#57d3db;stroke-linecap:round;stroke-width:2.7;"/>
   </g>
   <g id="line2d_31">
    <path clip-path="url(#pcfc0e1052d)" d="M 0 0 
" style="fill:none;stroke:#57d3db;stroke-linecap:round;stroke-width:2.7;"/>
   </g>
   <g id="line2d_32">
    <path clip-path="url(#pcfc0e1052d)" d="M 0 0 
" style="fill:none;stroke:#57d3db;stroke-linecap:round;stroke-width:2.7;"/>
   </g>
   <g id="line2d_33">
    <path clip-path="url(#pcfc0e1052d)" d="M 0 0 
" style="fill:none;stroke:#57d3db;stroke-linecap:round;stroke-width:2.7;"/>
   </g>
   <g id="line2d_34">
    <path clip-path="url(#pcfc0e1052d)" d="M 0 0 
" style="fill:none;stroke:#57d3db;stroke-linecap:round;stroke-width:2.7;"/>
   </g>
   <g id="PathCollection_5">
    <path clip-path="url(#pcfc0e1052d)" d="M 88.738509 49.034998 
L 95.506405 42.267102 
M 88.738509 42.267102 
L 95.506405 49.034998 
" style="fill:#5f57db;stroke:#5f57db;stroke-width:2.025;"/>
    <path clip-path="url(#pcfc0e1052d)" d="M 150.670422 86.453171 
L 157.438319 79.685275 
M 150.670422 79.685275 
L 157.438319 86.453171 
" style="fill:#5f57db;stroke:#5f57db;stroke-width:2.025;"/>
    <path clip-path="url(#pcfc0e1052d)" d="M 212.602336 63.183265 
L 219.370232 56.415369 
M 212.602336 56.415369 
L 219.370232 63.183265 
" style="fill:#5f57db;stroke:#5f57db;stroke-width:2.025;"/>
    <path clip-path="url(#pcfc0e1052d)" d="M 274.53425 80.249495 
L 281.302146 73.481598 
M 274.53425 73.481598 
L 281.302146 80.249495 
" style="fill:#5f57db;stroke:#5f57db;stroke-width:2.025;"/>
   </g>
   <g id="line2d_35">
    <path clip-path="url(#pcfc0e1052d)" d="M 92.122457 45.65105 
L 154.054371 83.069223 
L 215.986284 59.799317 
L 277.918198 76.865547 
" style="fill:none;stroke:#5f57db;stroke-linecap:round;stroke-width:2.7;"/>
   </g>
   <g id="line2d_36">
    <path clip-path="url(#pcfc0e1052d)" d="M 0 0 
" style="fill:none;stroke:#5f57db;stroke-linecap:round;stroke-width:2.7;"/>
   </g>
   <g id="line2d_37">
    <path clip-path="url(#pcfc0e1052d)" d="M 0 0 
" style="fill:none;stroke:#5f57db;stroke-linecap:round;stroke-width:2.7;"/>
   </g>
   <g id="line2d_38">
    <path clip-path="url(#pcfc0e1052d)" d="M 0 0 
" style="fill:none;stroke:#5f57db;stroke-linecap:round;stroke-width:2.7;"/>
   </g>
   <g id="line2d_39">
    <path clip-path="url(#pcfc0e1052d)" d="M 0 0 
" style="fill:none;stroke:#5f57db;stroke-linecap:round;stroke-width:2.7;"/>
   </g>
   <g id="PathCollection_6">
    <path clip-path="url(#pcfc0e1052d)" d="M 88.738509 37.929532 
L 95.506405 37.929532 
M 92.122457 41.313481 
L 92.122457 34.545584 
" style="fill:#db57d3;stroke:#db57d3;stroke-width:2.025;"/>
    <path clip-path="url(#pcfc0e1052d)" d="M 150.670422 69.208067 
L 157.438319 69.208067 
M 154.054371 72.592015 
L 154.054371 65.824119 
" style="fill:#db57d3;stroke:#db57d3;stroke-width:2.025;"/>
    <path clip-path="url(#pcfc0e1052d)" d="M 212.602336 62.543051 
L 219.370232 62.543051 
M 215.986284 65.926999 
L 215.986284 59.159103 
" style="fill:#db57d3;stroke:#db57d3;stroke-width:2.025;"/>
    <path clip-path="url(#pcfc0e1052d)" d="M 274.53425 89.959318 
L 281.302146 89.959318 
M 277.918198 93.343266 
L 277.918198 86.57537 
" style="fill:#db57d3;stroke:#db57d3;stroke-width:2.025;"/>
   </g>
   <g id="line2d_40">
    <path clip-path="url(#pcfc0e1052d)" d="M 92.122457 37.929532 
L 154.054371 69.208067 
L 215.986284 62.543051 
L 277.918198 89.959318 
" style="fill:none;stroke:#db57d3;stroke-linecap:round;stroke-width:2.7;"/>
   </g>
   <g id="line2d_41">
    <path clip-path="url(#pcfc0e1052d)" d="M 0 0 
" style="fill:none;stroke:#db57d3;stroke-linecap:round;stroke-width:2.7;"/>
   </g>
   <g id="line2d_42">
    <path clip-path="url(#pcfc0e1052d)" d="M 0 0 
" style="fill:none;stroke:#db57d3;stroke-linecap:round;stroke-width:2.7;"/>
   </g>
   <g id="line2d_43">
    <path clip-path="url(#pcfc0e1052d)" d="M 0 0 
" style="fill:none;stroke:#db57d3;stroke-linecap:round;stroke-width:2.7;"/>
   </g>
   <g id="line2d_44">
    <path clip-path="url(#pcfc0e1052d)" d="M 0 0 
" style="fill:none;stroke:#db57d3;stroke-linecap:round;stroke-width:2.7;"/>
   </g>
  </g>
  <g id="axes_2">
   <g id="patch_5">
    <path d="M 329.548846 207.20575 
L 577.276501 207.20575 
L 577.276501 25.79775 
L 329.548846 25.79775 
z
" style="fill:#ffffff;"/>
   </g>
   <g id="matplotlib.axis_3">
    <g id="xtick_5">
     <g id="line2d_45"/>
     <g id="text_13">
      <!-- 1 -->
      <g style="fill:#262626;" transform="translate(356.066053 229.85825)scale(0.16 -0.16)">
       <use xlink:href="#ArialMT-31"/>
      </g>
     </g>
    </g>
    <g id="xtick_6">
     <g id="line2d_46"/>
     <g id="text_14">
      <!-- 2 -->
      <g style="fill:#262626;" transform="translate(417.997967 229.85825)scale(0.16 -0.16)">
       <use xlink:href="#ArialMT-32"/>
      </g>
     </g>
    </g>
    <g id="xtick_7">
     <g id="line2d_47"/>
     <g id="text_15">
      <!-- 4 -->
      <g style="fill:#262626;" transform="translate(479.929881 229.85825)scale(0.16 -0.16)">
       <use xlink:href="#ArialMT-34"/>
      </g>
     </g>
    </g>
    <g id="xtick_8">
     <g id="line2d_48"/>
     <g id="text_16">
      <!-- 8 -->
      <g style="fill:#262626;" transform="translate(541.861794 229.85825)scale(0.16 -0.16)">
       <use xlink:href="#ArialMT-38"/>
      </g>
     </g>
    </g>
    <g id="text_17">
     <!-- processors amount -->
     <g style="fill:#262626;" transform="translate(378.583799 249.636)scale(0.176 -0.176)">
      <use xlink:href="#ArialMT-70"/>
      <use x="55.615234" xlink:href="#ArialMT-72"/>
      <use x="88.916016" xlink:href="#ArialMT-6f"/>
      <use x="144.53125" xlink:href="#ArialMT-63"/>
      <use x="194.53125" xlink:href="#ArialMT-65"/>
      <use x="250.146484" xlink:href="#ArialMT-73"/>
      <use x="300.146484" xlink:href="#ArialMT-73"/>
      <use x="350.146484" xlink:href="#ArialMT-6f"/>
      <use x="405.761719" xlink:href="#ArialMT-72"/>
      <use x="439.0625" xlink:href="#ArialMT-73"/>
      <use x="489.0625" xlink:href="#ArialMT-20"/>
      <use x="516.845703" xlink:href="#ArialMT-61"/>
      <use x="572.460938" xlink:href="#ArialMT-6d"/>
      <use x="655.761719" xlink:href="#ArialMT-6f"/>
      <use x="711.376953" xlink:href="#ArialMT-75"/>
      <use x="766.992188" xlink:href="#ArialMT-6e"/>
      <use x="822.607422" xlink:href="#ArialMT-74"/>
     </g>
    </g>
   </g>
   <g id="matplotlib.axis_4">
    <g id="ytick_6">
     <g id="line2d_49">
      <path clip-path="url(#p51d97e6f0c)" d="M 329.548846 207.588118 
L 577.276501 207.588118 
" style="fill:none;stroke:#cccccc;stroke-linecap:round;stroke-width:1.6;"/>
     </g>
     <g id="line2d_50"/>
    </g>
    <g id="ytick_7">
     <g id="line2d_51">
      <path clip-path="url(#p51d97e6f0c)" d="M 329.548846 164.859084 
L 577.276501 164.859084 
" style="fill:none;stroke:#cccccc;stroke-linecap:round;stroke-width:1.6;"/>
     </g>
     <g id="line2d_52"/>
    </g>
    <g id="ytick_8">
     <g id="line2d_53">
      <path clip-path="url(#p51d97e6f0c)" d="M 329.548846 122.130051 
L 577.276501 122.130051 
" style="fill:none;stroke:#cccccc;stroke-linecap:round;stroke-width:1.6;"/>
     </g>
     <g id="line2d_54"/>
    </g>
    <g id="ytick_9">
     <g id="line2d_55">
      <path clip-path="url(#p51d97e6f0c)" d="M 329.548846 79.401017 
L 577.276501 79.401017 
" style="fill:none;stroke:#cccccc;stroke-linecap:round;stroke-width:1.6;"/>
     </g>
     <g id="line2d_56"/>
    </g>
    <g id="ytick_10">
     <g id="line2d_57">
      <path clip-path="url(#p51d97e6f0c)" d="M 329.548846 36.671984 
L 577.276501 36.671984 
" style="fill:none;stroke:#cccccc;stroke-linecap:round;stroke-width:1.6;"/>
     </g>
     <g id="line2d_58"/>
    </g>
   </g>
   <g id="PathCollection_7">
    <path clip-path="url(#p51d97e6f0c)" d="M 357.130855 40.055932 
L 363.898751 40.055932 
L 363.898751 33.288035 
L 357.130855 33.288035 
z
" style="fill:#db5f57;stroke:#db5f57;stroke-width:2.025;"/>
    <path clip-path="url(#p51d97e6f0c)" d="M 419.062769 146.878516 
L 425.830665 146.878516 
L 425.830665 140.110619 
L 419.062769 140.110619 
z
" style="fill:#db5f57;stroke:#db5f57;stroke-width:2.025;"/>
    <path clip-path="url(#p51d97e6f0c)" d="M 480.994682 182.486043 
L 487.762579 182.486043 
L 487.762579 175.718147 
L 480.994682 175.718147 
z
" style="fill:#db5f57;stroke:#db5f57;stroke-width:2.025;"/>
    <path clip-path="url(#p51d97e6f0c)" d="M 542.926596 200.289807 
L 549.694492 200.289807 
L 549.694492 193.521911 
L 542.926596 193.521911 
z
" style="fill:#db5f57;stroke:#db5f57;stroke-width:2.025;"/>
   </g>
   <g id="line2d_59">
    <path clip-path="url(#p51d97e6f0c)" d="M 360.514803 36.671984 
L 422.446717 143.494567 
L 484.378631 179.102095 
L 546.310544 196.905859 
" style="fill:none;stroke:#db5f57;stroke-linecap:round;stroke-width:2.7;"/>
   </g>
   <g id="line2d_60">
    <path clip-path="url(#p51d97e6f0c)" d="M 0 0 
" style="fill:none;stroke:#db5f57;stroke-linecap:round;stroke-width:2.7;"/>
   </g>
   <g id="line2d_61">
    <path clip-path="url(#p51d97e6f0c)" d="M 0 0 
" style="fill:none;stroke:#db5f57;stroke-linecap:round;stroke-width:2.7;"/>
   </g>
   <g id="line2d_62">
    <path clip-path="url(#p51d97e6f0c)" d="M 0 0 
" style="fill:none;stroke:#db5f57;stroke-linecap:round;stroke-width:2.7;"/>
   </g>
   <g id="line2d_63">
    <path clip-path="url(#p51d97e6f0c)" d="M 0 0 
" style="fill:none;stroke:#db5f57;stroke-linecap:round;stroke-width:2.7;"/>
   </g>
   <g id="PathCollection_8">
    <defs>
     <path d="M 0 3.383948 
C 0.897434 3.383948 1.758231 3.027394 2.392813 2.392813 
C 3.027394 1.758231 3.383948 0.897434 3.383948 0 
C 3.383948 -0.897434 3.027394 -1.758231 2.392813 -2.392813 
C 1.758231 -3.027394 0.897434 -3.383948 0 -3.383948 
C -0.897434 -3.383948 -1.758231 -3.027394 -2.392813 -2.392813 
C -3.027394 -1.758231 -3.383948 -0.897434 -3.383948 0 
C -3.383948 0.897434 -3.027394 1.758231 -2.392813 2.392813 
C -1.758231 3.027394 -0.897434 3.383948 0 3.383948 
z
" id="C2_0_de0a3d4e82"/>
    </defs>
    <g clip-path="url(#p51d97e6f0c)">
     <use style="fill:#d3db57;stroke:#d3db57;stroke-width:2.025;" x="360.514803" xlink:href="#C2_0_de0a3d4e82" y="37.831613"/>
    </g>
    <g clip-path="url(#p51d97e6f0c)">
     <use style="fill:#d3db57;stroke:#d3db57;stroke-width:2.025;" x="422.446717" xlink:href="#C2_0_de0a3d4e82" y="62.422231"/>
    </g>
    <g clip-path="url(#p51d97e6f0c)">
     <use style="fill:#d3db57;stroke:#d3db57;stroke-width:2.025;" x="484.378631" xlink:href="#C2_0_de0a3d4e82" y="127.868548"/>
    </g>
    <g clip-path="url(#p51d97e6f0c)">
     <use style="fill:#d3db57;stroke:#d3db57;stroke-width:2.025;" x="546.310544" xlink:href="#C2_0_de0a3d4e82" y="170.071478"/>
    </g>
   </g>
   <g id="line2d_64">
    <path clip-path="url(#p51d97e6f0c)" d="M 360.514803 37.831613 
L 422.446717 62.422231 
L 484.378631 127.868548 
L 546.310544 170.071478 
" style="fill:none;stroke:#d3db57;stroke-linecap:round;stroke-width:2.7;"/>
   </g>
   <g id="line2d_65">
    <path clip-path="url(#p51d97e6f0c)" d="M 0 0 
" style="fill:none;stroke:#d3db57;stroke-linecap:round;stroke-width:2.7;"/>
   </g>
   <g id="line2d_66">
    <path clip-path="url(#p51d97e6f0c)" d="M 0 0 
" style="fill:none;stroke:#d3db57;stroke-linecap:round;stroke-width:2.7;"/>
   </g>
   <g id="line2d_67">
    <path clip-path="url(#p51d97e6f0c)" d="M 0 0 
" style="fill:none;stroke:#d3db57;stroke-linecap:round;stroke-width:2.7;"/>
   </g>
   <g id="line2d_68">
    <path clip-path="url(#p51d97e6f0c)" d="M 0 0 
" style="fill:none;stroke:#d3db57;stroke-linecap:round;stroke-width:2.7;"/>
   </g>
   <g id="patch_6">
    <path d="M 329.548846 207.20575 
L 329.548846 25.79775 
" style="fill:none;stroke:#cccccc;stroke-linecap:square;stroke-linejoin:miter;stroke-width:1.5;"/>
   </g>
   <g id="patch_7">
    <path d="M 329.548846 207.20575 
L 577.276501 207.20575 
" style="fill:none;stroke:#cccccc;stroke-linecap:square;stroke-linejoin:miter;stroke-width:1.5;"/>
   </g>
   <g id="PathCollection_9">
    <path clip-path="url(#p51d97e6f0c)" d="M 360.514803 40.361312 
L 363.898751 33.593416 
L 357.130855 33.593416 
z
" style="fill:#57db5f;stroke:#57db5f;stroke-width:2.025;"/>
    <path clip-path="url(#p51d97e6f0c)" d="M 422.446717 64.082152 
L 425.830665 57.314255 
L 419.062769 57.314255 
z
" style="fill:#57db5f;stroke:#57db5f;stroke-width:2.025;"/>
    <path clip-path="url(#p51d97e6f0c)" d="M 484.378631 142.303559 
L 487.762579 135.535663 
L 480.994682 135.535663 
z
" style="fill:#57db5f;stroke:#57db5f;stroke-width:2.025;"/>
    <path clip-path="url(#p51d97e6f0c)" d="M 546.310544 185.062646 
L 549.694492 178.29475 
L 542.926596 178.29475 
z
" style="fill:#57db5f;stroke:#57db5f;stroke-width:2.025;"/>
   </g>
   <g id="line2d_69">
    <path clip-path="url(#p51d97e6f0c)" d="M 360.514803 36.977364 
L 422.446717 60.698203 
L 484.378631 138.919611 
L 546.310544 181.678698 
" style="fill:none;stroke:#57db5f;stroke-linecap:round;stroke-width:2.7;"/>
   </g>
   <g id="line2d_70">
    <path clip-path="url(#p51d97e6f0c)" d="M 0 0 
" style="fill:none;stroke:#57db5f;stroke-linecap:round;stroke-width:2.7;"/>
   </g>
   <g id="line2d_71">
    <path clip-path="url(#p51d97e6f0c)" d="M 0 0 
" style="fill:none;stroke:#57db5f;stroke-linecap:round;stroke-width:2.7;"/>
   </g>
   <g id="line2d_72">
    <path clip-path="url(#p51d97e6f0c)" d="M 0 0 
" style="fill:none;stroke:#57db5f;stroke-linecap:round;stroke-width:2.7;"/>
   </g>
   <g id="line2d_73">
    <path clip-path="url(#p51d97e6f0c)" d="M 0 0 
" style="fill:none;stroke:#57db5f;stroke-linecap:round;stroke-width:2.7;"/>
   </g>
   <g id="text_18">
    <!-- iteration limit = 1000 -->
    <g style="fill:#262626;" transform="translate(374.418924 19.79775)scale(0.176 -0.176)">
     <use xlink:href="#ArialMT-69"/>
     <use x="22.216797" xlink:href="#ArialMT-74"/>
     <use x="50" xlink:href="#ArialMT-65"/>
     <use x="105.615234" xlink:href="#ArialMT-72"/>
     <use x="138.916016" xlink:href="#ArialMT-61"/>
     <use x="194.53125" xlink:href="#ArialMT-74"/>
     <use x="222.314453" xlink:href="#ArialMT-69"/>
     <use x="244.53125" xlink:href="#ArialMT-6f"/>
     <use x="300.146484" xlink:href="#ArialMT-6e"/>
     <use x="355.761719" xlink:href="#ArialMT-20"/>
     <use x="383.544922" xlink:href="#ArialMT-6c"/>
     <use x="405.761719" xlink:href="#ArialMT-69"/>
     <use x="427.978516" xlink:href="#ArialMT-6d"/>
     <use x="511.279297" xlink:href="#ArialMT-69"/>
     <use x="533.496094" xlink:href="#ArialMT-74"/>
     <use x="561.279297" xlink:href="#ArialMT-20"/>
     <use x="589.0625" xlink:href="#ArialMT-3d"/>
     <use x="647.460938" xlink:href="#ArialMT-20"/>
     <use x="675.244141" xlink:href="#ArialMT-31"/>
     <use x="730.859375" xlink:href="#ArialMT-30"/>
     <use x="786.474609" xlink:href="#ArialMT-30"/>
     <use x="842.089844" xlink:href="#ArialMT-30"/>
    </g>
   </g>
   <g id="PathCollection_10">
    <defs>
     <path d="M 0 -3.383948 
L -0.759744 -1.045697 
L -3.218326 -1.045697 
L -1.229291 0.399421 
L -1.989035 2.737672 
L -0 1.292553 
L 1.989035 2.737672 
L 1.229291 0.399421 
L 3.218326 -1.045697 
L 0.759744 -1.045697 
z
" id="C3_0_28ce04e08e"/>
    </defs>
    <g clip-path="url(#p51d97e6f0c)">
     <use style="fill:#57d3db;stroke:#57d3db;stroke-width:2.025;" x="360.514803" xlink:href="#C3_0_28ce04e08e" y="44.016324"/>
    </g>
    <g clip-path="url(#p51d97e6f0c)">
     <use style="fill:#57d3db;stroke:#57d3db;stroke-width:2.025;" x="422.446717" xlink:href="#C3_0_28ce04e08e" y="66.615108"/>
    </g>
    <g clip-path="url(#p51d97e6f0c)">
     <use style="fill:#57d3db;stroke:#57d3db;stroke-width:2.025;" x="484.378631" xlink:href="#C3_0_28ce04e08e" y="113.595041"/>
    </g>
    <g clip-path="url(#p51d97e6f0c)">
     <use style="fill:#57d3db;stroke:#57d3db;stroke-width:2.025;" x="546.310544" xlink:href="#C3_0_28ce04e08e" y="111.323199"/>
    </g>
   </g>
   <g id="line2d_74">
    <path clip-path="url(#p51d97e6f0c)" d="M 360.514803 44.016324 
L 422.446717 66.615108 
L 484.378631 113.595041 
L 546.310544 111.323199 
" style="fill:none;stroke:#57d3db;stroke-linecap:round;stroke-width:2.7;"/>
   </g>
   <g id="line2d_75">
    <path clip-path="url(#p51d97e6f0c)" d="M 0 0 
" style="fill:none;stroke:#57d3db;stroke-linecap:round;stroke-width:2.7;"/>
   </g>
   <g id="line2d_76">
    <path clip-path="url(#p51d97e6f0c)" d="M 0 0 
" style="fill:none;stroke:#57d3db;stroke-linecap:round;stroke-width:2.7;"/>
   </g>
   <g id="line2d_77">
    <path clip-path="url(#p51d97e6f0c)" d="M 0 0 
" style="fill:none;stroke:#57d3db;stroke-linecap:round;stroke-width:2.7;"/>
   </g>
   <g id="line2d_78">
    <path clip-path="url(#p51d97e6f0c)" d="M 0 0 
" style="fill:none;stroke:#57d3db;stroke-linecap:round;stroke-width:2.7;"/>
   </g>
   <g id="PathCollection_11">
    <path clip-path="url(#p51d97e6f0c)" d="M 357.130855 41.403174 
L 363.898751 34.635278 
M 357.130855 34.635278 
L 363.898751 41.403174 
" style="fill:#5f57db;stroke:#5f57db;stroke-width:2.025;"/>
    <path clip-path="url(#p51d97e6f0c)" d="M 419.062769 66.106019 
L 425.830665 59.338123 
M 419.062769 59.338123 
L 425.830665 66.106019 
" style="fill:#5f57db;stroke:#5f57db;stroke-width:2.025;"/>
    <path clip-path="url(#p51d97e6f0c)" d="M 480.994682 54.444216 
L 487.762579 47.67632 
M 480.994682 47.67632 
L 487.762579 54.444216 
" style="fill:#5f57db;stroke:#5f57db;stroke-width:2.025;"/>
    <path clip-path="url(#p51d97e6f0c)" d="M 542.926596 90.602606 
L 549.694492 83.834709 
M 542.926596 83.834709 
L 549.694492 90.602606 
" style="fill:#5f57db;stroke:#5f57db;stroke-width:2.025;"/>
   </g>
   <g id="line2d_79">
    <path clip-path="url(#p51d97e6f0c)" d="M 360.514803 38.019226 
L 422.446717 62.722071 
L 484.378631 51.060268 
L 546.310544 87.218658 
" style="fill:none;stroke:#5f57db;stroke-linecap:round;stroke-width:2.7;"/>
   </g>
   <g id="line2d_80">
    <path clip-path="url(#p51d97e6f0c)" d="M 0 0 
" style="fill:none;stroke:#5f57db;stroke-linecap:round;stroke-width:2.7;"/>
   </g>
   <g id="line2d_81">
    <path clip-path="url(#p51d97e6f0c)" d="M 0 0 
" style="fill:none;stroke:#5f57db;stroke-linecap:round;stroke-width:2.7;"/>
   </g>
   <g id="line2d_82">
    <path clip-path="url(#p51d97e6f0c)" d="M 0 0 
" style="fill:none;stroke:#5f57db;stroke-linecap:round;stroke-width:2.7;"/>
   </g>
   <g id="line2d_83">
    <path clip-path="url(#p51d97e6f0c)" d="M 0 0 
" style="fill:none;stroke:#5f57db;stroke-linecap:round;stroke-width:2.7;"/>
   </g>
   <g id="PathCollection_12">
    <path clip-path="url(#p51d97e6f0c)" d="M 357.130855 36.74626 
L 363.898751 36.74626 
M 360.514803 40.130208 
L 360.514803 33.362312 
" style="fill:#db57d3;stroke:#db57d3;stroke-width:2.025;"/>
    <path clip-path="url(#p51d97e6f0c)" d="M 419.062769 61.421706 
L 425.830665 61.421706 
M 422.446717 64.805655 
L 422.446717 58.037758 
" style="fill:#db57d3;stroke:#db57d3;stroke-width:2.025;"/>
    <path clip-path="url(#p51d97e6f0c)" d="M 480.994682 80.228095 
L 487.762579 80.228095 
M 484.378631 83.612043 
L 484.378631 76.844147 
" style="fill:#db57d3;stroke:#db57d3;stroke-width:2.025;"/>
    <path clip-path="url(#p51d97e6f0c)" d="M 542.926596 95.8629 
L 549.694492 95.8629 
M 546.310544 99.246848 
L 546.310544 92.478952 
" style="fill:#db57d3;stroke:#db57d3;stroke-width:2.025;"/>
   </g>
   <g id="line2d_84">
    <path clip-path="url(#p51d97e6f0c)" d="M 360.514803 36.74626 
L 422.446717 61.421706 
L 484.378631 80.228095 
L 546.310544 95.8629 
" style="fill:none;stroke:#db57d3;stroke-linecap:round;stroke-width:2.7;"/>
   </g>
   <g id="line2d_85">
    <path clip-path="url(#p51d97e6f0c)" d="M 0 0 
" style="fill:none;stroke:#db57d3;stroke-linecap:round;stroke-width:2.7;"/>
   </g>
   <g id="line2d_86">
    <path clip-path="url(#p51d97e6f0c)" d="M 0 0 
" style="fill:none;stroke:#db57d3;stroke-linecap:round;stroke-width:2.7;"/>
   </g>
   <g id="line2d_87">
    <path clip-path="url(#p51d97e6f0c)" d="M 0 0 
" style="fill:none;stroke:#db57d3;stroke-linecap:round;stroke-width:2.7;"/>
   </g>
   <g id="line2d_88">
    <path clip-path="url(#p51d97e6f0c)" d="M 0 0 
" style="fill:none;stroke:#db57d3;stroke-linecap:round;stroke-width:2.7;"/>
   </g>
  </g>
  <g id="axes_3">
   <g id="patch_8">
    <path d="M 597.941192 207.20575 
L 845.668847 207.20575 
L 845.668847 25.79775 
L 597.941192 25.79775 
z
" style="fill:#ffffff;"/>
   </g>
   <g id="matplotlib.axis_5">
    <g id="xtick_9">
     <g id="line2d_89"/>
     <g id="text_19">
      <!-- 1 -->
      <g style="fill:#262626;" transform="translate(624.458399 229.85825)scale(0.16 -0.16)">
       <use xlink:href="#ArialMT-31"/>
      </g>
     </g>
    </g>
    <g id="xtick_10">
     <g id="line2d_90"/>
     <g id="text_20">
      <!-- 2 -->
      <g style="fill:#262626;" transform="translate(686.390313 229.85825)scale(0.16 -0.16)">
       <use xlink:href="#ArialMT-32"/>
      </g>
     </g>
    </g>
    <g id="xtick_11">
     <g id="line2d_91"/>
     <g id="text_21">
      <!-- 4 -->
      <g style="fill:#262626;" transform="translate(748.322227 229.85825)scale(0.16 -0.16)">
       <use xlink:href="#ArialMT-34"/>
      </g>
     </g>
    </g>
    <g id="xtick_12">
     <g id="line2d_92"/>
     <g id="text_22">
      <!-- 8 -->
      <g style="fill:#262626;" transform="translate(810.25414 229.85825)scale(0.16 -0.16)">
       <use xlink:href="#ArialMT-38"/>
      </g>
     </g>
    </g>
    <g id="text_23">
     <!-- processors amount -->
     <g style="fill:#262626;" transform="translate(646.976145 249.636)scale(0.176 -0.176)">
      <use xlink:href="#ArialMT-70"/>
      <use x="55.615234" xlink:href="#ArialMT-72"/>
      <use x="88.916016" xlink:href="#ArialMT-6f"/>
      <use x="144.53125" xlink:href="#ArialMT-63"/>
      <use x="194.53125" xlink:href="#ArialMT-65"/>
      <use x="250.146484" xlink:href="#ArialMT-73"/>
      <use x="300.146484" xlink:href="#ArialMT-73"/>
      <use x="350.146484" xlink:href="#ArialMT-6f"/>
      <use x="405.761719" xlink:href="#ArialMT-72"/>
      <use x="439.0625" xlink:href="#ArialMT-73"/>
      <use x="489.0625" xlink:href="#ArialMT-20"/>
      <use x="516.845703" xlink:href="#ArialMT-61"/>
      <use x="572.460938" xlink:href="#ArialMT-6d"/>
      <use x="655.761719" xlink:href="#ArialMT-6f"/>
      <use x="711.376953" xlink:href="#ArialMT-75"/>
      <use x="766.992188" xlink:href="#ArialMT-6e"/>
      <use x="822.607422" xlink:href="#ArialMT-74"/>
     </g>
    </g>
   </g>
   <g id="matplotlib.axis_6">
    <g id="ytick_11">
     <g id="line2d_93">
      <path clip-path="url(#pe50a51e020)" d="M 597.941192 207.588118 
L 845.668847 207.588118 
" style="fill:none;stroke:#cccccc;stroke-linecap:round;stroke-width:1.6;"/>
     </g>
     <g id="line2d_94"/>
    </g>
    <g id="ytick_12">
     <g id="line2d_95">
      <path clip-path="url(#pe50a51e020)" d="M 597.941192 164.859084 
L 845.668847 164.859084 
" style="fill:none;stroke:#cccccc;stroke-linecap:round;stroke-width:1.6;"/>
     </g>
     <g id="line2d_96"/>
    </g>
    <g id="ytick_13">
     <g id="line2d_97">
      <path clip-path="url(#pe50a51e020)" d="M 597.941192 122.130051 
L 845.668847 122.130051 
" style="fill:none;stroke:#cccccc;stroke-linecap:round;stroke-width:1.6;"/>
     </g>
     <g id="line2d_98"/>
    </g>
    <g id="ytick_14">
     <g id="line2d_99">
      <path clip-path="url(#pe50a51e020)" d="M 597.941192 79.401017 
L 845.668847 79.401017 
" style="fill:none;stroke:#cccccc;stroke-linecap:round;stroke-width:1.6;"/>
     </g>
     <g id="line2d_100"/>
    </g>
    <g id="ytick_15">
     <g id="line2d_101">
      <path clip-path="url(#pe50a51e020)" d="M 597.941192 36.671984 
L 845.668847 36.671984 
" style="fill:none;stroke:#cccccc;stroke-linecap:round;stroke-width:1.6;"/>
     </g>
     <g id="line2d_102"/>
    </g>
   </g>
   <g id="PathCollection_13">
    <path clip-path="url(#pe50a51e020)" d="M 625.523201 40.055932 
L 632.291098 40.055932 
L 632.291098 33.288035 
L 625.523201 33.288035 
z
" style="fill:#db5f57;stroke:#db5f57;stroke-width:2.025;"/>
    <path clip-path="url(#pe50a51e020)" d="M 687.455115 146.878516 
L 694.223011 146.878516 
L 694.223011 140.110619 
L 687.455115 140.110619 
z
" style="fill:#db5f57;stroke:#db5f57;stroke-width:2.025;"/>
    <path clip-path="url(#pe50a51e020)" d="M 749.387029 182.486043 
L 756.154925 182.486043 
L 756.154925 175.718147 
L 749.387029 175.718147 
z
" style="fill:#db5f57;stroke:#db5f57;stroke-width:2.025;"/>
    <path clip-path="url(#pe50a51e020)" d="M 811.318942 200.289807 
L 818.086839 200.289807 
L 818.086839 193.521911 
L 811.318942 193.521911 
z
" style="fill:#db5f57;stroke:#db5f57;stroke-width:2.025;"/>
   </g>
   <g id="line2d_103">
    <path clip-path="url(#pe50a51e020)" d="M 628.907149 36.671984 
L 690.839063 143.494567 
L 752.770977 179.102095 
L 814.70289 196.905859 
" style="fill:none;stroke:#db5f57;stroke-linecap:round;stroke-width:2.7;"/>
   </g>
   <g id="line2d_104">
    <path clip-path="url(#pe50a51e020)" d="M 0 0 
" style="fill:none;stroke:#db5f57;stroke-linecap:round;stroke-width:2.7;"/>
   </g>
   <g id="line2d_105">
    <path clip-path="url(#pe50a51e020)" d="M 0 0 
" style="fill:none;stroke:#db5f57;stroke-linecap:round;stroke-width:2.7;"/>
   </g>
   <g id="line2d_106">
    <path clip-path="url(#pe50a51e020)" d="M 0 0 
" style="fill:none;stroke:#db5f57;stroke-linecap:round;stroke-width:2.7;"/>
   </g>
   <g id="line2d_107">
    <path clip-path="url(#pe50a51e020)" d="M 0 0 
" style="fill:none;stroke:#db5f57;stroke-linecap:round;stroke-width:2.7;"/>
   </g>
   <g id="PathCollection_14">
    <defs>
     <path d="M 0 3.383948 
C 0.897434 3.383948 1.758231 3.027394 2.392813 2.392813 
C 3.027394 1.758231 3.383948 0.897434 3.383948 0 
C 3.383948 -0.897434 3.027394 -1.758231 2.392813 -2.392813 
C 1.758231 -3.027394 0.897434 -3.383948 0 -3.383948 
C -0.897434 -3.383948 -1.758231 -3.027394 -2.392813 -2.392813 
C -3.027394 -1.758231 -3.383948 -0.897434 -3.383948 0 
C -3.383948 0.897434 -3.027394 1.758231 -2.392813 2.392813 
C -1.758231 3.027394 -0.897434 3.383948 0 3.383948 
z
" id="C4_0_1600f8f408"/>
    </defs>
    <g clip-path="url(#pe50a51e020)">
     <use style="fill:#d3db57;stroke:#d3db57;stroke-width:2.025;" x="628.907149" xlink:href="#C4_0_1600f8f408" y="36.900412"/>
    </g>
    <g clip-path="url(#pe50a51e020)">
     <use style="fill:#d3db57;stroke:#d3db57;stroke-width:2.025;" x="690.839063" xlink:href="#C4_0_1600f8f408" y="66.937543"/>
    </g>
    <g clip-path="url(#pe50a51e020)">
     <use style="fill:#d3db57;stroke:#d3db57;stroke-width:2.025;" x="752.770977" xlink:href="#C4_0_1600f8f408" y="124.491718"/>
    </g>
    <g clip-path="url(#pe50a51e020)">
     <use style="fill:#d3db57;stroke:#d3db57;stroke-width:2.025;" x="814.70289" xlink:href="#C4_0_1600f8f408" y="166.437727"/>
    </g>
   </g>
   <g id="line2d_108">
    <path clip-path="url(#pe50a51e020)" d="M 628.907149 36.900412 
L 690.839063 66.937543 
L 752.770977 124.491718 
L 814.70289 166.437727 
" style="fill:none;stroke:#d3db57;stroke-linecap:round;stroke-width:2.7;"/>
   </g>
   <g id="line2d_109">
    <path clip-path="url(#pe50a51e020)" d="M 0 0 
" style="fill:none;stroke:#d3db57;stroke-linecap:round;stroke-width:2.7;"/>
   </g>
   <g id="line2d_110">
    <path clip-path="url(#pe50a51e020)" d="M 0 0 
" style="fill:none;stroke:#d3db57;stroke-linecap:round;stroke-width:2.7;"/>
   </g>
   <g id="line2d_111">
    <path clip-path="url(#pe50a51e020)" d="M 0 0 
" style="fill:none;stroke:#d3db57;stroke-linecap:round;stroke-width:2.7;"/>
   </g>
   <g id="line2d_112">
    <path clip-path="url(#pe50a51e020)" d="M 0 0 
" style="fill:none;stroke:#d3db57;stroke-linecap:round;stroke-width:2.7;"/>
   </g>
   <g id="patch_9">
    <path d="M 597.941192 207.20575 
L 597.941192 25.79775 
" style="fill:none;stroke:#cccccc;stroke-linecap:square;stroke-linejoin:miter;stroke-width:1.5;"/>
   </g>
   <g id="patch_10">
    <path d="M 597.941192 207.20575 
L 845.668847 207.20575 
" style="fill:none;stroke:#cccccc;stroke-linecap:square;stroke-linejoin:miter;stroke-width:1.5;"/>
   </g>
   <g id="PathCollection_15">
    <path clip-path="url(#pe50a51e020)" d="M 628.907149 41.01769 
L 632.291098 34.249794 
L 625.523201 34.249794 
z
" style="fill:#57db5f;stroke:#57db5f;stroke-width:2.025;"/>
    <path clip-path="url(#pe50a51e020)" d="M 690.839063 66.862749 
L 694.223011 60.094852 
L 687.455115 60.094852 
z
" style="fill:#57db5f;stroke:#57db5f;stroke-width:2.025;"/>
    <path clip-path="url(#pe50a51e020)" d="M 752.770977 139.264046 
L 756.154925 132.49615 
L 749.387029 132.49615 
z
" style="fill:#57db5f;stroke:#57db5f;stroke-width:2.025;"/>
    <path clip-path="url(#pe50a51e020)" d="M 814.70289 188.376156 
L 818.086839 181.608259 
L 811.318942 181.608259 
z
" style="fill:#57db5f;stroke:#57db5f;stroke-width:2.025;"/>
   </g>
   <g id="line2d_113">
    <path clip-path="url(#pe50a51e020)" d="M 628.907149 37.633742 
L 690.839063 63.4788 
L 752.770977 135.880098 
L 814.70289 184.992208 
" style="fill:none;stroke:#57db5f;stroke-linecap:round;stroke-width:2.7;"/>
   </g>
   <g id="line2d_114">
    <path clip-path="url(#pe50a51e020)" d="M 0 0 
" style="fill:none;stroke:#57db5f;stroke-linecap:round;stroke-width:2.7;"/>
   </g>
   <g id="line2d_115">
    <path clip-path="url(#pe50a51e020)" d="M 0 0 
" style="fill:none;stroke:#57db5f;stroke-linecap:round;stroke-width:2.7;"/>
   </g>
   <g id="line2d_116">
    <path clip-path="url(#pe50a51e020)" d="M 0 0 
" style="fill:none;stroke:#57db5f;stroke-linecap:round;stroke-width:2.7;"/>
   </g>
   <g id="line2d_117">
    <path clip-path="url(#pe50a51e020)" d="M 0 0 
" style="fill:none;stroke:#57db5f;stroke-linecap:round;stroke-width:2.7;"/>
   </g>
   <g id="text_24">
    <!-- iteration limit = 10000 -->
    <g style="fill:#262626;" transform="translate(637.917645 19.79775)scale(0.176 -0.176)">
     <use xlink:href="#ArialMT-69"/>
     <use x="22.216797" xlink:href="#ArialMT-74"/>
     <use x="50" xlink:href="#ArialMT-65"/>
     <use x="105.615234" xlink:href="#ArialMT-72"/>
     <use x="138.916016" xlink:href="#ArialMT-61"/>
     <use x="194.53125" xlink:href="#ArialMT-74"/>
     <use x="222.314453" xlink:href="#ArialMT-69"/>
     <use x="244.53125" xlink:href="#ArialMT-6f"/>
     <use x="300.146484" xlink:href="#ArialMT-6e"/>
     <use x="355.761719" xlink:href="#ArialMT-20"/>
     <use x="383.544922" xlink:href="#ArialMT-6c"/>
     <use x="405.761719" xlink:href="#ArialMT-69"/>
     <use x="427.978516" xlink:href="#ArialMT-6d"/>
     <use x="511.279297" xlink:href="#ArialMT-69"/>
     <use x="533.496094" xlink:href="#ArialMT-74"/>
     <use x="561.279297" xlink:href="#ArialMT-20"/>
     <use x="589.0625" xlink:href="#ArialMT-3d"/>
     <use x="647.460938" xlink:href="#ArialMT-20"/>
     <use x="675.244141" xlink:href="#ArialMT-31"/>
     <use x="730.859375" xlink:href="#ArialMT-30"/>
     <use x="786.474609" xlink:href="#ArialMT-30"/>
     <use x="842.089844" xlink:href="#ArialMT-30"/>
     <use x="897.705078" xlink:href="#ArialMT-30"/>
    </g>
   </g>
   <g id="PathCollection_16">
    <defs>
     <path d="M 0 -3.383948 
L -0.759744 -1.045697 
L -3.218326 -1.045697 
L -1.229291 0.399421 
L -1.989035 2.737672 
L -0 1.292553 
L 1.989035 2.737672 
L 1.229291 0.399421 
L 3.218326 -1.045697 
L 0.759744 -1.045697 
z
" id="C5_0_e47051b775"/>
    </defs>
    <g clip-path="url(#pe50a51e020)">
     <use style="fill:#57d3db;stroke:#57d3db;stroke-width:2.025;" x="628.907149" xlink:href="#C5_0_e47051b775" y="36.435772"/>
    </g>
    <g clip-path="url(#pe50a51e020)">
     <use style="fill:#57d3db;stroke:#57d3db;stroke-width:2.025;" x="690.839063" xlink:href="#C5_0_e47051b775" y="59.467966"/>
    </g>
    <g clip-path="url(#pe50a51e020)">
     <use style="fill:#57d3db;stroke:#57d3db;stroke-width:2.025;" x="752.770977" xlink:href="#C5_0_e47051b775" y="116.837583"/>
    </g>
    <g clip-path="url(#pe50a51e020)">
     <use style="fill:#57d3db;stroke:#57d3db;stroke-width:2.025;" x="814.70289" xlink:href="#C5_0_e47051b775" y="113.805209"/>
    </g>
   </g>
   <g id="line2d_118">
    <path clip-path="url(#pe50a51e020)" d="M 628.907149 36.435772 
L 690.839063 59.467966 
L 752.770977 116.837583 
L 814.70289 113.805209 
" style="fill:none;stroke:#57d3db;stroke-linecap:round;stroke-width:2.7;"/>
   </g>
   <g id="line2d_119">
    <path clip-path="url(#pe50a51e020)" d="M 0 0 
" style="fill:none;stroke:#57d3db;stroke-linecap:round;stroke-width:2.7;"/>
   </g>
   <g id="line2d_120">
    <path clip-path="url(#pe50a51e020)" d="M 0 0 
" style="fill:none;stroke:#57d3db;stroke-linecap:round;stroke-width:2.7;"/>
   </g>
   <g id="line2d_121">
    <path clip-path="url(#pe50a51e020)" d="M 0 0 
" style="fill:none;stroke:#57d3db;stroke-linecap:round;stroke-width:2.7;"/>
   </g>
   <g id="line2d_122">
    <path clip-path="url(#pe50a51e020)" d="M 0 0 
" style="fill:none;stroke:#57d3db;stroke-linecap:round;stroke-width:2.7;"/>
   </g>
   <g id="PathCollection_17">
    <path clip-path="url(#pe50a51e020)" d="M 625.523201 39.477287 
L 632.291098 32.709391 
M 625.523201 32.709391 
L 632.291098 39.477287 
" style="fill:#5f57db;stroke:#5f57db;stroke-width:2.025;"/>
    <path clip-path="url(#pe50a51e020)" d="M 687.455115 62.808064 
L 694.223011 56.040168 
M 687.455115 56.040168 
L 694.223011 62.808064 
" style="fill:#5f57db;stroke:#5f57db;stroke-width:2.025;"/>
    <path clip-path="url(#pe50a51e020)" d="M 749.387029 56.325466 
L 756.154925 49.55757 
M 749.387029 49.55757 
L 756.154925 56.325466 
" style="fill:#5f57db;stroke:#5f57db;stroke-width:2.025;"/>
    <path clip-path="url(#pe50a51e020)" d="M 811.318942 97.156883 
L 818.086839 90.388987 
M 811.318942 90.388987 
L 818.086839 97.156883 
" style="fill:#5f57db;stroke:#5f57db;stroke-width:2.025;"/>
   </g>
   <g id="line2d_123">
    <path clip-path="url(#pe50a51e020)" d="M 628.907149 36.093339 
L 690.839063 59.424116 
L 752.770977 52.941518 
L 814.70289 93.772935 
" style="fill:none;stroke:#5f57db;stroke-linecap:round;stroke-width:2.7;"/>
   </g>
   <g id="line2d_124">
    <path clip-path="url(#pe50a51e020)" d="M 0 0 
" style="fill:none;stroke:#5f57db;stroke-linecap:round;stroke-width:2.7;"/>
   </g>
   <g id="line2d_125">
    <path clip-path="url(#pe50a51e020)" d="M 0 0 
" style="fill:none;stroke:#5f57db;stroke-linecap:round;stroke-width:2.7;"/>
   </g>
   <g id="line2d_126">
    <path clip-path="url(#pe50a51e020)" d="M 0 0 
" style="fill:none;stroke:#5f57db;stroke-linecap:round;stroke-width:2.7;"/>
   </g>
   <g id="line2d_127">
    <path clip-path="url(#pe50a51e020)" d="M 0 0 
" style="fill:none;stroke:#5f57db;stroke-linecap:round;stroke-width:2.7;"/>
   </g>
   <g id="PathCollection_18">
    <path clip-path="url(#pe50a51e020)" d="M 625.523201 37.691893 
L 632.291098 37.691893 
M 628.907149 41.075841 
L 628.907149 34.307945 
" style="fill:#db57d3;stroke:#db57d3;stroke-width:2.025;"/>
    <path clip-path="url(#pe50a51e020)" d="M 687.455115 57.301507 
L 694.223011 57.301507 
M 690.839063 60.685456 
L 690.839063 53.917559 
" style="fill:#db57d3;stroke:#db57d3;stroke-width:2.025;"/>
    <path clip-path="url(#pe50a51e020)" d="M 749.387029 87.596489 
L 756.154925 87.596489 
M 752.770977 90.980437 
L 752.770977 84.21254 
" style="fill:#db57d3;stroke:#db57d3;stroke-width:2.025;"/>
    <path clip-path="url(#pe50a51e020)" d="M 811.318942 101.002995 
L 818.086839 101.002995 
M 814.70289 104.386943 
L 814.70289 97.619047 
" style="fill:#db57d3;stroke:#db57d3;stroke-width:2.025;"/>
   </g>
   <g id="line2d_128">
    <path clip-path="url(#pe50a51e020)" d="M 628.907149 37.691893 
L 690.839063 57.301507 
L 752.770977 87.596489 
L 814.70289 101.002995 
" style="fill:none;stroke:#db57d3;stroke-linecap:round;stroke-width:2.7;"/>
   </g>
   <g id="line2d_129">
    <path clip-path="url(#pe50a51e020)" d="M 0 0 
" style="fill:none;stroke:#db57d3;stroke-linecap:round;stroke-width:2.7;"/>
   </g>
   <g id="line2d_130">
    <path clip-path="url(#pe50a51e020)" d="M 0 0 
" style="fill:none;stroke:#db57d3;stroke-linecap:round;stroke-width:2.7;"/>
   </g>
   <g id="line2d_131">
    <path clip-path="url(#pe50a51e020)" d="M 0 0 
" style="fill:none;stroke:#db57d3;stroke-linecap:round;stroke-width:2.7;"/>
   </g>
   <g id="line2d_132">
    <path clip-path="url(#pe50a51e020)" d="M 0 0 
" style="fill:none;stroke:#db57d3;stroke-linecap:round;stroke-width:2.7;"/>
   </g>
  </g>
  <g id="axes_4">
   <g id="patch_11">
    <path d="M 866.333539 207.20575 
L 1114.061194 207.20575 
L 1114.061194 25.79775 
L 866.333539 25.79775 
z
" style="fill:#ffffff;"/>
   </g>
   <g id="matplotlib.axis_7">
    <g id="xtick_13">
     <g id="line2d_133"/>
     <g id="text_25">
      <!-- 1 -->
      <g style="fill:#262626;" transform="translate(892.850746 229.85825)scale(0.16 -0.16)">
       <use xlink:href="#ArialMT-31"/>
      </g>
     </g>
    </g>
    <g id="xtick_14">
     <g id="line2d_134"/>
     <g id="text_26">
      <!-- 2 -->
      <g style="fill:#262626;" transform="translate(954.782659 229.85825)scale(0.16 -0.16)">
       <use xlink:href="#ArialMT-32"/>
      </g>
     </g>
    </g>
    <g id="xtick_15">
     <g id="line2d_135"/>
     <g id="text_27">
      <!-- 4 -->
      <g style="fill:#262626;" transform="translate(1016.714573 229.85825)scale(0.16 -0.16)">
       <use xlink:href="#ArialMT-34"/>
      </g>
     </g>
    </g>
    <g id="xtick_16">
     <g id="line2d_136"/>
     <g id="text_28">
      <!-- 8 -->
      <g style="fill:#262626;" transform="translate(1078.646487 229.85825)scale(0.16 -0.16)">
       <use xlink:href="#ArialMT-38"/>
      </g>
     </g>
    </g>
    <g id="text_29">
     <!-- processors amount -->
     <g style="fill:#262626;" transform="translate(915.368491 249.636)scale(0.176 -0.176)">
      <use xlink:href="#ArialMT-70"/>
      <use x="55.615234" xlink:href="#ArialMT-72"/>
      <use x="88.916016" xlink:href="#ArialMT-6f"/>
      <use x="144.53125" xlink:href="#ArialMT-63"/>
      <use x="194.53125" xlink:href="#ArialMT-65"/>
      <use x="250.146484" xlink:href="#ArialMT-73"/>
      <use x="300.146484" xlink:href="#ArialMT-73"/>
      <use x="350.146484" xlink:href="#ArialMT-6f"/>
      <use x="405.761719" xlink:href="#ArialMT-72"/>
      <use x="439.0625" xlink:href="#ArialMT-73"/>
      <use x="489.0625" xlink:href="#ArialMT-20"/>
      <use x="516.845703" xlink:href="#ArialMT-61"/>
      <use x="572.460938" xlink:href="#ArialMT-6d"/>
      <use x="655.761719" xlink:href="#ArialMT-6f"/>
      <use x="711.376953" xlink:href="#ArialMT-75"/>
      <use x="766.992188" xlink:href="#ArialMT-6e"/>
      <use x="822.607422" xlink:href="#ArialMT-74"/>
     </g>
    </g>
   </g>
   <g id="matplotlib.axis_8">
    <g id="ytick_16">
     <g id="line2d_137">
      <path clip-path="url(#p6ff964d74b)" d="M 866.333539 207.588118 
L 1114.061194 207.588118 
" style="fill:none;stroke:#cccccc;stroke-linecap:round;stroke-width:1.6;"/>
     </g>
     <g id="line2d_138"/>
    </g>
    <g id="ytick_17">
     <g id="line2d_139">
      <path clip-path="url(#p6ff964d74b)" d="M 866.333539 164.859084 
L 1114.061194 164.859084 
" style="fill:none;stroke:#cccccc;stroke-linecap:round;stroke-width:1.6;"/>
     </g>
     <g id="line2d_140"/>
    </g>
    <g id="ytick_18">
     <g id="line2d_141">
      <path clip-path="url(#p6ff964d74b)" d="M 866.333539 122.130051 
L 1114.061194 122.130051 
" style="fill:none;stroke:#cccccc;stroke-linecap:round;stroke-width:1.6;"/>
     </g>
     <g id="line2d_142"/>
    </g>
    <g id="ytick_19">
     <g id="line2d_143">
      <path clip-path="url(#p6ff964d74b)" d="M 866.333539 79.401017 
L 1114.061194 79.401017 
" style="fill:none;stroke:#cccccc;stroke-linecap:round;stroke-width:1.6;"/>
     </g>
     <g id="line2d_144"/>
    </g>
    <g id="ytick_20">
     <g id="line2d_145">
      <path clip-path="url(#p6ff964d74b)" d="M 866.333539 36.671984 
L 1114.061194 36.671984 
" style="fill:none;stroke:#cccccc;stroke-linecap:round;stroke-width:1.6;"/>
     </g>
     <g id="line2d_146"/>
    </g>
   </g>
   <g id="PathCollection_19">
    <path clip-path="url(#p6ff964d74b)" d="M 893.915547 40.055932 
L 900.683444 40.055932 
L 900.683444 33.288035 
L 893.915547 33.288035 
z
" style="fill:#db5f57;stroke:#db5f57;stroke-width:2.025;"/>
    <path clip-path="url(#p6ff964d74b)" d="M 955.847461 146.878516 
L 962.615357 146.878516 
L 962.615357 140.110619 
L 955.847461 140.110619 
z
" style="fill:#db5f57;stroke:#db5f57;stroke-width:2.025;"/>
    <path clip-path="url(#p6ff964d74b)" d="M 1017.779375 182.486043 
L 1024.547271 182.486043 
L 1024.547271 175.718147 
L 1017.779375 175.718147 
z
" style="fill:#db5f57;stroke:#db5f57;stroke-width:2.025;"/>
    <path clip-path="url(#p6ff964d74b)" d="M 1079.711289 200.289807 
L 1086.479185 200.289807 
L 1086.479185 193.521911 
L 1079.711289 193.521911 
z
" style="fill:#db5f57;stroke:#db5f57;stroke-width:2.025;"/>
   </g>
   <g id="line2d_147">
    <path clip-path="url(#p6ff964d74b)" d="M 897.299496 36.671984 
L 959.231409 143.494567 
L 1021.163323 179.102095 
L 1083.095237 196.905859 
" style="fill:none;stroke:#db5f57;stroke-linecap:round;stroke-width:2.7;"/>
   </g>
   <g id="line2d_148">
    <path clip-path="url(#p6ff964d74b)" d="M 0 0 
" style="fill:none;stroke:#db5f57;stroke-linecap:round;stroke-width:2.7;"/>
   </g>
   <g id="line2d_149">
    <path clip-path="url(#p6ff964d74b)" d="M 0 0 
" style="fill:none;stroke:#db5f57;stroke-linecap:round;stroke-width:2.7;"/>
   </g>
   <g id="line2d_150">
    <path clip-path="url(#p6ff964d74b)" d="M 0 0 
" style="fill:none;stroke:#db5f57;stroke-linecap:round;stroke-width:2.7;"/>
   </g>
   <g id="line2d_151">
    <path clip-path="url(#p6ff964d74b)" d="M 0 0 
" style="fill:none;stroke:#db5f57;stroke-linecap:round;stroke-width:2.7;"/>
   </g>
   <g id="PathCollection_20">
    <defs>
     <path d="M 0 3.383948 
C 0.897434 3.383948 1.758231 3.027394 2.392813 2.392813 
C 3.027394 1.758231 3.383948 0.897434 3.383948 0 
C 3.383948 -0.897434 3.027394 -1.758231 2.392813 -2.392813 
C 1.758231 -3.027394 0.897434 -3.383948 0 -3.383948 
C -0.897434 -3.383948 -1.758231 -3.027394 -2.392813 -2.392813 
C -3.027394 -1.758231 -3.383948 -0.897434 -3.383948 0 
C -3.383948 0.897434 -3.027394 1.758231 -2.392813 2.392813 
C -1.758231 3.027394 -0.897434 3.383948 0 3.383948 
z
" id="C6_0_f732724997"/>
    </defs>
    <g clip-path="url(#p6ff964d74b)">
     <use style="fill:#d3db57;stroke:#d3db57;stroke-width:2.025;" x="897.299496" xlink:href="#C6_0_f732724997" y="38.830009"/>
    </g>
    <g clip-path="url(#p6ff964d74b)">
     <use style="fill:#d3db57;stroke:#d3db57;stroke-width:2.025;" x="959.231409" xlink:href="#C6_0_f732724997" y="65.576659"/>
    </g>
    <g clip-path="url(#p6ff964d74b)">
     <use style="fill:#d3db57;stroke:#d3db57;stroke-width:2.025;" x="1021.163323" xlink:href="#C6_0_f732724997" y="131.492023"/>
    </g>
    <g clip-path="url(#p6ff964d74b)">
     <use style="fill:#d3db57;stroke:#d3db57;stroke-width:2.025;" x="1083.095237" xlink:href="#C6_0_f732724997" y="182.743996"/>
    </g>
   </g>
   <g id="line2d_152">
    <path clip-path="url(#p6ff964d74b)" d="M 897.299496 38.830009 
L 959.231409 65.576659 
L 1021.163323 131.492023 
L 1083.095237 182.743996 
" style="fill:none;stroke:#d3db57;stroke-linecap:round;stroke-width:2.7;"/>
   </g>
   <g id="line2d_153">
    <path clip-path="url(#p6ff964d74b)" d="M 0 0 
" style="fill:none;stroke:#d3db57;stroke-linecap:round;stroke-width:2.7;"/>
   </g>
   <g id="line2d_154">
    <path clip-path="url(#p6ff964d74b)" d="M 0 0 
" style="fill:none;stroke:#d3db57;stroke-linecap:round;stroke-width:2.7;"/>
   </g>
   <g id="line2d_155">
    <path clip-path="url(#p6ff964d74b)" d="M 0 0 
" style="fill:none;stroke:#d3db57;stroke-linecap:round;stroke-width:2.7;"/>
   </g>
   <g id="line2d_156">
    <path clip-path="url(#p6ff964d74b)" d="M 0 0 
" style="fill:none;stroke:#d3db57;stroke-linecap:round;stroke-width:2.7;"/>
   </g>
   <g id="patch_12">
    <path d="M 866.333539 207.20575 
L 866.333539 25.79775 
" style="fill:none;stroke:#cccccc;stroke-linecap:square;stroke-linejoin:miter;stroke-width:1.5;"/>
   </g>
   <g id="patch_13">
    <path d="M 866.333539 207.20575 
L 1114.061194 207.20575 
" style="fill:none;stroke:#cccccc;stroke-linecap:square;stroke-linejoin:miter;stroke-width:1.5;"/>
   </g>
   <g id="PathCollection_21">
    <path clip-path="url(#p6ff964d74b)" d="M 897.299496 40.631717 
L 900.683444 33.863821 
L 893.915547 33.863821 
z
" style="fill:#57db5f;stroke:#57db5f;stroke-width:2.025;"/>
    <path clip-path="url(#p6ff964d74b)" d="M 959.231409 68.290663 
L 962.615357 61.522767 
L 955.847461 61.522767 
z
" style="fill:#57db5f;stroke:#57db5f;stroke-width:2.025;"/>
    <path clip-path="url(#p6ff964d74b)" d="M 1021.163323 143.717025 
L 1024.547271 136.949129 
L 1017.779375 136.949129 
z
" style="fill:#57db5f;stroke:#57db5f;stroke-width:2.025;"/>
    <path clip-path="url(#p6ff964d74b)" d="M 1083.095237 187.035257 
L 1086.479185 180.26736 
L 1079.711289 180.26736 
z
" style="fill:#57db5f;stroke:#57db5f;stroke-width:2.025;"/>
   </g>
   <g id="line2d_157">
    <path clip-path="url(#p6ff964d74b)" d="M 897.299496 37.247769 
L 959.231409 64.906715 
L 1021.163323 140.333077 
L 1083.095237 183.651308 
" style="fill:none;stroke:#57db5f;stroke-linecap:round;stroke-width:2.7;"/>
   </g>
   <g id="line2d_158">
    <path clip-path="url(#p6ff964d74b)" d="M 0 0 
" style="fill:none;stroke:#57db5f;stroke-linecap:round;stroke-width:2.7;"/>
   </g>
   <g id="line2d_159">
    <path clip-path="url(#p6ff964d74b)" d="M 0 0 
" style="fill:none;stroke:#57db5f;stroke-linecap:round;stroke-width:2.7;"/>
   </g>
   <g id="line2d_160">
    <path clip-path="url(#p6ff964d74b)" d="M 0 0 
" style="fill:none;stroke:#57db5f;stroke-linecap:round;stroke-width:2.7;"/>
   </g>
   <g id="line2d_161">
    <path clip-path="url(#p6ff964d74b)" d="M 0 0 
" style="fill:none;stroke:#57db5f;stroke-linecap:round;stroke-width:2.7;"/>
   </g>
   <g id="text_30">
    <!-- iteration limit = 100000 -->
    <g style="fill:#262626;" transform="translate(901.416366 19.79775)scale(0.176 -0.176)">
     <use xlink:href="#ArialMT-69"/>
     <use x="22.216797" xlink:href="#ArialMT-74"/>
     <use x="50" xlink:href="#ArialMT-65"/>
     <use x="105.615234" xlink:href="#ArialMT-72"/>
     <use x="138.916016" xlink:href="#ArialMT-61"/>
     <use x="194.53125" xlink:href="#ArialMT-74"/>
     <use x="222.314453" xlink:href="#ArialMT-69"/>
     <use x="244.53125" xlink:href="#ArialMT-6f"/>
     <use x="300.146484" xlink:href="#ArialMT-6e"/>
     <use x="355.761719" xlink:href="#ArialMT-20"/>
     <use x="383.544922" xlink:href="#ArialMT-6c"/>
     <use x="405.761719" xlink:href="#ArialMT-69"/>
     <use x="427.978516" xlink:href="#ArialMT-6d"/>
     <use x="511.279297" xlink:href="#ArialMT-69"/>
     <use x="533.496094" xlink:href="#ArialMT-74"/>
     <use x="561.279297" xlink:href="#ArialMT-20"/>
     <use x="589.0625" xlink:href="#ArialMT-3d"/>
     <use x="647.460938" xlink:href="#ArialMT-20"/>
     <use x="675.244141" xlink:href="#ArialMT-31"/>
     <use x="730.859375" xlink:href="#ArialMT-30"/>
     <use x="786.474609" xlink:href="#ArialMT-30"/>
     <use x="842.089844" xlink:href="#ArialMT-30"/>
     <use x="897.705078" xlink:href="#ArialMT-30"/>
     <use x="953.320312" xlink:href="#ArialMT-30"/>
    </g>
   </g>
   <g id="PathCollection_22">
    <defs>
     <path d="M 0 -3.383948 
L -0.759744 -1.045697 
L -3.218326 -1.045697 
L -1.229291 0.399421 
L -1.989035 2.737672 
L -0 1.292553 
L 1.989035 2.737672 
L 1.229291 0.399421 
L 3.218326 -1.045697 
L 0.759744 -1.045697 
z
" id="C7_0_ba7cebd600"/>
    </defs>
    <g clip-path="url(#p6ff964d74b)">
     <use style="fill:#57d3db;stroke:#57d3db;stroke-width:2.025;" x="897.299496" xlink:href="#C7_0_ba7cebd600" y="38.482518"/>
    </g>
    <g clip-path="url(#p6ff964d74b)">
     <use style="fill:#57d3db;stroke:#57d3db;stroke-width:2.025;" x="959.231409" xlink:href="#C7_0_ba7cebd600" y="64.376173"/>
    </g>
    <g clip-path="url(#p6ff964d74b)">
     <use style="fill:#57d3db;stroke:#57d3db;stroke-width:2.025;" x="1021.163323" xlink:href="#C7_0_ba7cebd600" y="120.721144"/>
    </g>
    <g clip-path="url(#p6ff964d74b)">
     <use style="fill:#57d3db;stroke:#57d3db;stroke-width:2.025;" x="1083.095237" xlink:href="#C7_0_ba7cebd600" y="118.615909"/>
    </g>
   </g>
   <g id="line2d_162">
    <path clip-path="url(#p6ff964d74b)" d="M 897.299496 38.482518 
L 959.231409 64.376173 
L 1021.163323 120.721144 
L 1083.095237 118.615909 
" style="fill:none;stroke:#57d3db;stroke-linecap:round;stroke-width:2.7;"/>
   </g>
   <g id="line2d_163">
    <path clip-path="url(#p6ff964d74b)" d="M 0 0 
" style="fill:none;stroke:#57d3db;stroke-linecap:round;stroke-width:2.7;"/>
   </g>
   <g id="line2d_164">
    <path clip-path="url(#p6ff964d74b)" d="M 0 0 
" style="fill:none;stroke:#57d3db;stroke-linecap:round;stroke-width:2.7;"/>
   </g>
   <g id="line2d_165">
    <path clip-path="url(#p6ff964d74b)" d="M 0 0 
" style="fill:none;stroke:#57d3db;stroke-linecap:round;stroke-width:2.7;"/>
   </g>
   <g id="line2d_166">
    <path clip-path="url(#p6ff964d74b)" d="M 0 0 
" style="fill:none;stroke:#57d3db;stroke-linecap:round;stroke-width:2.7;"/>
   </g>
   <g id="PathCollection_23">
    <path clip-path="url(#p6ff964d74b)" d="M 893.915547 41.752005 
L 900.683444 34.984109 
M 893.915547 34.984109 
L 900.683444 41.752005 
" style="fill:#5f57db;stroke:#5f57db;stroke-width:2.025;"/>
    <path clip-path="url(#p6ff964d74b)" d="M 955.847461 67.202485 
L 962.615357 60.434589 
M 955.847461 60.434589 
L 962.615357 67.202485 
" style="fill:#5f57db;stroke:#5f57db;stroke-width:2.025;"/>
    <path clip-path="url(#p6ff964d74b)" d="M 1017.779375 61.80357 
L 1024.547271 55.035673 
M 1017.779375 55.035673 
L 1024.547271 61.80357 
" style="fill:#5f57db;stroke:#5f57db;stroke-width:2.025;"/>
    <path clip-path="url(#p6ff964d74b)" d="M 1079.711289 106.594073 
L 1086.479185 99.826176 
M 1079.711289 99.826176 
L 1086.479185 106.594073 
" style="fill:#5f57db;stroke:#5f57db;stroke-width:2.025;"/>
   </g>
   <g id="line2d_167">
    <path clip-path="url(#p6ff964d74b)" d="M 897.299496 38.368057 
L 959.231409 63.818537 
L 1021.163323 58.419621 
L 1083.095237 103.210124 
" style="fill:none;stroke:#5f57db;stroke-linecap:round;stroke-width:2.7;"/>
   </g>
   <g id="line2d_168">
    <path clip-path="url(#p6ff964d74b)" d="M 0 0 
" style="fill:none;stroke:#5f57db;stroke-linecap:round;stroke-width:2.7;"/>
   </g>
   <g id="line2d_169">
    <path clip-path="url(#p6ff964d74b)" d="M 0 0 
" style="fill:none;stroke:#5f57db;stroke-linecap:round;stroke-width:2.7;"/>
   </g>
   <g id="line2d_170">
    <path clip-path="url(#p6ff964d74b)" d="M 0 0 
" style="fill:none;stroke:#5f57db;stroke-linecap:round;stroke-width:2.7;"/>
   </g>
   <g id="line2d_171">
    <path clip-path="url(#p6ff964d74b)" d="M 0 0 
" style="fill:none;stroke:#5f57db;stroke-linecap:round;stroke-width:2.7;"/>
   </g>
   <g id="PathCollection_24">
    <path clip-path="url(#p6ff964d74b)" d="M 893.915547 38.365739 
L 900.683444 38.365739 
M 897.299496 41.749687 
L 897.299496 34.98179 
" style="fill:#db57d3;stroke:#db57d3;stroke-width:2.025;"/>
    <path clip-path="url(#p6ff964d74b)" d="M 955.847461 64.2687 
L 962.615357 64.2687 
M 959.231409 67.652648 
L 959.231409 60.884752 
" style="fill:#db57d3;stroke:#db57d3;stroke-width:2.025;"/>
    <path clip-path="url(#p6ff964d74b)" d="M 1017.779375 93.32242 
L 1024.547271 93.32242 
M 1021.163323 96.706368 
L 1021.163323 89.938472 
" style="fill:#db57d3;stroke:#db57d3;stroke-width:2.025;"/>
    <path clip-path="url(#p6ff964d74b)" d="M 1079.711289 112.18806 
L 1086.479185 112.18806 
M 1083.095237 115.572008 
L 1083.095237 108.804112 
" style="fill:#db57d3;stroke:#db57d3;stroke-width:2.025;"/>
   </g>
   <g id="line2d_172">
    <path clip-path="url(#p6ff964d74b)" d="M 897.299496 38.365739 
L 959.231409 64.2687 
L 1021.163323 93.32242 
L 1083.095237 112.18806 
" style="fill:none;stroke:#db57d3;stroke-linecap:round;stroke-width:2.7;"/>
   </g>
   <g id="line2d_173">
    <path clip-path="url(#p6ff964d74b)" d="M 0 0 
" style="fill:none;stroke:#db57d3;stroke-linecap:round;stroke-width:2.7;"/>
   </g>
   <g id="line2d_174">
    <path clip-path="url(#p6ff964d74b)" d="M 0 0 
" style="fill:none;stroke:#db57d3;stroke-linecap:round;stroke-width:2.7;"/>
   </g>
   <g id="line2d_175">
    <path clip-path="url(#p6ff964d74b)" d="M 0 0 
" style="fill:none;stroke:#db57d3;stroke-linecap:round;stroke-width:2.7;"/>
   </g>
   <g id="line2d_176">
    <path clip-path="url(#p6ff964d74b)" d="M 0 0 
" style="fill:none;stroke:#db57d3;stroke-linecap:round;stroke-width:2.7;"/>
   </g>
  </g>
  <g id="legend_1">
   <g id="patch_14">
    <path d="M 1121.937494 212.276444 
L 1286.927494 212.276444 
Q 1290.127494 212.276444 1290.127494 209.076444 
L 1290.127494 51.257556 
Q 1290.127494 48.057556 1286.927494 48.057556 
L 1121.937494 48.057556 
Q 1118.737494 48.057556 1118.737494 51.257556 
L 1118.737494 209.076444 
Q 1118.737494 212.276444 1121.937494 212.276444 
z
" style="fill:#ffffff;opacity:0.8;stroke:#cccccc;stroke-linejoin:miter;stroke-width:0.48;"/>
   </g>
   <g id="text_31">
    <!-- implementation -->
    <g style="fill:#262626;" transform="translate(1153.71225 65.165644)scale(0.1496 -0.1496)">
     <use xlink:href="#ArialMT-69"/>
     <use x="22.216797" xlink:href="#ArialMT-6d"/>
     <use x="105.517578" xlink:href="#ArialMT-70"/>
     <use x="161.132812" xlink:href="#ArialMT-6c"/>
     <use x="183.349609" xlink:href="#ArialMT-65"/>
     <use x="238.964844" xlink:href="#ArialMT-6d"/>
     <use x="322.265625" xlink:href="#ArialMT-65"/>
     <use x="377.880859" xlink:href="#ArialMT-6e"/>
     <use x="433.496094" xlink:href="#ArialMT-74"/>
     <use x="461.279297" xlink:href="#ArialMT-61"/>
     <use x="516.894531" xlink:href="#ArialMT-74"/>
     <use x="544.677734" xlink:href="#ArialMT-69"/>
     <use x="566.894531" xlink:href="#ArialMT-6f"/>
     <use x="622.509766" xlink:href="#ArialMT-6e"/>
    </g>
   </g>
   <g id="PathCollection_25">
    <path d="M 1137.753545 86.775392 
L 1144.521442 86.775392 
L 1144.521442 80.007496 
L 1137.753545 80.007496 
z
" style="fill:#db5f57;stroke:#db5f57;stroke-width:2.025;"/>
   </g>
   <g id="text_32">
    <!-- sequential -->
    <defs>
     <path d="M 39.65625 -19.875 
L 39.65625 5.515625 
Q 37.59375 2.640625 33.90625 0.734375 
Q 30.21875 -1.171875 26.078125 -1.171875 
Q 16.84375 -1.171875 10.171875 6.203125 
Q 3.515625 13.578125 3.515625 26.421875 
Q 3.515625 34.234375 6.21875 40.421875 
Q 8.9375 46.625 14.078125 49.828125 
Q 19.234375 53.03125 25.390625 53.03125 
Q 35.015625 53.03125 40.53125 44.921875 
L 40.53125 51.859375 
L 48.4375 51.859375 
L 48.4375 -19.875 
z
M 12.546875 26.078125 
Q 12.546875 16.0625 16.75 11.0625 
Q 20.953125 6.0625 26.8125 6.0625 
Q 32.421875 6.0625 36.46875 10.8125 
Q 40.53125 15.578125 40.53125 25.296875 
Q 40.53125 35.640625 36.25 40.859375 
Q 31.984375 46.09375 26.21875 46.09375 
Q 20.515625 46.09375 16.53125 41.234375 
Q 12.546875 36.375 12.546875 26.078125 
z
" id="ArialMT-71"/>
    </defs>
    <g style="fill:#262626;" transform="translate(1169.937494 87.591444)scale(0.16 -0.16)">
     <use xlink:href="#ArialMT-73"/>
     <use x="50" xlink:href="#ArialMT-65"/>
     <use x="105.615234" xlink:href="#ArialMT-71"/>
     <use x="161.230469" xlink:href="#ArialMT-75"/>
     <use x="216.845703" xlink:href="#ArialMT-65"/>
     <use x="272.460938" xlink:href="#ArialMT-6e"/>
     <use x="328.076172" xlink:href="#ArialMT-74"/>
     <use x="355.859375" xlink:href="#ArialMT-69"/>
     <use x="378.076172" xlink:href="#ArialMT-61"/>
     <use x="433.691406" xlink:href="#ArialMT-6c"/>
    </g>
   </g>
   <g id="PathCollection_26">
    <path d="M 1141.137494 109.602892 
C 1142.034927 109.602892 1142.895725 109.246338 1143.530306 108.611756 
C 1144.164888 107.977175 1144.521442 107.116377 1144.521442 106.218944 
C 1144.521442 105.32151 1144.164888 104.460712 1143.530306 103.826131 
C 1142.895725 103.19155 1142.034927 102.834996 1141.137494 102.834996 
C 1140.24006 102.834996 1139.379262 103.19155 1138.744681 103.826131 
C 1138.1101 104.460712 1137.753545 105.32151 1137.753545 106.218944 
C 1137.753545 107.116377 1138.1101 107.977175 1138.744681 108.611756 
C 1139.379262 109.246338 1140.24006 109.602892 1141.137494 109.602892 
z
" style="fill:#d3db57;stroke:#d3db57;stroke-width:2.025;"/>
   </g>
   <g id="text_33">
    <!-- MPI (send-recv) -->
    <defs>
     <path d="M 7.421875 0 
L 7.421875 71.578125 
L 21.6875 71.578125 
L 38.625 20.90625 
Q 40.96875 13.8125 42.046875 10.296875 
Q 43.265625 14.203125 45.84375 21.78125 
L 62.984375 71.578125 
L 75.734375 71.578125 
L 75.734375 0 
L 66.609375 0 
L 66.609375 59.90625 
L 45.796875 0 
L 37.25 0 
L 16.546875 60.9375 
L 16.546875 0 
z
" id="ArialMT-4d"/>
     <path d="M 7.71875 0 
L 7.71875 71.578125 
L 34.71875 71.578125 
Q 41.84375 71.578125 45.609375 70.90625 
Q 50.875 70.015625 54.4375 67.546875 
Q 58.015625 65.09375 60.1875 60.640625 
Q 62.359375 56.203125 62.359375 50.875 
Q 62.359375 41.75 56.546875 35.421875 
Q 50.734375 29.109375 35.546875 29.109375 
L 17.1875 29.109375 
L 17.1875 0 
z
M 17.1875 37.546875 
L 35.6875 37.546875 
Q 44.875 37.546875 48.734375 40.96875 
Q 52.59375 44.390625 52.59375 50.59375 
Q 52.59375 55.078125 50.3125 58.265625 
Q 48.046875 61.46875 44.34375 62.5 
Q 41.9375 63.140625 35.5 63.140625 
L 17.1875 63.140625 
z
" id="ArialMT-50"/>
     <path d="M 9.328125 0 
L 9.328125 71.578125 
L 18.796875 71.578125 
L 18.796875 0 
z
" id="ArialMT-49"/>
     <path d="M 23.390625 -21.046875 
Q 16.109375 -11.859375 11.078125 0.4375 
Q 6.0625 12.75 6.0625 25.921875 
Q 6.0625 37.546875 9.8125 48.1875 
Q 14.203125 60.546875 23.390625 72.796875 
L 29.6875 72.796875 
Q 23.78125 62.640625 21.875 58.296875 
Q 18.890625 51.5625 17.1875 44.234375 
Q 15.09375 35.109375 15.09375 25.875 
Q 15.09375 2.390625 29.6875 -21.046875 
z
" id="ArialMT-28"/>
     <path d="M 40.234375 0 
L 40.234375 6.546875 
Q 35.296875 -1.171875 25.734375 -1.171875 
Q 19.53125 -1.171875 14.328125 2.25 
Q 9.125 5.671875 6.265625 11.796875 
Q 3.421875 17.921875 3.421875 25.875 
Q 3.421875 33.640625 6 39.96875 
Q 8.59375 46.296875 13.765625 49.65625 
Q 18.953125 53.03125 25.34375 53.03125 
Q 30.03125 53.03125 33.6875 51.046875 
Q 37.359375 49.078125 39.65625 45.90625 
L 39.65625 71.578125 
L 48.390625 71.578125 
L 48.390625 0 
z
M 12.453125 25.875 
Q 12.453125 15.921875 16.640625 10.984375 
Q 20.84375 6.0625 26.5625 6.0625 
Q 32.328125 6.0625 36.34375 10.765625 
Q 40.375 15.484375 40.375 25.140625 
Q 40.375 35.796875 36.265625 40.765625 
Q 32.171875 45.75 26.171875 45.75 
Q 20.3125 45.75 16.375 40.96875 
Q 12.453125 36.1875 12.453125 25.875 
z
" id="ArialMT-64"/>
     <path d="M 3.171875 21.484375 
L 3.171875 30.328125 
L 30.171875 30.328125 
L 30.171875 21.484375 
z
" id="ArialMT-2d"/>
     <path d="M 21 0 
L 1.265625 51.859375 
L 10.546875 51.859375 
L 21.6875 20.796875 
Q 23.484375 15.765625 25 10.359375 
Q 26.171875 14.453125 28.265625 20.21875 
L 39.796875 51.859375 
L 48.828125 51.859375 
L 29.203125 0 
z
" id="ArialMT-76"/>
     <path d="M 12.359375 -21.046875 
L 6.0625 -21.046875 
Q 20.65625 2.390625 20.65625 25.875 
Q 20.65625 35.0625 18.5625 44.09375 
Q 16.890625 51.421875 13.921875 58.15625 
Q 12.015625 62.546875 6.0625 72.796875 
L 12.359375 72.796875 
Q 21.53125 60.546875 25.921875 48.1875 
Q 29.6875 37.546875 29.6875 25.921875 
Q 29.6875 12.75 24.625 0.4375 
Q 19.578125 -11.859375 12.359375 -21.046875 
z
" id="ArialMT-29"/>
    </defs>
    <g style="fill:#262626;" transform="translate(1169.937494 110.418944)scale(0.16 -0.16)">
     <use xlink:href="#ArialMT-4d"/>
     <use x="83.300781" xlink:href="#ArialMT-50"/>
     <use x="150" xlink:href="#ArialMT-49"/>
     <use x="177.783203" xlink:href="#ArialMT-20"/>
     <use x="205.566406" xlink:href="#ArialMT-28"/>
     <use x="238.867188" xlink:href="#ArialMT-73"/>
     <use x="288.867188" xlink:href="#ArialMT-65"/>
     <use x="344.482422" xlink:href="#ArialMT-6e"/>
     <use x="400.097656" xlink:href="#ArialMT-64"/>
     <use x="455.712891" xlink:href="#ArialMT-2d"/>
     <use x="489.013672" xlink:href="#ArialMT-72"/>
     <use x="522.314453" xlink:href="#ArialMT-65"/>
     <use x="577.929688" xlink:href="#ArialMT-63"/>
     <use x="627.929688" xlink:href="#ArialMT-76"/>
     <use x="677.929688" xlink:href="#ArialMT-29"/>
    </g>
   </g>
   <g id="PathCollection_27">
    <path d="M 1141.137494 132.617892 
L 1144.521442 125.849996 
L 1137.753545 125.849996 
z
" style="fill:#57db5f;stroke:#57db5f;stroke-width:2.025;"/>
   </g>
   <g id="text_34">
    <!-- MPI (gather) -->
    <defs>
     <path d="M 4.984375 -4.296875 
L 13.53125 -5.5625 
Q 14.0625 -9.515625 16.5 -11.328125 
Q 19.78125 -13.765625 25.4375 -13.765625 
Q 31.546875 -13.765625 34.859375 -11.328125 
Q 38.1875 -8.890625 39.359375 -4.5 
Q 40.046875 -1.8125 39.984375 6.78125 
Q 34.234375 0 25.640625 0 
Q 14.9375 0 9.078125 7.71875 
Q 3.21875 15.4375 3.21875 26.21875 
Q 3.21875 33.640625 5.90625 39.90625 
Q 8.59375 46.1875 13.6875 49.609375 
Q 18.796875 53.03125 25.6875 53.03125 
Q 34.859375 53.03125 40.828125 45.609375 
L 40.828125 51.859375 
L 48.921875 51.859375 
L 48.921875 7.03125 
Q 48.921875 -5.078125 46.453125 -10.125 
Q 44 -15.1875 38.640625 -18.109375 
Q 33.296875 -21.046875 25.484375 -21.046875 
Q 16.21875 -21.046875 10.5 -16.875 
Q 4.78125 -12.703125 4.984375 -4.296875 
z
M 12.25 26.859375 
Q 12.25 16.65625 16.296875 11.96875 
Q 20.359375 7.28125 26.46875 7.28125 
Q 32.515625 7.28125 36.609375 11.9375 
Q 40.71875 16.609375 40.71875 26.5625 
Q 40.71875 36.078125 36.5 40.90625 
Q 32.28125 45.75 26.3125 45.75 
Q 20.453125 45.75 16.34375 40.984375 
Q 12.25 36.234375 12.25 26.859375 
z
" id="ArialMT-67"/>
     <path d="M 6.59375 0 
L 6.59375 71.578125 
L 15.375 71.578125 
L 15.375 45.90625 
Q 21.53125 53.03125 30.90625 53.03125 
Q 36.671875 53.03125 40.921875 50.75 
Q 45.171875 48.484375 47 44.484375 
Q 48.828125 40.484375 48.828125 32.859375 
L 48.828125 0 
L 40.046875 0 
L 40.046875 32.859375 
Q 40.046875 39.453125 37.1875 42.453125 
Q 34.328125 45.453125 29.109375 45.453125 
Q 25.203125 45.453125 21.75 43.421875 
Q 18.3125 41.40625 16.84375 37.9375 
Q 15.375 34.46875 15.375 28.375 
L 15.375 0 
z
" id="ArialMT-68"/>
    </defs>
    <g style="fill:#262626;" transform="translate(1169.937494 133.433944)scale(0.16 -0.16)">
     <use xlink:href="#ArialMT-4d"/>
     <use x="83.300781" xlink:href="#ArialMT-50"/>
     <use x="150" xlink:href="#ArialMT-49"/>
     <use x="177.783203" xlink:href="#ArialMT-20"/>
     <use x="205.566406" xlink:href="#ArialMT-28"/>
     <use x="238.867188" xlink:href="#ArialMT-67"/>
     <use x="294.482422" xlink:href="#ArialMT-61"/>
     <use x="350.097656" xlink:href="#ArialMT-74"/>
     <use x="377.880859" xlink:href="#ArialMT-68"/>
     <use x="433.496094" xlink:href="#ArialMT-65"/>
     <use x="489.111328" xlink:href="#ArialMT-72"/>
     <use x="522.412109" xlink:href="#ArialMT-29"/>
    </g>
   </g>
   <g id="PathCollection_28">
    <path d="M 1141.137494 148.874996 
L 1140.37775 151.213246 
L 1137.919168 151.213246 
L 1139.908203 152.658365 
L 1139.148459 154.996615 
L 1141.137494 153.551497 
L 1143.126528 154.996615 
L 1142.366785 152.658365 
L 1144.35582 151.213246 
L 1141.897237 151.213246 
z
" style="fill:#57d3db;stroke:#57d3db;stroke-width:2.025;"/>
   </g>
   <g id="text_35">
    <!-- OMP (static) -->
    <defs>
     <path d="M 4.828125 34.859375 
Q 4.828125 52.6875 14.390625 62.765625 
Q 23.96875 72.859375 39.109375 72.859375 
Q 49.03125 72.859375 56.984375 68.109375 
Q 64.9375 63.375 69.109375 54.90625 
Q 73.296875 46.4375 73.296875 35.6875 
Q 73.296875 24.8125 68.890625 16.21875 
Q 64.5 7.625 56.4375 3.203125 
Q 48.390625 -1.21875 39.0625 -1.21875 
Q 28.953125 -1.21875 20.984375 3.65625 
Q 13.03125 8.546875 8.921875 16.984375 
Q 4.828125 25.4375 4.828125 34.859375 
z
M 14.59375 34.71875 
Q 14.59375 21.78125 21.546875 14.328125 
Q 28.515625 6.890625 39.015625 6.890625 
Q 49.703125 6.890625 56.609375 14.40625 
Q 63.53125 21.921875 63.53125 35.75 
Q 63.53125 44.484375 60.578125 51 
Q 57.625 57.515625 51.921875 61.109375 
Q 46.234375 64.703125 39.15625 64.703125 
Q 29.109375 64.703125 21.84375 57.78125 
Q 14.59375 50.875 14.59375 34.71875 
z
" id="ArialMT-4f"/>
    </defs>
    <g style="fill:#262626;" transform="translate(1169.937494 156.458944)scale(0.16 -0.16)">
     <use xlink:href="#ArialMT-4f"/>
     <use x="77.783203" xlink:href="#ArialMT-4d"/>
     <use x="161.083984" xlink:href="#ArialMT-50"/>
     <use x="227.767578" xlink:href="#ArialMT-20"/>
     <use x="255.550781" xlink:href="#ArialMT-28"/>
     <use x="288.851562" xlink:href="#ArialMT-73"/>
     <use x="338.851562" xlink:href="#ArialMT-74"/>
     <use x="366.634766" xlink:href="#ArialMT-61"/>
     <use x="422.25" xlink:href="#ArialMT-74"/>
     <use x="450.033203" xlink:href="#ArialMT-69"/>
     <use x="472.25" xlink:href="#ArialMT-63"/>
     <use x="522.25" xlink:href="#ArialMT-29"/>
    </g>
   </g>
   <g id="PathCollection_29">
    <path d="M 1137.753545 178.667892 
L 1144.521442 171.899996 
M 1137.753545 171.899996 
L 1144.521442 178.667892 
" style="fill:#5f57db;stroke:#5f57db;stroke-width:2.025;"/>
   </g>
   <g id="text_36">
    <!-- OMP (dynamic) -->
    <g style="fill:#262626;" transform="translate(1169.937494 179.483944)scale(0.16 -0.16)">
     <use xlink:href="#ArialMT-4f"/>
     <use x="77.783203" xlink:href="#ArialMT-4d"/>
     <use x="161.083984" xlink:href="#ArialMT-50"/>
     <use x="227.767578" xlink:href="#ArialMT-20"/>
     <use x="255.550781" xlink:href="#ArialMT-28"/>
     <use x="288.851562" xlink:href="#ArialMT-64"/>
     <use x="344.466797" xlink:href="#ArialMT-79"/>
     <use x="394.466797" xlink:href="#ArialMT-6e"/>
     <use x="450.082031" xlink:href="#ArialMT-61"/>
     <use x="505.697266" xlink:href="#ArialMT-6d"/>
     <use x="588.998047" xlink:href="#ArialMT-69"/>
     <use x="611.214844" xlink:href="#ArialMT-63"/>
     <use x="661.214844" xlink:href="#ArialMT-29"/>
    </g>
   </g>
   <g id="PathCollection_30">
    <path d="M 1137.753545 198.308944 
L 1144.521442 198.308944 
M 1141.137494 201.692892 
L 1141.137494 194.924996 
" style="fill:#db57d3;stroke:#db57d3;stroke-width:2.025;"/>
   </g>
   <g id="text_37">
    <!-- OMP (guided) -->
    <g style="fill:#262626;" transform="translate(1169.937494 202.508944)scale(0.16 -0.16)">
     <use xlink:href="#ArialMT-4f"/>
     <use x="77.783203" xlink:href="#ArialMT-4d"/>
     <use x="161.083984" xlink:href="#ArialMT-50"/>
     <use x="227.767578" xlink:href="#ArialMT-20"/>
     <use x="255.550781" xlink:href="#ArialMT-28"/>
     <use x="288.851562" xlink:href="#ArialMT-67"/>
     <use x="344.466797" xlink:href="#ArialMT-75"/>
     <use x="400.082031" xlink:href="#ArialMT-69"/>
     <use x="422.298828" xlink:href="#ArialMT-64"/>
     <use x="477.914062" xlink:href="#ArialMT-65"/>
     <use x="533.529297" xlink:href="#ArialMT-64"/>
     <use x="589.144531" xlink:href="#ArialMT-29"/>
    </g>
   </g>
  </g>
 </g>
 <defs>
  <clipPath id="pcfc0e1052d">
   <rect height="181.408" width="247.727655" x="61.1565" y="25.79775"/>
  </clipPath>
  <clipPath id="p51d97e6f0c">
   <rect height="181.408" width="247.727655" x="329.548846" y="25.79775"/>
  </clipPath>
  <clipPath id="pe50a51e020">
   <rect height="181.408" width="247.727655" x="597.941192" y="25.79775"/>
  </clipPath>
  <clipPath id="p6ff964d74b">
   <rect height="181.408" width="247.727655" x="866.333539" y="25.79775"/>
  </clipPath>
 </defs>
</svg>
