<?xml version="1.0" encoding="utf-8" standalone="no"?>
<!DOCTYPE svg PUBLIC "-//W3C//DTD SVG 1.1//EN"
  "http://www.w3.org/Graphics/SVG/1.1/DTD/svg11.dtd">
<!-- Created with matplotlib (http://matplotlib.org/) -->
<svg height="260pt" version="1.1" viewBox="0 0 1297 260" width="1297pt" xmlns="http://www.w3.org/2000/svg" xmlns:xlink="http://www.w3.org/1999/xlink">
 <defs>
  <style type="text/css">
*{stroke-linecap:butt;stroke-linejoin:round;}
  </style>
 </defs>
 <g id="figure_1">
  <g id="patch_1">
   <path d="M 0 260.38625 
L 1297.409564 260.38625 
L 1297.409564 0 
L 0 0 
z
" style="fill:#ffffff;"/>
  </g>
  <g id="axes_1">
   <g id="patch_2">
    <path d="M 65.609 207.258 
L 312.054187 207.258 
L 312.054187 25.85 
L 65.609 25.85 
z
" style="fill:#ffffff;"/>
   </g>
   <g id="matplotlib.axis_1">
    <g id="xtick_1">
     <g id="line2d_1"/>
     <g id="text_1">
      <!-- 100 -->
      <defs>
       <path d="M 37.25 0 
L 28.46875 0 
L 28.46875 56 
Q 25.296875 52.984375 20.140625 49.953125 
Q 14.984375 46.921875 10.890625 45.40625 
L 10.890625 53.90625 
Q 18.265625 57.375 23.78125 62.296875 
Q 29.296875 67.234375 31.59375 71.875 
L 37.25 71.875 
z
" id="ArialMT-31"/>
       <path d="M 4.15625 35.296875 
Q 4.15625 48 6.765625 55.734375 
Q 9.375 63.484375 14.515625 67.671875 
Q 19.671875 71.875 27.484375 71.875 
Q 33.25 71.875 37.59375 69.546875 
Q 41.9375 67.234375 44.765625 62.859375 
Q 47.609375 58.5 49.21875 52.21875 
Q 50.828125 45.953125 50.828125 35.296875 
Q 50.828125 22.703125 48.234375 14.96875 
Q 45.65625 7.234375 40.5 3 
Q 35.359375 -1.21875 27.484375 -1.21875 
Q 17.140625 -1.21875 11.234375 6.203125 
Q 4.15625 15.140625 4.15625 35.296875 
z
M 13.1875 35.296875 
Q 13.1875 17.671875 17.3125 11.828125 
Q 21.4375 6 27.484375 6 
Q 33.546875 6 37.671875 11.859375 
Q 41.796875 17.71875 41.796875 35.296875 
Q 41.796875 52.984375 37.671875 58.78125 
Q 33.546875 64.59375 27.390625 64.59375 
Q 21.34375 64.59375 17.71875 59.46875 
Q 13.1875 52.9375 13.1875 35.296875 
z
" id="ArialMT-30"/>
      </defs>
      <g style="fill:#262626;" transform="translate(83.068398 229.9105)scale(0.16 -0.16)">
       <use xlink:href="#ArialMT-31"/>
       <use x="55.615234" xlink:href="#ArialMT-30"/>
       <use x="111.230469" xlink:href="#ArialMT-30"/>
      </g>
     </g>
    </g>
    <g id="xtick_2">
     <g id="line2d_2"/>
     <g id="text_2">
      <!-- 1000 -->
      <g style="fill:#262626;" transform="translate(140.230945 229.9105)scale(0.16 -0.16)">
       <use xlink:href="#ArialMT-31"/>
       <use x="55.615234" xlink:href="#ArialMT-30"/>
       <use x="111.230469" xlink:href="#ArialMT-30"/>
       <use x="166.845703" xlink:href="#ArialMT-30"/>
      </g>
     </g>
    </g>
    <g id="xtick_3">
     <g id="line2d_3"/>
     <g id="text_3">
      <!-- 10000 -->
      <g style="fill:#262626;" transform="translate(197.393492 229.9105)scale(0.16 -0.16)">
       <use xlink:href="#ArialMT-31"/>
       <use x="55.615234" xlink:href="#ArialMT-30"/>
       <use x="111.230469" xlink:href="#ArialMT-30"/>
       <use x="166.845703" xlink:href="#ArialMT-30"/>
       <use x="222.460938" xlink:href="#ArialMT-30"/>
      </g>
     </g>
    </g>
    <g id="xtick_4">
     <g id="line2d_4"/>
     <g id="text_4">
      <!-- 100000 -->
      <g style="fill:#262626;" transform="translate(254.556039 229.9105)scale(0.16 -0.16)">
       <use xlink:href="#ArialMT-31"/>
       <use x="55.615234" xlink:href="#ArialMT-30"/>
       <use x="111.230469" xlink:href="#ArialMT-30"/>
       <use x="166.845703" xlink:href="#ArialMT-30"/>
       <use x="222.460938" xlink:href="#ArialMT-30"/>
       <use x="278.076172" xlink:href="#ArialMT-30"/>
      </g>
     </g>
    </g>
    <g id="text_5">
     <!-- iteration limit -->
     <defs>
      <path d="M 6.640625 61.46875 
L 6.640625 71.578125 
L 15.4375 71.578125 
L 15.4375 61.46875 
z
M 6.640625 0 
L 6.640625 51.859375 
L 15.4375 51.859375 
L 15.4375 0 
z
" id="ArialMT-69"/>
      <path d="M 25.78125 7.859375 
L 27.046875 0.09375 
Q 23.34375 -0.6875 20.40625 -0.6875 
Q 15.625 -0.6875 12.984375 0.828125 
Q 10.359375 2.34375 9.28125 4.8125 
Q 8.203125 7.28125 8.203125 15.1875 
L 8.203125 45.015625 
L 1.765625 45.015625 
L 1.765625 51.859375 
L 8.203125 51.859375 
L 8.203125 64.703125 
L 16.9375 69.96875 
L 16.9375 51.859375 
L 25.78125 51.859375 
L 25.78125 45.015625 
L 16.9375 45.015625 
L 16.9375 14.703125 
Q 16.9375 10.9375 17.40625 9.859375 
Q 17.875 8.796875 18.921875 8.15625 
Q 19.96875 7.515625 21.921875 7.515625 
Q 23.390625 7.515625 25.78125 7.859375 
z
" id="ArialMT-74"/>
      <path d="M 42.09375 16.703125 
L 51.171875 15.578125 
Q 49.03125 7.625 43.21875 3.21875 
Q 37.40625 -1.171875 28.375 -1.171875 
Q 17 -1.171875 10.328125 5.828125 
Q 3.65625 12.84375 3.65625 25.484375 
Q 3.65625 38.578125 10.390625 45.796875 
Q 17.140625 53.03125 27.875 53.03125 
Q 38.28125 53.03125 44.875 45.953125 
Q 51.46875 38.875 51.46875 26.03125 
Q 51.46875 25.25 51.421875 23.6875 
L 12.75 23.6875 
Q 13.234375 15.140625 17.578125 10.59375 
Q 21.921875 6.0625 28.421875 6.0625 
Q 33.25 6.0625 36.671875 8.59375 
Q 40.09375 11.140625 42.09375 16.703125 
z
M 13.234375 30.90625 
L 42.1875 30.90625 
Q 41.609375 37.453125 38.875 40.71875 
Q 34.671875 45.796875 27.984375 45.796875 
Q 21.921875 45.796875 17.796875 41.75 
Q 13.671875 37.703125 13.234375 30.90625 
z
" id="ArialMT-65"/>
      <path d="M 6.5 0 
L 6.5 51.859375 
L 14.40625 51.859375 
L 14.40625 44 
Q 17.4375 49.515625 20 51.265625 
Q 22.5625 53.03125 25.640625 53.03125 
Q 30.078125 53.03125 34.671875 50.203125 
L 31.640625 42.046875 
Q 28.421875 43.953125 25.203125 43.953125 
Q 22.3125 43.953125 20.015625 42.21875 
Q 17.71875 40.484375 16.75 37.40625 
Q 15.28125 32.71875 15.28125 27.15625 
L 15.28125 0 
z
" id="ArialMT-72"/>
      <path d="M 40.4375 6.390625 
Q 35.546875 2.25 31.03125 0.53125 
Q 26.515625 -1.171875 21.34375 -1.171875 
Q 12.796875 -1.171875 8.203125 3 
Q 3.609375 7.171875 3.609375 13.671875 
Q 3.609375 17.484375 5.34375 20.625 
Q 7.078125 23.78125 9.890625 25.6875 
Q 12.703125 27.59375 16.21875 28.5625 
Q 18.796875 29.25 24.03125 29.890625 
Q 34.671875 31.15625 39.703125 32.90625 
Q 39.75 34.71875 39.75 35.203125 
Q 39.75 40.578125 37.25 42.78125 
Q 33.890625 45.75 27.25 45.75 
Q 21.046875 45.75 18.09375 43.578125 
Q 15.140625 41.40625 13.71875 35.890625 
L 5.125 37.0625 
Q 6.296875 42.578125 8.984375 45.96875 
Q 11.671875 49.359375 16.75 51.1875 
Q 21.828125 53.03125 28.515625 53.03125 
Q 35.15625 53.03125 39.296875 51.46875 
Q 43.453125 49.90625 45.40625 47.53125 
Q 47.359375 45.171875 48.140625 41.546875 
Q 48.578125 39.3125 48.578125 33.453125 
L 48.578125 21.734375 
Q 48.578125 9.46875 49.140625 6.21875 
Q 49.703125 2.984375 51.375 0 
L 42.1875 0 
Q 40.828125 2.734375 40.4375 6.390625 
z
M 39.703125 26.03125 
Q 34.90625 24.078125 25.34375 22.703125 
Q 19.921875 21.921875 17.671875 20.9375 
Q 15.4375 19.96875 14.203125 18.09375 
Q 12.984375 16.21875 12.984375 13.921875 
Q 12.984375 10.40625 15.640625 8.0625 
Q 18.3125 5.71875 23.4375 5.71875 
Q 28.515625 5.71875 32.46875 7.9375 
Q 36.421875 10.15625 38.28125 14.015625 
Q 39.703125 17 39.703125 22.796875 
z
" id="ArialMT-61"/>
      <path d="M 3.328125 25.921875 
Q 3.328125 40.328125 11.328125 47.265625 
Q 18.015625 53.03125 27.640625 53.03125 
Q 38.328125 53.03125 45.109375 46.015625 
Q 51.90625 39.015625 51.90625 26.65625 
Q 51.90625 16.65625 48.90625 10.90625 
Q 45.90625 5.171875 40.15625 2 
Q 34.421875 -1.171875 27.640625 -1.171875 
Q 16.75 -1.171875 10.03125 5.8125 
Q 3.328125 12.796875 3.328125 25.921875 
z
M 12.359375 25.921875 
Q 12.359375 15.96875 16.703125 11.015625 
Q 21.046875 6.0625 27.640625 6.0625 
Q 34.1875 6.0625 38.53125 11.03125 
Q 42.875 16.015625 42.875 26.21875 
Q 42.875 35.84375 38.5 40.796875 
Q 34.125 45.75 27.640625 45.75 
Q 21.046875 45.75 16.703125 40.8125 
Q 12.359375 35.890625 12.359375 25.921875 
z
" id="ArialMT-6f"/>
      <path d="M 6.59375 0 
L 6.59375 51.859375 
L 14.5 51.859375 
L 14.5 44.484375 
Q 20.21875 53.03125 31 53.03125 
Q 35.6875 53.03125 39.625 51.34375 
Q 43.5625 49.65625 45.515625 46.921875 
Q 47.46875 44.1875 48.25 40.4375 
Q 48.734375 37.984375 48.734375 31.890625 
L 48.734375 0 
L 39.9375 0 
L 39.9375 31.546875 
Q 39.9375 36.921875 38.90625 39.578125 
Q 37.890625 42.234375 35.28125 43.8125 
Q 32.671875 45.40625 29.15625 45.40625 
Q 23.53125 45.40625 19.453125 41.84375 
Q 15.375 38.28125 15.375 28.328125 
L 15.375 0 
z
" id="ArialMT-6e"/>
      <path id="ArialMT-20"/>
      <path d="M 6.390625 0 
L 6.390625 71.578125 
L 15.1875 71.578125 
L 15.1875 0 
z
" id="ArialMT-6c"/>
      <path d="M 6.59375 0 
L 6.59375 51.859375 
L 14.453125 51.859375 
L 14.453125 44.578125 
Q 16.890625 48.390625 20.9375 50.703125 
Q 25 53.03125 30.171875 53.03125 
Q 35.9375 53.03125 39.625 50.640625 
Q 43.3125 48.25 44.828125 43.953125 
Q 50.984375 53.03125 60.84375 53.03125 
Q 68.5625 53.03125 72.703125 48.75 
Q 76.859375 44.484375 76.859375 35.59375 
L 76.859375 0 
L 68.109375 0 
L 68.109375 32.671875 
Q 68.109375 37.9375 67.25 40.25 
Q 66.40625 42.578125 64.15625 43.984375 
Q 61.921875 45.40625 58.890625 45.40625 
Q 53.421875 45.40625 49.796875 41.765625 
Q 46.1875 38.140625 46.1875 30.125 
L 46.1875 0 
L 37.40625 0 
L 37.40625 33.6875 
Q 37.40625 39.546875 35.25 42.46875 
Q 33.109375 45.40625 28.21875 45.40625 
Q 24.515625 45.40625 21.359375 43.453125 
Q 18.21875 41.5 16.796875 37.734375 
Q 15.375 33.984375 15.375 26.90625 
L 15.375 0 
z
" id="ArialMT-6d"/>
     </defs>
     <g style="fill:#262626;" transform="translate(139.441593 249.68825)scale(0.176 -0.176)">
      <use xlink:href="#ArialMT-69"/>
      <use x="22.216797" xlink:href="#ArialMT-74"/>
      <use x="50" xlink:href="#ArialMT-65"/>
      <use x="105.615234" xlink:href="#ArialMT-72"/>
      <use x="138.916016" xlink:href="#ArialMT-61"/>
      <use x="194.53125" xlink:href="#ArialMT-74"/>
      <use x="222.314453" xlink:href="#ArialMT-69"/>
      <use x="244.53125" xlink:href="#ArialMT-6f"/>
      <use x="300.146484" xlink:href="#ArialMT-6e"/>
      <use x="355.761719" xlink:href="#ArialMT-20"/>
      <use x="383.544922" xlink:href="#ArialMT-6c"/>
      <use x="405.761719" xlink:href="#ArialMT-69"/>
      <use x="427.978516" xlink:href="#ArialMT-6d"/>
      <use x="511.279297" xlink:href="#ArialMT-69"/>
      <use x="533.496094" xlink:href="#ArialMT-74"/>
     </g>
    </g>
   </g>
   <g id="matplotlib.axis_2">
    <g id="ytick_1">
     <g id="line2d_5">
      <path clip-path="url(#p71d220ba29)" d="M 65.609 197.02522 
L 312.054187 197.02522 
" style="fill:none;stroke:#cccccc;stroke-linecap:round;stroke-width:1.6;"/>
     </g>
     <g id="line2d_6"/>
     <g id="text_6">
      <!-- 0 -->
      <g style="fill:#262626;" transform="translate(45.5115 202.75147)scale(0.16 -0.16)">
       <use xlink:href="#ArialMT-30"/>
      </g>
     </g>
    </g>
    <g id="ytick_2">
     <g id="line2d_7">
      <path clip-path="url(#p71d220ba29)" d="M 65.609 144.343344 
L 312.054187 144.343344 
" style="fill:none;stroke:#cccccc;stroke-linecap:round;stroke-width:1.6;"/>
     </g>
     <g id="line2d_8"/>
     <g id="text_7">
      <!-- 100 -->
      <g style="fill:#262626;" transform="translate(27.7165 150.069594)scale(0.16 -0.16)">
       <use xlink:href="#ArialMT-31"/>
       <use x="55.615234" xlink:href="#ArialMT-30"/>
       <use x="111.230469" xlink:href="#ArialMT-30"/>
      </g>
     </g>
    </g>
    <g id="ytick_3">
     <g id="line2d_9">
      <path clip-path="url(#p71d220ba29)" d="M 65.609 91.661467 
L 312.054187 91.661467 
" style="fill:none;stroke:#cccccc;stroke-linecap:round;stroke-width:1.6;"/>
     </g>
     <g id="line2d_10"/>
     <g id="text_8">
      <!-- 200 -->
      <defs>
       <path d="M 50.34375 8.453125 
L 50.34375 0 
L 3.03125 0 
Q 2.9375 3.171875 4.046875 6.109375 
Q 5.859375 10.9375 9.828125 15.625 
Q 13.8125 20.3125 21.34375 26.46875 
Q 33.015625 36.03125 37.109375 41.625 
Q 41.21875 47.21875 41.21875 52.203125 
Q 41.21875 57.421875 37.46875 61 
Q 33.734375 64.59375 27.734375 64.59375 
Q 21.390625 64.59375 17.578125 60.78125 
Q 13.765625 56.984375 13.71875 50.25 
L 4.6875 51.171875 
Q 5.609375 61.28125 11.65625 66.578125 
Q 17.71875 71.875 27.9375 71.875 
Q 38.234375 71.875 44.234375 66.15625 
Q 50.25 60.453125 50.25 52 
Q 50.25 47.703125 48.484375 43.546875 
Q 46.734375 39.40625 42.65625 34.8125 
Q 38.578125 30.21875 29.109375 22.21875 
Q 21.1875 15.578125 18.9375 13.203125 
Q 16.703125 10.84375 15.234375 8.453125 
z
" id="ArialMT-32"/>
      </defs>
      <g style="fill:#262626;" transform="translate(27.7165 97.387717)scale(0.16 -0.16)">
       <use xlink:href="#ArialMT-32"/>
       <use x="55.615234" xlink:href="#ArialMT-30"/>
       <use x="111.230469" xlink:href="#ArialMT-30"/>
      </g>
     </g>
    </g>
    <g id="ytick_4">
     <g id="line2d_11">
      <path clip-path="url(#p71d220ba29)" d="M 65.609 38.979591 
L 312.054187 38.979591 
" style="fill:none;stroke:#cccccc;stroke-linecap:round;stroke-width:1.6;"/>
     </g>
     <g id="line2d_12"/>
     <g id="text_9">
      <!-- 300 -->
      <defs>
       <path d="M 4.203125 18.890625 
L 12.984375 20.0625 
Q 14.5 12.59375 18.140625 9.296875 
Q 21.78125 6 27 6 
Q 33.203125 6 37.46875 10.296875 
Q 41.75 14.59375 41.75 20.953125 
Q 41.75 27 37.796875 30.921875 
Q 33.84375 34.859375 27.734375 34.859375 
Q 25.25 34.859375 21.53125 33.890625 
L 22.515625 41.609375 
Q 23.390625 41.5 23.921875 41.5 
Q 29.546875 41.5 34.03125 44.421875 
Q 38.53125 47.359375 38.53125 53.46875 
Q 38.53125 58.296875 35.25 61.46875 
Q 31.984375 64.65625 26.8125 64.65625 
Q 21.6875 64.65625 18.265625 61.421875 
Q 14.84375 58.203125 13.875 51.765625 
L 5.078125 53.328125 
Q 6.6875 62.15625 12.390625 67.015625 
Q 18.109375 71.875 26.609375 71.875 
Q 32.46875 71.875 37.390625 69.359375 
Q 42.328125 66.84375 44.9375 62.5 
Q 47.5625 58.15625 47.5625 53.265625 
Q 47.5625 48.640625 45.0625 44.828125 
Q 42.578125 41.015625 37.703125 38.765625 
Q 44.046875 37.3125 47.5625 32.6875 
Q 51.078125 28.078125 51.078125 21.140625 
Q 51.078125 11.765625 44.234375 5.25 
Q 37.40625 -1.265625 26.953125 -1.265625 
Q 17.53125 -1.265625 11.296875 4.34375 
Q 5.078125 9.96875 4.203125 18.890625 
z
" id="ArialMT-33"/>
      </defs>
      <g style="fill:#262626;" transform="translate(27.7165 44.705841)scale(0.16 -0.16)">
       <use xlink:href="#ArialMT-33"/>
       <use x="55.615234" xlink:href="#ArialMT-30"/>
       <use x="111.230469" xlink:href="#ArialMT-30"/>
      </g>
     </g>
    </g>
    <g id="text_10">
     <!-- execution time (seconds) -->
     <defs>
      <path d="M 0.734375 0 
L 19.671875 26.953125 
L 2.15625 51.859375 
L 13.140625 51.859375 
L 21.09375 39.703125 
Q 23.34375 36.234375 24.703125 33.890625 
Q 26.859375 37.109375 28.65625 39.59375 
L 37.40625 51.859375 
L 47.90625 51.859375 
L 29.984375 27.4375 
L 49.265625 0 
L 38.484375 0 
L 27.828125 16.109375 
L 25 20.453125 
L 11.375 0 
z
" id="ArialMT-78"/>
      <path d="M 40.4375 19 
L 49.078125 17.875 
Q 47.65625 8.9375 41.8125 3.875 
Q 35.984375 -1.171875 27.484375 -1.171875 
Q 16.84375 -1.171875 10.375 5.78125 
Q 3.90625 12.75 3.90625 25.734375 
Q 3.90625 34.125 6.6875 40.421875 
Q 9.46875 46.734375 15.15625 49.875 
Q 20.84375 53.03125 27.546875 53.03125 
Q 35.984375 53.03125 41.359375 48.75 
Q 46.734375 44.484375 48.25 36.625 
L 39.703125 35.296875 
Q 38.484375 40.53125 35.375 43.15625 
Q 32.28125 45.796875 27.875 45.796875 
Q 21.234375 45.796875 17.078125 41.03125 
Q 12.9375 36.28125 12.9375 25.984375 
Q 12.9375 15.53125 16.9375 10.796875 
Q 20.953125 6.0625 27.390625 6.0625 
Q 32.5625 6.0625 36.03125 9.234375 
Q 39.5 12.40625 40.4375 19 
z
" id="ArialMT-63"/>
      <path d="M 40.578125 0 
L 40.578125 7.625 
Q 34.515625 -1.171875 24.125 -1.171875 
Q 19.53125 -1.171875 15.546875 0.578125 
Q 11.578125 2.34375 9.640625 5 
Q 7.71875 7.671875 6.9375 11.53125 
Q 6.390625 14.109375 6.390625 19.734375 
L 6.390625 51.859375 
L 15.1875 51.859375 
L 15.1875 23.09375 
Q 15.1875 16.21875 15.71875 13.8125 
Q 16.546875 10.359375 19.234375 8.375 
Q 21.921875 6.390625 25.875 6.390625 
Q 29.828125 6.390625 33.296875 8.421875 
Q 36.765625 10.453125 38.203125 13.9375 
Q 39.65625 17.4375 39.65625 24.078125 
L 39.65625 51.859375 
L 48.4375 51.859375 
L 48.4375 0 
z
" id="ArialMT-75"/>
      <path d="M 23.390625 -21.046875 
Q 16.109375 -11.859375 11.078125 0.4375 
Q 6.0625 12.75 6.0625 25.921875 
Q 6.0625 37.546875 9.8125 48.1875 
Q 14.203125 60.546875 23.390625 72.796875 
L 29.6875 72.796875 
Q 23.78125 62.640625 21.875 58.296875 
Q 18.890625 51.5625 17.1875 44.234375 
Q 15.09375 35.109375 15.09375 25.875 
Q 15.09375 2.390625 29.6875 -21.046875 
z
" id="ArialMT-28"/>
      <path d="M 3.078125 15.484375 
L 11.765625 16.84375 
Q 12.5 11.625 15.84375 8.84375 
Q 19.1875 6.0625 25.203125 6.0625 
Q 31.25 6.0625 34.171875 8.515625 
Q 37.109375 10.984375 37.109375 14.3125 
Q 37.109375 17.28125 34.515625 19 
Q 32.71875 20.171875 25.53125 21.96875 
Q 15.875 24.421875 12.140625 26.203125 
Q 8.40625 27.984375 6.46875 31.125 
Q 4.546875 34.28125 4.546875 38.09375 
Q 4.546875 41.546875 6.125 44.5 
Q 7.71875 47.46875 10.453125 49.421875 
Q 12.5 50.921875 16.03125 51.96875 
Q 19.578125 53.03125 23.640625 53.03125 
Q 29.734375 53.03125 34.34375 51.265625 
Q 38.96875 49.515625 41.15625 46.5 
Q 43.359375 43.5 44.1875 38.484375 
L 35.59375 37.3125 
Q 35.015625 41.3125 32.203125 43.546875 
Q 29.390625 45.796875 24.265625 45.796875 
Q 18.21875 45.796875 15.625 43.796875 
Q 13.03125 41.796875 13.03125 39.109375 
Q 13.03125 37.40625 14.109375 36.03125 
Q 15.1875 34.625 17.484375 33.6875 
Q 18.796875 33.203125 25.25 31.453125 
Q 34.578125 28.953125 38.25 27.359375 
Q 41.9375 25.78125 44.03125 22.75 
Q 46.140625 19.734375 46.140625 15.234375 
Q 46.140625 10.84375 43.578125 6.953125 
Q 41.015625 3.078125 36.171875 0.953125 
Q 31.34375 -1.171875 25.25 -1.171875 
Q 15.140625 -1.171875 9.84375 3.03125 
Q 4.546875 7.234375 3.078125 15.484375 
z
" id="ArialMT-73"/>
      <path d="M 40.234375 0 
L 40.234375 6.546875 
Q 35.296875 -1.171875 25.734375 -1.171875 
Q 19.53125 -1.171875 14.328125 2.25 
Q 9.125 5.671875 6.265625 11.796875 
Q 3.421875 17.921875 3.421875 25.875 
Q 3.421875 33.640625 6 39.96875 
Q 8.59375 46.296875 13.765625 49.65625 
Q 18.953125 53.03125 25.34375 53.03125 
Q 30.03125 53.03125 33.6875 51.046875 
Q 37.359375 49.078125 39.65625 45.90625 
L 39.65625 71.578125 
L 48.390625 71.578125 
L 48.390625 0 
z
M 12.453125 25.875 
Q 12.453125 15.921875 16.640625 10.984375 
Q 20.84375 6.0625 26.5625 6.0625 
Q 32.328125 6.0625 36.34375 10.765625 
Q 40.375 15.484375 40.375 25.140625 
Q 40.375 35.796875 36.265625 40.765625 
Q 32.171875 45.75 26.171875 45.75 
Q 20.3125 45.75 16.375 40.96875 
Q 12.453125 36.1875 12.453125 25.875 
z
" id="ArialMT-64"/>
      <path d="M 12.359375 -21.046875 
L 6.0625 -21.046875 
Q 20.65625 2.390625 20.65625 25.875 
Q 20.65625 35.0625 18.5625 44.09375 
Q 16.890625 51.421875 13.921875 58.15625 
Q 12.015625 62.546875 6.0625 72.796875 
L 12.359375 72.796875 
Q 21.53125 60.546875 25.921875 48.1875 
Q 29.6875 37.546875 29.6875 25.921875 
Q 29.6875 12.75 24.625 0.4375 
Q 19.578125 -11.859375 12.359375 -21.046875 
z
" id="ArialMT-29"/>
     </defs>
     <g style="fill:#262626;" transform="translate(20.01225 214.370125)rotate(-90)scale(0.176 -0.176)">
      <use xlink:href="#ArialMT-65"/>
      <use x="55.615234" xlink:href="#ArialMT-78"/>
      <use x="105.615234" xlink:href="#ArialMT-65"/>
      <use x="161.230469" xlink:href="#ArialMT-63"/>
      <use x="211.230469" xlink:href="#ArialMT-75"/>
      <use x="266.845703" xlink:href="#ArialMT-74"/>
      <use x="294.628906" xlink:href="#ArialMT-69"/>
      <use x="316.845703" xlink:href="#ArialMT-6f"/>
      <use x="372.460938" xlink:href="#ArialMT-6e"/>
      <use x="428.076172" xlink:href="#ArialMT-20"/>
      <use x="455.859375" xlink:href="#ArialMT-74"/>
      <use x="483.642578" xlink:href="#ArialMT-69"/>
      <use x="505.859375" xlink:href="#ArialMT-6d"/>
      <use x="589.160156" xlink:href="#ArialMT-65"/>
      <use x="644.775391" xlink:href="#ArialMT-20"/>
      <use x="672.558594" xlink:href="#ArialMT-28"/>
      <use x="705.859375" xlink:href="#ArialMT-73"/>
      <use x="755.859375" xlink:href="#ArialMT-65"/>
      <use x="811.474609" xlink:href="#ArialMT-63"/>
      <use x="861.474609" xlink:href="#ArialMT-6f"/>
      <use x="917.089844" xlink:href="#ArialMT-6e"/>
      <use x="972.705078" xlink:href="#ArialMT-64"/>
      <use x="1028.320312" xlink:href="#ArialMT-73"/>
      <use x="1078.320312" xlink:href="#ArialMT-29"/>
     </g>
    </g>
   </g>
   <g id="PathCollection_1">
    <path clip-path="url(#p71d220ba29)" d="M 93.0307 200.191537 
L 99.798597 200.191537 
L 99.798597 193.42364 
L 93.0307 193.42364 
z
" style="fill:#db5f57;stroke:#db5f57;stroke-width:2.025;"/>
    <path clip-path="url(#p71d220ba29)" d="M 154.641997 198.753001 
L 161.409893 198.753001 
L 161.409893 191.985105 
L 154.641997 191.985105 
z
" style="fill:#db5f57;stroke:#db5f57;stroke-width:2.025;"/>
    <path clip-path="url(#p71d220ba29)" d="M 216.253294 184.42914 
L 223.02119 184.42914 
L 223.02119 177.661243 
L 216.253294 177.661243 
z
" style="fill:#db5f57;stroke:#db5f57;stroke-width:2.025;"/>
    <path clip-path="url(#p71d220ba29)" d="M 277.86459 41.135524 
L 284.632487 41.135524 
L 284.632487 34.367628 
L 277.86459 34.367628 
z
" style="fill:#db5f57;stroke:#db5f57;stroke-width:2.025;"/>
   </g>
   <g id="line2d_13">
    <path clip-path="url(#p71d220ba29)" d="M 96.414648 196.807588 
L 158.025945 195.369053 
L 219.637242 181.045191 
L 281.248539 37.751576 
" style="fill:none;stroke:#db5f57;stroke-linecap:round;stroke-width:2.7;"/>
   </g>
   <g id="line2d_14">
    <path clip-path="url(#p71d220ba29)" d="M 0 0 
" style="fill:none;stroke:#db5f57;stroke-linecap:round;stroke-width:2.7;"/>
   </g>
   <g id="line2d_15">
    <path clip-path="url(#p71d220ba29)" d="M 0 0 
" style="fill:none;stroke:#db5f57;stroke-linecap:round;stroke-width:2.7;"/>
   </g>
   <g id="line2d_16">
    <path clip-path="url(#p71d220ba29)" d="M 0 0 
" style="fill:none;stroke:#db5f57;stroke-linecap:round;stroke-width:2.7;"/>
   </g>
   <g id="line2d_17">
    <path clip-path="url(#p71d220ba29)" d="M 0 0 
" style="fill:none;stroke:#db5f57;stroke-linecap:round;stroke-width:2.7;"/>
   </g>
   <g id="PathCollection_2">
    <defs>
     <path d="M 0 3.383948 
C 0.897434 3.383948 1.758231 3.027394 2.392813 2.392813 
C 3.027394 1.758231 3.383948 0.897434 3.383948 0 
C 3.383948 -0.897434 3.027394 -1.758231 2.392813 -2.392813 
C 1.758231 -3.027394 0.897434 -3.383948 0 -3.383948 
C -0.897434 -3.383948 -1.758231 -3.027394 -2.392813 -2.392813 
C -3.027394 -1.758231 -3.383948 -0.897434 -3.383948 0 
C -3.383948 0.897434 -3.027394 1.758231 -2.392813 2.392813 
C -1.758231 3.027394 -0.897434 3.383948 0 3.383948 
z
" id="C0_0_709b18c976"/>
    </defs>
    <g clip-path="url(#p71d220ba29)">
     <use style="fill:#d3db57;stroke:#d3db57;stroke-width:2.025;" x="96.414648" xlink:href="#C0_0_709b18c976" y="196.806976"/>
    </g>
    <g clip-path="url(#p71d220ba29)">
     <use style="fill:#d3db57;stroke:#d3db57;stroke-width:2.025;" x="158.025945" xlink:href="#C0_0_709b18c976" y="195.360014"/>
    </g>
    <g clip-path="url(#p71d220ba29)">
     <use style="fill:#d3db57;stroke:#d3db57;stroke-width:2.025;" x="219.637242" xlink:href="#C0_0_709b18c976" y="181.028087"/>
    </g>
    <g clip-path="url(#p71d220ba29)">
     <use style="fill:#d3db57;stroke:#d3db57;stroke-width:2.025;" x="281.248539" xlink:href="#C0_0_709b18c976" y="36.12634"/>
    </g>
   </g>
   <g id="line2d_18">
    <path clip-path="url(#p71d220ba29)" d="M 96.414648 196.806976 
L 158.025945 195.360014 
L 219.637242 181.028087 
L 281.248539 36.12634 
" style="fill:none;stroke:#d3db57;stroke-linecap:round;stroke-width:2.7;"/>
   </g>
   <g id="line2d_19">
    <path clip-path="url(#p71d220ba29)" d="M 0 0 
" style="fill:none;stroke:#d3db57;stroke-linecap:round;stroke-width:2.7;"/>
   </g>
   <g id="line2d_20">
    <path clip-path="url(#p71d220ba29)" d="M 0 0 
" style="fill:none;stroke:#d3db57;stroke-linecap:round;stroke-width:2.7;"/>
   </g>
   <g id="line2d_21">
    <path clip-path="url(#p71d220ba29)" d="M 0 0 
" style="fill:none;stroke:#d3db57;stroke-linecap:round;stroke-width:2.7;"/>
   </g>
   <g id="line2d_22">
    <path clip-path="url(#p71d220ba29)" d="M 0 0 
" style="fill:none;stroke:#d3db57;stroke-linecap:round;stroke-width:2.7;"/>
   </g>
   <g id="patch_3">
    <path d="M 65.609 207.258 
L 65.609 25.85 
" style="fill:none;stroke:#cccccc;stroke-linecap:square;stroke-linejoin:miter;stroke-width:1.5;"/>
   </g>
   <g id="patch_4">
    <path d="M 65.609 207.258 
L 312.054187 207.258 
" style="fill:none;stroke:#cccccc;stroke-linecap:square;stroke-linejoin:miter;stroke-width:1.5;"/>
   </g>
   <g id="PathCollection_3">
    <path clip-path="url(#p71d220ba29)" d="M 96.414648 200.190487 
L 99.798597 193.422591 
L 93.0307 193.422591 
z
" style="fill:#57db5f;stroke:#57db5f;stroke-width:2.025;"/>
    <path clip-path="url(#p71d220ba29)" d="M 158.025945 198.75063 
L 161.409893 191.982734 
L 154.641997 191.982734 
z
" style="fill:#57db5f;stroke:#57db5f;stroke-width:2.025;"/>
    <path clip-path="url(#p71d220ba29)" d="M 219.637242 184.356878 
L 223.02119 177.588981 
L 216.253294 177.588981 
z
" style="fill:#57db5f;stroke:#57db5f;stroke-width:2.025;"/>
    <path clip-path="url(#p71d220ba29)" d="M 281.248539 40.705113 
L 284.632487 33.937217 
L 277.86459 33.937217 
z
" style="fill:#57db5f;stroke:#57db5f;stroke-width:2.025;"/>
   </g>
   <g id="line2d_23">
    <path clip-path="url(#p71d220ba29)" d="M 96.414648 196.806539 
L 158.025945 195.366682 
L 219.637242 180.972929 
L 281.248539 37.321165 
" style="fill:none;stroke:#57db5f;stroke-linecap:round;stroke-width:2.7;"/>
   </g>
   <g id="line2d_24">
    <path clip-path="url(#p71d220ba29)" d="M 0 0 
" style="fill:none;stroke:#57db5f;stroke-linecap:round;stroke-width:2.7;"/>
   </g>
   <g id="line2d_25">
    <path clip-path="url(#p71d220ba29)" d="M 0 0 
" style="fill:none;stroke:#57db5f;stroke-linecap:round;stroke-width:2.7;"/>
   </g>
   <g id="line2d_26">
    <path clip-path="url(#p71d220ba29)" d="M 0 0 
" style="fill:none;stroke:#57db5f;stroke-linecap:round;stroke-width:2.7;"/>
   </g>
   <g id="line2d_27">
    <path clip-path="url(#p71d220ba29)" d="M 0 0 
" style="fill:none;stroke:#57db5f;stroke-linecap:round;stroke-width:2.7;"/>
   </g>
   <g id="text_11">
    <!-- processors amount = 1 -->
    <defs>
     <path d="M 6.59375 -19.875 
L 6.59375 51.859375 
L 14.59375 51.859375 
L 14.59375 45.125 
Q 17.4375 49.078125 21 51.046875 
Q 24.5625 53.03125 29.640625 53.03125 
Q 36.28125 53.03125 41.359375 49.609375 
Q 46.4375 46.1875 49.015625 39.953125 
Q 51.609375 33.734375 51.609375 26.3125 
Q 51.609375 18.359375 48.75 11.984375 
Q 45.90625 5.609375 40.453125 2.21875 
Q 35.015625 -1.171875 29 -1.171875 
Q 24.609375 -1.171875 21.109375 0.6875 
Q 17.625 2.546875 15.375 5.375 
L 15.375 -19.875 
z
M 14.546875 25.640625 
Q 14.546875 15.625 18.59375 10.84375 
Q 22.65625 6.0625 28.421875 6.0625 
Q 34.28125 6.0625 38.453125 11.015625 
Q 42.625 15.96875 42.625 26.375 
Q 42.625 36.28125 38.546875 41.203125 
Q 34.46875 46.140625 28.8125 46.140625 
Q 23.1875 46.140625 18.859375 40.890625 
Q 14.546875 35.640625 14.546875 25.640625 
z
" id="ArialMT-70"/>
     <path d="M 52.828125 42.09375 
L 5.5625 42.09375 
L 5.5625 50.296875 
L 52.828125 50.296875 
z
M 52.828125 20.359375 
L 5.5625 20.359375 
L 5.5625 28.5625 
L 52.828125 28.5625 
z
" id="ArialMT-3d"/>
    </defs>
    <g style="fill:#262626;" transform="translate(99.079843 19.85)scale(0.176 -0.176)">
     <use xlink:href="#ArialMT-70"/>
     <use x="55.615234" xlink:href="#ArialMT-72"/>
     <use x="88.916016" xlink:href="#ArialMT-6f"/>
     <use x="144.53125" xlink:href="#ArialMT-63"/>
     <use x="194.53125" xlink:href="#ArialMT-65"/>
     <use x="250.146484" xlink:href="#ArialMT-73"/>
     <use x="300.146484" xlink:href="#ArialMT-73"/>
     <use x="350.146484" xlink:href="#ArialMT-6f"/>
     <use x="405.761719" xlink:href="#ArialMT-72"/>
     <use x="439.0625" xlink:href="#ArialMT-73"/>
     <use x="489.0625" xlink:href="#ArialMT-20"/>
     <use x="516.845703" xlink:href="#ArialMT-61"/>
     <use x="572.460938" xlink:href="#ArialMT-6d"/>
     <use x="655.761719" xlink:href="#ArialMT-6f"/>
     <use x="711.376953" xlink:href="#ArialMT-75"/>
     <use x="766.992188" xlink:href="#ArialMT-6e"/>
     <use x="822.607422" xlink:href="#ArialMT-74"/>
     <use x="850.390625" xlink:href="#ArialMT-20"/>
     <use x="878.173828" xlink:href="#ArialMT-3d"/>
     <use x="936.572266" xlink:href="#ArialMT-20"/>
     <use x="964.355469" xlink:href="#ArialMT-31"/>
    </g>
   </g>
   <g id="PathCollection_4">
    <defs>
     <path d="M 0 -3.383948 
L -0.759744 -1.045697 
L -3.218326 -1.045697 
L -1.229291 0.399421 
L -1.989035 2.737672 
L -0 1.292553 
L 1.989035 2.737672 
L 1.229291 0.399421 
L 3.218326 -1.045697 
L 0.759744 -1.045697 
z
" id="C1_0_a6a0e7731e"/>
    </defs>
    <g clip-path="url(#p71d220ba29)">
     <use style="fill:#57d3db;stroke:#57d3db;stroke-width:2.025;" x="96.414648" xlink:href="#C1_0_a6a0e7731e" y="196.807418"/>
    </g>
    <g clip-path="url(#p71d220ba29)">
     <use style="fill:#57d3db;stroke:#57d3db;stroke-width:2.025;" x="158.025945" xlink:href="#C1_0_a6a0e7731e" y="195.310093"/>
    </g>
    <g clip-path="url(#p71d220ba29)">
     <use style="fill:#57d3db;stroke:#57d3db;stroke-width:2.025;" x="219.637242" xlink:href="#C1_0_a6a0e7731e" y="181.06284"/>
    </g>
    <g clip-path="url(#p71d220ba29)">
     <use style="fill:#57d3db;stroke:#57d3db;stroke-width:2.025;" x="281.248539" xlink:href="#C1_0_a6a0e7731e" y="36.390276"/>
    </g>
   </g>
   <g id="line2d_28">
    <path clip-path="url(#p71d220ba29)" d="M 96.414648 196.807418 
L 158.025945 195.310093 
L 219.637242 181.06284 
L 281.248539 36.390276 
" style="fill:none;stroke:#57d3db;stroke-linecap:round;stroke-width:2.7;"/>
   </g>
   <g id="line2d_29">
    <path clip-path="url(#p71d220ba29)" d="M 0 0 
" style="fill:none;stroke:#57d3db;stroke-linecap:round;stroke-width:2.7;"/>
   </g>
   <g id="line2d_30">
    <path clip-path="url(#p71d220ba29)" d="M 0 0 
" style="fill:none;stroke:#57d3db;stroke-linecap:round;stroke-width:2.7;"/>
   </g>
   <g id="line2d_31">
    <path clip-path="url(#p71d220ba29)" d="M 0 0 
" style="fill:none;stroke:#57d3db;stroke-linecap:round;stroke-width:2.7;"/>
   </g>
   <g id="line2d_32">
    <path clip-path="url(#p71d220ba29)" d="M 0 0 
" style="fill:none;stroke:#57d3db;stroke-linecap:round;stroke-width:2.7;"/>
   </g>
   <g id="PathCollection_5">
    <path clip-path="url(#p71d220ba29)" d="M 93.0307 200.181989 
L 99.798597 193.414092 
M 93.0307 193.414092 
L 99.798597 200.181989 
" style="fill:#5f57db;stroke:#5f57db;stroke-width:2.025;"/>
    <path clip-path="url(#p71d220ba29)" d="M 154.641997 198.742491 
L 161.409893 191.974595 
M 154.641997 191.974595 
L 161.409893 198.742491 
" style="fill:#5f57db;stroke:#5f57db;stroke-width:2.025;"/>
    <path clip-path="url(#p71d220ba29)" d="M 216.253294 184.472304 
L 223.02119 177.704407 
M 216.253294 177.704407 
L 223.02119 184.472304 
" style="fill:#5f57db;stroke:#5f57db;stroke-width:2.025;"/>
    <path clip-path="url(#p71d220ba29)" d="M 277.86459 39.860974 
L 284.632487 33.093078 
M 277.86459 33.093078 
L 284.632487 39.860974 
" style="fill:#5f57db;stroke:#5f57db;stroke-width:2.025;"/>
   </g>
   <g id="line2d_33">
    <path clip-path="url(#p71d220ba29)" d="M 96.414648 196.798041 
L 158.025945 195.358543 
L 219.637242 181.088355 
L 281.248539 36.477026 
" style="fill:none;stroke:#5f57db;stroke-linecap:round;stroke-width:2.7;"/>
   </g>
   <g id="line2d_34">
    <path clip-path="url(#p71d220ba29)" d="M 0 0 
" style="fill:none;stroke:#5f57db;stroke-linecap:round;stroke-width:2.7;"/>
   </g>
   <g id="line2d_35">
    <path clip-path="url(#p71d220ba29)" d="M 0 0 
" style="fill:none;stroke:#5f57db;stroke-linecap:round;stroke-width:2.7;"/>
   </g>
   <g id="line2d_36">
    <path clip-path="url(#p71d220ba29)" d="M 0 0 
" style="fill:none;stroke:#5f57db;stroke-linecap:round;stroke-width:2.7;"/>
   </g>
   <g id="line2d_37">
    <path clip-path="url(#p71d220ba29)" d="M 0 0 
" style="fill:none;stroke:#5f57db;stroke-linecap:round;stroke-width:2.7;"/>
   </g>
   <g id="PathCollection_6">
    <path clip-path="url(#p71d220ba29)" d="M 93.0307 196.8063 
L 99.798597 196.8063 
M 96.414648 200.190248 
L 96.414648 193.422352 
" style="fill:#db57d3;stroke:#db57d3;stroke-width:2.025;"/>
    <path clip-path="url(#p71d220ba29)" d="M 154.641997 195.368477 
L 161.409893 195.368477 
M 158.025945 198.752425 
L 158.025945 191.984529 
" style="fill:#db57d3;stroke:#db57d3;stroke-width:2.025;"/>
    <path clip-path="url(#p71d220ba29)" d="M 216.253294 180.968539 
L 223.02119 180.968539 
M 219.637242 184.352487 
L 219.637242 177.584591 
" style="fill:#db57d3;stroke:#db57d3;stroke-width:2.025;"/>
    <path clip-path="url(#p71d220ba29)" d="M 277.86459 36.478782 
L 284.632487 36.478782 
M 281.248539 39.86273 
L 281.248539 33.094834 
" style="fill:#db57d3;stroke:#db57d3;stroke-width:2.025;"/>
   </g>
   <g id="line2d_38">
    <path clip-path="url(#p71d220ba29)" d="M 96.414648 196.8063 
L 158.025945 195.368477 
L 219.637242 180.968539 
L 281.248539 36.478782 
" style="fill:none;stroke:#db57d3;stroke-linecap:round;stroke-width:2.7;"/>
   </g>
   <g id="line2d_39">
    <path clip-path="url(#p71d220ba29)" d="M 0 0 
" style="fill:none;stroke:#db57d3;stroke-linecap:round;stroke-width:2.7;"/>
   </g>
   <g id="line2d_40">
    <path clip-path="url(#p71d220ba29)" d="M 0 0 
" style="fill:none;stroke:#db57d3;stroke-linecap:round;stroke-width:2.7;"/>
   </g>
   <g id="line2d_41">
    <path clip-path="url(#p71d220ba29)" d="M 0 0 
" style="fill:none;stroke:#db57d3;stroke-linecap:round;stroke-width:2.7;"/>
   </g>
   <g id="line2d_42">
    <path clip-path="url(#p71d220ba29)" d="M 0 0 
" style="fill:none;stroke:#db57d3;stroke-linecap:round;stroke-width:2.7;"/>
   </g>
  </g>
  <g id="axes_2">
   <g id="patch_5">
    <path d="M 332.705359 207.258 
L 579.150546 207.258 
L 579.150546 25.85 
L 332.705359 25.85 
z
" style="fill:#ffffff;"/>
   </g>
   <g id="matplotlib.axis_3">
    <g id="xtick_5">
     <g id="line2d_43"/>
     <g id="text_12">
      <!-- 100 -->
      <g style="fill:#262626;" transform="translate(350.164757 229.9105)scale(0.16 -0.16)">
       <use xlink:href="#ArialMT-31"/>
       <use x="55.615234" xlink:href="#ArialMT-30"/>
       <use x="111.230469" xlink:href="#ArialMT-30"/>
      </g>
     </g>
    </g>
    <g id="xtick_6">
     <g id="line2d_44"/>
     <g id="text_13">
      <!-- 1000 -->
      <g style="fill:#262626;" transform="translate(407.327304 229.9105)scale(0.16 -0.16)">
       <use xlink:href="#ArialMT-31"/>
       <use x="55.615234" xlink:href="#ArialMT-30"/>
       <use x="111.230469" xlink:href="#ArialMT-30"/>
       <use x="166.845703" xlink:href="#ArialMT-30"/>
      </g>
     </g>
    </g>
    <g id="xtick_7">
     <g id="line2d_45"/>
     <g id="text_14">
      <!-- 10000 -->
      <g style="fill:#262626;" transform="translate(464.489851 229.9105)scale(0.16 -0.16)">
       <use xlink:href="#ArialMT-31"/>
       <use x="55.615234" xlink:href="#ArialMT-30"/>
       <use x="111.230469" xlink:href="#ArialMT-30"/>
       <use x="166.845703" xlink:href="#ArialMT-30"/>
       <use x="222.460938" xlink:href="#ArialMT-30"/>
      </g>
     </g>
    </g>
    <g id="xtick_8">
     <g id="line2d_46"/>
     <g id="text_15">
      <!-- 100000 -->
      <g style="fill:#262626;" transform="translate(521.652398 229.9105)scale(0.16 -0.16)">
       <use xlink:href="#ArialMT-31"/>
       <use x="55.615234" xlink:href="#ArialMT-30"/>
       <use x="111.230469" xlink:href="#ArialMT-30"/>
       <use x="166.845703" xlink:href="#ArialMT-30"/>
       <use x="222.460938" xlink:href="#ArialMT-30"/>
       <use x="278.076172" xlink:href="#ArialMT-30"/>
      </g>
     </g>
    </g>
    <g id="text_16">
     <!-- iteration limit -->
     <g style="fill:#262626;" transform="translate(406.537952 249.68825)scale(0.176 -0.176)">
      <use xlink:href="#ArialMT-69"/>
      <use x="22.216797" xlink:href="#ArialMT-74"/>
      <use x="50" xlink:href="#ArialMT-65"/>
      <use x="105.615234" xlink:href="#ArialMT-72"/>
      <use x="138.916016" xlink:href="#ArialMT-61"/>
      <use x="194.53125" xlink:href="#ArialMT-74"/>
      <use x="222.314453" xlink:href="#ArialMT-69"/>
      <use x="244.53125" xlink:href="#ArialMT-6f"/>
      <use x="300.146484" xlink:href="#ArialMT-6e"/>
      <use x="355.761719" xlink:href="#ArialMT-20"/>
      <use x="383.544922" xlink:href="#ArialMT-6c"/>
      <use x="405.761719" xlink:href="#ArialMT-69"/>
      <use x="427.978516" xlink:href="#ArialMT-6d"/>
      <use x="511.279297" xlink:href="#ArialMT-69"/>
      <use x="533.496094" xlink:href="#ArialMT-74"/>
     </g>
    </g>
   </g>
   <g id="matplotlib.axis_4">
    <g id="ytick_5">
     <g id="line2d_47">
      <path clip-path="url(#p5c02f9e4fb)" d="M 332.705359 197.02522 
L 579.150546 197.02522 
" style="fill:none;stroke:#cccccc;stroke-linecap:round;stroke-width:1.6;"/>
     </g>
     <g id="line2d_48"/>
    </g>
    <g id="ytick_6">
     <g id="line2d_49">
      <path clip-path="url(#p5c02f9e4fb)" d="M 332.705359 144.343344 
L 579.150546 144.343344 
" style="fill:none;stroke:#cccccc;stroke-linecap:round;stroke-width:1.6;"/>
     </g>
     <g id="line2d_50"/>
    </g>
    <g id="ytick_7">
     <g id="line2d_51">
      <path clip-path="url(#p5c02f9e4fb)" d="M 332.705359 91.661467 
L 579.150546 91.661467 
" style="fill:none;stroke:#cccccc;stroke-linecap:round;stroke-width:1.6;"/>
     </g>
     <g id="line2d_52"/>
    </g>
    <g id="ytick_8">
     <g id="line2d_53">
      <path clip-path="url(#p5c02f9e4fb)" d="M 332.705359 38.979591 
L 579.150546 38.979591 
" style="fill:none;stroke:#cccccc;stroke-linecap:round;stroke-width:1.6;"/>
     </g>
     <g id="line2d_54"/>
    </g>
   </g>
   <g id="PathCollection_7">
    <path clip-path="url(#p5c02f9e4fb)" d="M 360.127059 200.191537 
L 366.894956 200.191537 
L 366.894956 193.42364 
L 360.127059 193.42364 
z
" style="fill:#db5f57;stroke:#db5f57;stroke-width:2.025;"/>
    <path clip-path="url(#p5c02f9e4fb)" d="M 421.738356 198.753001 
L 428.506252 198.753001 
L 428.506252 191.985105 
L 421.738356 191.985105 
z
" style="fill:#db5f57;stroke:#db5f57;stroke-width:2.025;"/>
    <path clip-path="url(#p5c02f9e4fb)" d="M 483.349653 184.42914 
L 490.117549 184.42914 
L 490.117549 177.661243 
L 483.349653 177.661243 
z
" style="fill:#db5f57;stroke:#db5f57;stroke-width:2.025;"/>
    <path clip-path="url(#p5c02f9e4fb)" d="M 544.960949 41.135524 
L 551.728846 41.135524 
L 551.728846 34.367628 
L 544.960949 34.367628 
z
" style="fill:#db5f57;stroke:#db5f57;stroke-width:2.025;"/>
   </g>
   <g id="line2d_55">
    <path clip-path="url(#p5c02f9e4fb)" d="M 363.511007 196.807588 
L 425.122304 195.369053 
L 486.733601 181.045191 
L 548.344898 37.751576 
" style="fill:none;stroke:#db5f57;stroke-linecap:round;stroke-width:2.7;"/>
   </g>
   <g id="line2d_56">
    <path clip-path="url(#p5c02f9e4fb)" d="M 0 0 
" style="fill:none;stroke:#db5f57;stroke-linecap:round;stroke-width:2.7;"/>
   </g>
   <g id="line2d_57">
    <path clip-path="url(#p5c02f9e4fb)" d="M 0 0 
" style="fill:none;stroke:#db5f57;stroke-linecap:round;stroke-width:2.7;"/>
   </g>
   <g id="line2d_58">
    <path clip-path="url(#p5c02f9e4fb)" d="M 0 0 
" style="fill:none;stroke:#db5f57;stroke-linecap:round;stroke-width:2.7;"/>
   </g>
   <g id="line2d_59">
    <path clip-path="url(#p5c02f9e4fb)" d="M 0 0 
" style="fill:none;stroke:#db5f57;stroke-linecap:round;stroke-width:2.7;"/>
   </g>
   <g id="PathCollection_8">
    <defs>
     <path d="M 0 3.383948 
C 0.897434 3.383948 1.758231 3.027394 2.392813 2.392813 
C 3.027394 1.758231 3.383948 0.897434 3.383948 0 
C 3.383948 -0.897434 3.027394 -1.758231 2.392813 -2.392813 
C 1.758231 -3.027394 0.897434 -3.383948 0 -3.383948 
C -0.897434 -3.383948 -1.758231 -3.027394 -2.392813 -2.392813 
C -3.027394 -1.758231 -3.383948 -0.897434 -3.383948 0 
C -3.383948 0.897434 -3.027394 1.758231 -2.392813 2.392813 
C -1.758231 3.027394 -0.897434 3.383948 0 3.383948 
z
" id="C2_0_08393f4351"/>
    </defs>
    <g clip-path="url(#p5c02f9e4fb)">
     <use style="fill:#d3db57;stroke:#d3db57;stroke-width:2.025;" x="363.511007" xlink:href="#C2_0_08393f4351" y="196.894836"/>
    </g>
    <g clip-path="url(#p5c02f9e4fb)">
     <use style="fill:#d3db57;stroke:#d3db57;stroke-width:2.025;" x="425.122304" xlink:href="#C2_0_08393f4351" y="196.083651"/>
    </g>
    <g clip-path="url(#p5c02f9e4fb)">
     <use style="fill:#d3db57;stroke:#d3db57;stroke-width:2.025;" x="486.733601" xlink:href="#C2_0_08393f4351" y="187.716508"/>
    </g>
    <g clip-path="url(#p5c02f9e4fb)">
     <use style="fill:#d3db57;stroke:#d3db57;stroke-width:2.025;" x="548.344898" xlink:href="#C2_0_08393f4351" y="104.928344"/>
    </g>
   </g>
   <g id="line2d_60">
    <path clip-path="url(#p5c02f9e4fb)" d="M 363.511007 196.894836 
L 425.122304 196.083651 
L 486.733601 187.716508 
L 548.344898 104.928344 
" style="fill:none;stroke:#d3db57;stroke-linecap:round;stroke-width:2.7;"/>
   </g>
   <g id="line2d_61">
    <path clip-path="url(#p5c02f9e4fb)" d="M 0 0 
" style="fill:none;stroke:#d3db57;stroke-linecap:round;stroke-width:2.7;"/>
   </g>
   <g id="line2d_62">
    <path clip-path="url(#p5c02f9e4fb)" d="M 0 0 
" style="fill:none;stroke:#d3db57;stroke-linecap:round;stroke-width:2.7;"/>
   </g>
   <g id="line2d_63">
    <path clip-path="url(#p5c02f9e4fb)" d="M 0 0 
" style="fill:none;stroke:#d3db57;stroke-linecap:round;stroke-width:2.7;"/>
   </g>
   <g id="line2d_64">
    <path clip-path="url(#p5c02f9e4fb)" d="M 0 0 
" style="fill:none;stroke:#d3db57;stroke-linecap:round;stroke-width:2.7;"/>
   </g>
   <g id="patch_6">
    <path d="M 332.705359 207.258 
L 332.705359 25.85 
" style="fill:none;stroke:#cccccc;stroke-linecap:square;stroke-linejoin:miter;stroke-width:1.5;"/>
   </g>
   <g id="patch_7">
    <path d="M 332.705359 207.258 
L 579.150546 207.258 
" style="fill:none;stroke:#cccccc;stroke-linecap:square;stroke-linejoin:miter;stroke-width:1.5;"/>
   </g>
   <g id="PathCollection_9">
    <path clip-path="url(#p5c02f9e4fb)" d="M 363.511007 200.279552 
L 366.894956 193.511656 
L 360.127059 193.511656 
z
" style="fill:#57db5f;stroke:#57db5f;stroke-width:2.025;"/>
    <path clip-path="url(#p5c02f9e4fb)" d="M 425.122304 199.47616 
L 428.506252 192.708264 
L 421.738356 192.708264 
z
" style="fill:#57db5f;stroke:#57db5f;stroke-width:2.025;"/>
    <path clip-path="url(#p5c02f9e4fb)" d="M 486.733601 191.272779 
L 490.117549 184.504882 
L 483.349653 184.504882 
z
" style="fill:#57db5f;stroke:#57db5f;stroke-width:2.025;"/>
    <path clip-path="url(#p5c02f9e4fb)" d="M 548.344898 108.645066 
L 551.728846 101.87717 
L 544.960949 101.87717 
z
" style="fill:#57db5f;stroke:#57db5f;stroke-width:2.025;"/>
   </g>
   <g id="line2d_65">
    <path clip-path="url(#p5c02f9e4fb)" d="M 363.511007 196.895604 
L 425.122304 196.092212 
L 486.733601 187.888831 
L 548.344898 105.261118 
" style="fill:none;stroke:#57db5f;stroke-linecap:round;stroke-width:2.7;"/>
   </g>
   <g id="line2d_66">
    <path clip-path="url(#p5c02f9e4fb)" d="M 0 0 
" style="fill:none;stroke:#57db5f;stroke-linecap:round;stroke-width:2.7;"/>
   </g>
   <g id="line2d_67">
    <path clip-path="url(#p5c02f9e4fb)" d="M 0 0 
" style="fill:none;stroke:#57db5f;stroke-linecap:round;stroke-width:2.7;"/>
   </g>
   <g id="line2d_68">
    <path clip-path="url(#p5c02f9e4fb)" d="M 0 0 
" style="fill:none;stroke:#57db5f;stroke-linecap:round;stroke-width:2.7;"/>
   </g>
   <g id="line2d_69">
    <path clip-path="url(#p5c02f9e4fb)" d="M 0 0 
" style="fill:none;stroke:#57db5f;stroke-linecap:round;stroke-width:2.7;"/>
   </g>
   <g id="text_17">
    <!-- processors amount = 2 -->
    <g style="fill:#262626;" transform="translate(366.176202 19.85)scale(0.176 -0.176)">
     <use xlink:href="#ArialMT-70"/>
     <use x="55.615234" xlink:href="#ArialMT-72"/>
     <use x="88.916016" xlink:href="#ArialMT-6f"/>
     <use x="144.53125" xlink:href="#ArialMT-63"/>
     <use x="194.53125" xlink:href="#ArialMT-65"/>
     <use x="250.146484" xlink:href="#ArialMT-73"/>
     <use x="300.146484" xlink:href="#ArialMT-73"/>
     <use x="350.146484" xlink:href="#ArialMT-6f"/>
     <use x="405.761719" xlink:href="#ArialMT-72"/>
     <use x="439.0625" xlink:href="#ArialMT-73"/>
     <use x="489.0625" xlink:href="#ArialMT-20"/>
     <use x="516.845703" xlink:href="#ArialMT-61"/>
     <use x="572.460938" xlink:href="#ArialMT-6d"/>
     <use x="655.761719" xlink:href="#ArialMT-6f"/>
     <use x="711.376953" xlink:href="#ArialMT-75"/>
     <use x="766.992188" xlink:href="#ArialMT-6e"/>
     <use x="822.607422" xlink:href="#ArialMT-74"/>
     <use x="850.390625" xlink:href="#ArialMT-20"/>
     <use x="878.173828" xlink:href="#ArialMT-3d"/>
     <use x="936.572266" xlink:href="#ArialMT-20"/>
     <use x="964.355469" xlink:href="#ArialMT-32"/>
    </g>
   </g>
   <g id="PathCollection_10">
    <defs>
     <path d="M 0 -3.383948 
L -0.759744 -1.045697 
L -3.218326 -1.045697 
L -1.229291 0.399421 
L -1.989035 2.737672 
L -0 1.292553 
L 1.989035 2.737672 
L 1.229291 0.399421 
L 3.218326 -1.045697 
L 0.759744 -1.045697 
z
" id="C3_0_33715f09cf"/>
    </defs>
    <g clip-path="url(#p5c02f9e4fb)">
     <use style="fill:#57d3db;stroke:#57d3db;stroke-width:2.025;" x="363.511007" xlink:href="#C3_0_33715f09cf" y="196.891036"/>
    </g>
    <g clip-path="url(#p5c02f9e4fb)">
     <use style="fill:#57d3db;stroke:#57d3db;stroke-width:2.025;" x="425.122304" xlink:href="#C3_0_33715f09cf" y="196.06216"/>
    </g>
    <g clip-path="url(#p5c02f9e4fb)">
     <use style="fill:#57d3db;stroke:#57d3db;stroke-width:2.025;" x="486.733601" xlink:href="#C3_0_33715f09cf" y="188.080838"/>
    </g>
    <g clip-path="url(#p5c02f9e4fb)">
     <use style="fill:#57d3db;stroke:#57d3db;stroke-width:2.025;" x="548.344898" xlink:href="#C3_0_33715f09cf" y="105.522947"/>
    </g>
   </g>
   <g id="line2d_70">
    <path clip-path="url(#p5c02f9e4fb)" d="M 363.511007 196.891036 
L 425.122304 196.06216 
L 486.733601 188.080838 
L 548.344898 105.522947 
" style="fill:none;stroke:#57d3db;stroke-linecap:round;stroke-width:2.7;"/>
   </g>
   <g id="line2d_71">
    <path clip-path="url(#p5c02f9e4fb)" d="M 0 0 
" style="fill:none;stroke:#57d3db;stroke-linecap:round;stroke-width:2.7;"/>
   </g>
   <g id="line2d_72">
    <path clip-path="url(#p5c02f9e4fb)" d="M 0 0 
" style="fill:none;stroke:#57d3db;stroke-linecap:round;stroke-width:2.7;"/>
   </g>
   <g id="line2d_73">
    <path clip-path="url(#p5c02f9e4fb)" d="M 0 0 
" style="fill:none;stroke:#57d3db;stroke-linecap:round;stroke-width:2.7;"/>
   </g>
   <g id="line2d_74">
    <path clip-path="url(#p5c02f9e4fb)" d="M 0 0 
" style="fill:none;stroke:#57d3db;stroke-linecap:round;stroke-width:2.7;"/>
   </g>
   <g id="PathCollection_11">
    <path clip-path="url(#p5c02f9e4fb)" d="M 360.127059 200.270165 
L 366.894956 193.502269 
M 360.127059 193.502269 
L 366.894956 200.270165 
" style="fill:#5f57db;stroke:#5f57db;stroke-width:2.025;"/>
    <path clip-path="url(#p5c02f9e4fb)" d="M 421.738356 199.466094 
L 428.506252 192.698198 
M 421.738356 192.698198 
L 428.506252 199.466094 
" style="fill:#5f57db;stroke:#5f57db;stroke-width:2.025;"/>
    <path clip-path="url(#p5c02f9e4fb)" d="M 483.349653 191.466841 
L 490.117549 184.698945 
M 483.349653 184.698945 
L 490.117549 191.466841 
" style="fill:#5f57db;stroke:#5f57db;stroke-width:2.025;"/>
    <path clip-path="url(#p5c02f9e4fb)" d="M 544.960949 109.18049 
L 551.728846 102.412593 
M 544.960949 102.412593 
L 551.728846 109.18049 
" style="fill:#5f57db;stroke:#5f57db;stroke-width:2.025;"/>
   </g>
   <g id="line2d_75">
    <path clip-path="url(#p5c02f9e4fb)" d="M 363.511007 196.886217 
L 425.122304 196.082146 
L 486.733601 188.082893 
L 548.344898 105.796541 
" style="fill:none;stroke:#5f57db;stroke-linecap:round;stroke-width:2.7;"/>
   </g>
   <g id="line2d_76">
    <path clip-path="url(#p5c02f9e4fb)" d="M 0 0 
" style="fill:none;stroke:#5f57db;stroke-linecap:round;stroke-width:2.7;"/>
   </g>
   <g id="line2d_77">
    <path clip-path="url(#p5c02f9e4fb)" d="M 0 0 
" style="fill:none;stroke:#5f57db;stroke-linecap:round;stroke-width:2.7;"/>
   </g>
   <g id="line2d_78">
    <path clip-path="url(#p5c02f9e4fb)" d="M 0 0 
" style="fill:none;stroke:#5f57db;stroke-linecap:round;stroke-width:2.7;"/>
   </g>
   <g id="line2d_79">
    <path clip-path="url(#p5c02f9e4fb)" d="M 0 0 
" style="fill:none;stroke:#5f57db;stroke-linecap:round;stroke-width:2.7;"/>
   </g>
   <g id="PathCollection_12">
    <path clip-path="url(#p5c02f9e4fb)" d="M 360.127059 196.896856 
L 366.894956 196.896856 
M 363.511007 200.280804 
L 363.511007 193.512907 
" style="fill:#db57d3;stroke:#db57d3;stroke-width:2.025;"/>
    <path clip-path="url(#p5c02f9e4fb)" d="M 421.738356 196.088638 
L 428.506252 196.088638 
M 425.122304 199.472586 
L 425.122304 192.70469 
" style="fill:#db57d3;stroke:#db57d3;stroke-width:2.025;"/>
    <path clip-path="url(#p5c02f9e4fb)" d="M 483.349653 188.181233 
L 490.117549 188.181233 
M 486.733601 191.565181 
L 486.733601 184.797284 
" style="fill:#db57d3;stroke:#db57d3;stroke-width:2.025;"/>
    <path clip-path="url(#p5c02f9e4fb)" d="M 544.960949 105.575804 
L 551.728846 105.575804 
M 548.344898 108.959752 
L 548.344898 102.191856 
" style="fill:#db57d3;stroke:#db57d3;stroke-width:2.025;"/>
   </g>
   <g id="line2d_80">
    <path clip-path="url(#p5c02f9e4fb)" d="M 363.511007 196.896856 
L 425.122304 196.088638 
L 486.733601 188.181233 
L 548.344898 105.575804 
" style="fill:none;stroke:#db57d3;stroke-linecap:round;stroke-width:2.7;"/>
   </g>
   <g id="line2d_81">
    <path clip-path="url(#p5c02f9e4fb)" d="M 0 0 
" style="fill:none;stroke:#db57d3;stroke-linecap:round;stroke-width:2.7;"/>
   </g>
   <g id="line2d_82">
    <path clip-path="url(#p5c02f9e4fb)" d="M 0 0 
" style="fill:none;stroke:#db57d3;stroke-linecap:round;stroke-width:2.7;"/>
   </g>
   <g id="line2d_83">
    <path clip-path="url(#p5c02f9e4fb)" d="M 0 0 
" style="fill:none;stroke:#db57d3;stroke-linecap:round;stroke-width:2.7;"/>
   </g>
   <g id="line2d_84">
    <path clip-path="url(#p5c02f9e4fb)" d="M 0 0 
" style="fill:none;stroke:#db57d3;stroke-linecap:round;stroke-width:2.7;"/>
   </g>
  </g>
  <g id="axes_3">
   <g id="patch_8">
    <path d="M 599.801718 207.258 
L 846.246905 207.258 
L 846.246905 25.85 
L 599.801718 25.85 
z
" style="fill:#ffffff;"/>
   </g>
   <g id="matplotlib.axis_5">
    <g id="xtick_9">
     <g id="line2d_85"/>
     <g id="text_18">
      <!-- 100 -->
      <g style="fill:#262626;" transform="translate(617.261116 229.9105)scale(0.16 -0.16)">
       <use xlink:href="#ArialMT-31"/>
       <use x="55.615234" xlink:href="#ArialMT-30"/>
       <use x="111.230469" xlink:href="#ArialMT-30"/>
      </g>
     </g>
    </g>
    <g id="xtick_10">
     <g id="line2d_86"/>
     <g id="text_19">
      <!-- 1000 -->
      <g style="fill:#262626;" transform="translate(674.423663 229.9105)scale(0.16 -0.16)">
       <use xlink:href="#ArialMT-31"/>
       <use x="55.615234" xlink:href="#ArialMT-30"/>
       <use x="111.230469" xlink:href="#ArialMT-30"/>
       <use x="166.845703" xlink:href="#ArialMT-30"/>
      </g>
     </g>
    </g>
    <g id="xtick_11">
     <g id="line2d_87"/>
     <g id="text_20">
      <!-- 10000 -->
      <g style="fill:#262626;" transform="translate(731.58621 229.9105)scale(0.16 -0.16)">
       <use xlink:href="#ArialMT-31"/>
       <use x="55.615234" xlink:href="#ArialMT-30"/>
       <use x="111.230469" xlink:href="#ArialMT-30"/>
       <use x="166.845703" xlink:href="#ArialMT-30"/>
       <use x="222.460938" xlink:href="#ArialMT-30"/>
      </g>
     </g>
    </g>
    <g id="xtick_12">
     <g id="line2d_88"/>
     <g id="text_21">
      <!-- 100000 -->
      <g style="fill:#262626;" transform="translate(788.748757 229.9105)scale(0.16 -0.16)">
       <use xlink:href="#ArialMT-31"/>
       <use x="55.615234" xlink:href="#ArialMT-30"/>
       <use x="111.230469" xlink:href="#ArialMT-30"/>
       <use x="166.845703" xlink:href="#ArialMT-30"/>
       <use x="222.460938" xlink:href="#ArialMT-30"/>
       <use x="278.076172" xlink:href="#ArialMT-30"/>
      </g>
     </g>
    </g>
    <g id="text_22">
     <!-- iteration limit -->
     <g style="fill:#262626;" transform="translate(673.634311 249.68825)scale(0.176 -0.176)">
      <use xlink:href="#ArialMT-69"/>
      <use x="22.216797" xlink:href="#ArialMT-74"/>
      <use x="50" xlink:href="#ArialMT-65"/>
      <use x="105.615234" xlink:href="#ArialMT-72"/>
      <use x="138.916016" xlink:href="#ArialMT-61"/>
      <use x="194.53125" xlink:href="#ArialMT-74"/>
      <use x="222.314453" xlink:href="#ArialMT-69"/>
      <use x="244.53125" xlink:href="#ArialMT-6f"/>
      <use x="300.146484" xlink:href="#ArialMT-6e"/>
      <use x="355.761719" xlink:href="#ArialMT-20"/>
      <use x="383.544922" xlink:href="#ArialMT-6c"/>
      <use x="405.761719" xlink:href="#ArialMT-69"/>
      <use x="427.978516" xlink:href="#ArialMT-6d"/>
      <use x="511.279297" xlink:href="#ArialMT-69"/>
      <use x="533.496094" xlink:href="#ArialMT-74"/>
     </g>
    </g>
   </g>
   <g id="matplotlib.axis_6">
    <g id="ytick_9">
     <g id="line2d_89">
      <path clip-path="url(#p3931abfbbd)" d="M 599.801718 197.02522 
L 846.246905 197.02522 
" style="fill:none;stroke:#cccccc;stroke-linecap:round;stroke-width:1.6;"/>
     </g>
     <g id="line2d_90"/>
    </g>
    <g id="ytick_10">
     <g id="line2d_91">
      <path clip-path="url(#p3931abfbbd)" d="M 599.801718 144.343344 
L 846.246905 144.343344 
" style="fill:none;stroke:#cccccc;stroke-linecap:round;stroke-width:1.6;"/>
     </g>
     <g id="line2d_92"/>
    </g>
    <g id="ytick_11">
     <g id="line2d_93">
      <path clip-path="url(#p3931abfbbd)" d="M 599.801718 91.661467 
L 846.246905 91.661467 
" style="fill:none;stroke:#cccccc;stroke-linecap:round;stroke-width:1.6;"/>
     </g>
     <g id="line2d_94"/>
    </g>
    <g id="ytick_12">
     <g id="line2d_95">
      <path clip-path="url(#p3931abfbbd)" d="M 599.801718 38.979591 
L 846.246905 38.979591 
" style="fill:none;stroke:#cccccc;stroke-linecap:round;stroke-width:1.6;"/>
     </g>
     <g id="line2d_96"/>
    </g>
   </g>
   <g id="PathCollection_13">
    <path clip-path="url(#p3931abfbbd)" d="M 627.223418 200.191537 
L 633.991314 200.191537 
L 633.991314 193.42364 
L 627.223418 193.42364 
z
" style="fill:#db5f57;stroke:#db5f57;stroke-width:2.025;"/>
    <path clip-path="url(#p3931abfbbd)" d="M 688.834715 198.753001 
L 695.602611 198.753001 
L 695.602611 191.985105 
L 688.834715 191.985105 
z
" style="fill:#db5f57;stroke:#db5f57;stroke-width:2.025;"/>
    <path clip-path="url(#p3931abfbbd)" d="M 750.446012 184.42914 
L 757.213908 184.42914 
L 757.213908 177.661243 
L 750.446012 177.661243 
z
" style="fill:#db5f57;stroke:#db5f57;stroke-width:2.025;"/>
    <path clip-path="url(#p3931abfbbd)" d="M 812.057308 41.135524 
L 818.825205 41.135524 
L 818.825205 34.367628 
L 812.057308 34.367628 
z
" style="fill:#db5f57;stroke:#db5f57;stroke-width:2.025;"/>
   </g>
   <g id="line2d_97">
    <path clip-path="url(#p3931abfbbd)" d="M 630.607366 196.807588 
L 692.218663 195.369053 
L 753.82996 181.045191 
L 815.441257 37.751576 
" style="fill:none;stroke:#db5f57;stroke-linecap:round;stroke-width:2.7;"/>
   </g>
   <g id="line2d_98">
    <path clip-path="url(#p3931abfbbd)" d="M 0 0 
" style="fill:none;stroke:#db5f57;stroke-linecap:round;stroke-width:2.7;"/>
   </g>
   <g id="line2d_99">
    <path clip-path="url(#p3931abfbbd)" d="M 0 0 
" style="fill:none;stroke:#db5f57;stroke-linecap:round;stroke-width:2.7;"/>
   </g>
   <g id="line2d_100">
    <path clip-path="url(#p3931abfbbd)" d="M 0 0 
" style="fill:none;stroke:#db5f57;stroke-linecap:round;stroke-width:2.7;"/>
   </g>
   <g id="line2d_101">
    <path clip-path="url(#p3931abfbbd)" d="M 0 0 
" style="fill:none;stroke:#db5f57;stroke-linecap:round;stroke-width:2.7;"/>
   </g>
   <g id="PathCollection_14">
    <defs>
     <path d="M 0 3.383948 
C 0.897434 3.383948 1.758231 3.027394 2.392813 2.392813 
C 3.027394 1.758231 3.383948 0.897434 3.383948 0 
C 3.383948 -0.897434 3.027394 -1.758231 2.392813 -2.392813 
C 1.758231 -3.027394 0.897434 -3.383948 0 -3.383948 
C -0.897434 -3.383948 -1.758231 -3.027394 -2.392813 -2.392813 
C -3.027394 -1.758231 -3.383948 -0.897434 -3.383948 0 
C -3.383948 0.897434 -3.027394 1.758231 -2.392813 2.392813 
C -1.758231 3.027394 -0.897434 3.383948 0 3.383948 
z
" id="C4_0_bb2ae4fa7f"/>
    </defs>
    <g clip-path="url(#p3931abfbbd)">
     <use style="fill:#d3db57;stroke:#d3db57;stroke-width:2.025;" x="630.607366" xlink:href="#C4_0_bb2ae4fa7f" y="196.897228"/>
    </g>
    <g clip-path="url(#p3931abfbbd)">
     <use style="fill:#d3db57;stroke:#d3db57;stroke-width:2.025;" x="692.218663" xlink:href="#C4_0_bb2ae4fa7f" y="196.062008"/>
    </g>
    <g clip-path="url(#p3931abfbbd)">
     <use style="fill:#d3db57;stroke:#d3db57;stroke-width:2.025;" x="753.82996" xlink:href="#C4_0_bb2ae4fa7f" y="187.980796"/>
    </g>
    <g clip-path="url(#p3931abfbbd)">
     <use style="fill:#d3db57;stroke:#d3db57;stroke-width:2.025;" x="815.441257" xlink:href="#C4_0_bb2ae4fa7f" y="101.568294"/>
    </g>
   </g>
   <g id="line2d_102">
    <path clip-path="url(#p3931abfbbd)" d="M 630.607366 196.897228 
L 692.218663 196.062008 
L 753.82996 187.980796 
L 815.441257 101.568294 
" style="fill:none;stroke:#d3db57;stroke-linecap:round;stroke-width:2.7;"/>
   </g>
   <g id="line2d_103">
    <path clip-path="url(#p3931abfbbd)" d="M 0 0 
" style="fill:none;stroke:#d3db57;stroke-linecap:round;stroke-width:2.7;"/>
   </g>
   <g id="line2d_104">
    <path clip-path="url(#p3931abfbbd)" d="M 0 0 
" style="fill:none;stroke:#d3db57;stroke-linecap:round;stroke-width:2.7;"/>
   </g>
   <g id="line2d_105">
    <path clip-path="url(#p3931abfbbd)" d="M 0 0 
" style="fill:none;stroke:#d3db57;stroke-linecap:round;stroke-width:2.7;"/>
   </g>
   <g id="line2d_106">
    <path clip-path="url(#p3931abfbbd)" d="M 0 0 
" style="fill:none;stroke:#d3db57;stroke-linecap:round;stroke-width:2.7;"/>
   </g>
   <g id="patch_9">
    <path d="M 599.801718 207.258 
L 599.801718 25.85 
" style="fill:none;stroke:#cccccc;stroke-linecap:square;stroke-linejoin:miter;stroke-width:1.5;"/>
   </g>
   <g id="patch_10">
    <path d="M 599.801718 207.258 
L 846.246905 207.258 
" style="fill:none;stroke:#cccccc;stroke-linecap:square;stroke-linejoin:miter;stroke-width:1.5;"/>
   </g>
   <g id="PathCollection_15">
    <path clip-path="url(#p3931abfbbd)" d="M 630.607366 200.270912 
L 633.991314 193.503015 
L 627.223418 193.503015 
z
" style="fill:#57db5f;stroke:#57db5f;stroke-width:2.025;"/>
    <path clip-path="url(#p3931abfbbd)" d="M 692.218663 199.350401 
L 695.602611 192.582505 
L 688.834715 192.582505 
z
" style="fill:#57db5f;stroke:#57db5f;stroke-width:2.025;"/>
    <path clip-path="url(#p3931abfbbd)" d="M 753.82996 190.464674 
L 757.213908 183.696778 
L 750.446012 183.696778 
z
" style="fill:#57db5f;stroke:#57db5f;stroke-width:2.025;"/>
    <path clip-path="url(#p3931abfbbd)" d="M 815.441257 97.278951 
L 818.825205 90.511055 
L 812.057308 90.511055 
z
" style="fill:#57db5f;stroke:#57db5f;stroke-width:2.025;"/>
   </g>
   <g id="line2d_107">
    <path clip-path="url(#p3931abfbbd)" d="M 630.607366 196.886964 
L 692.218663 195.966453 
L 753.82996 187.080726 
L 815.441257 93.895003 
" style="fill:none;stroke:#57db5f;stroke-linecap:round;stroke-width:2.7;"/>
   </g>
   <g id="line2d_108">
    <path clip-path="url(#p3931abfbbd)" d="M 0 0 
" style="fill:none;stroke:#57db5f;stroke-linecap:round;stroke-width:2.7;"/>
   </g>
   <g id="line2d_109">
    <path clip-path="url(#p3931abfbbd)" d="M 0 0 
" style="fill:none;stroke:#57db5f;stroke-linecap:round;stroke-width:2.7;"/>
   </g>
   <g id="line2d_110">
    <path clip-path="url(#p3931abfbbd)" d="M 0 0 
" style="fill:none;stroke:#57db5f;stroke-linecap:round;stroke-width:2.7;"/>
   </g>
   <g id="line2d_111">
    <path clip-path="url(#p3931abfbbd)" d="M 0 0 
" style="fill:none;stroke:#57db5f;stroke-linecap:round;stroke-width:2.7;"/>
   </g>
   <g id="text_23">
    <!-- processors amount = 4 -->
    <defs>
     <path d="M 32.328125 0 
L 32.328125 17.140625 
L 1.265625 17.140625 
L 1.265625 25.203125 
L 33.9375 71.578125 
L 41.109375 71.578125 
L 41.109375 25.203125 
L 50.78125 25.203125 
L 50.78125 17.140625 
L 41.109375 17.140625 
L 41.109375 0 
z
M 32.328125 25.203125 
L 32.328125 57.46875 
L 9.90625 25.203125 
z
" id="ArialMT-34"/>
    </defs>
    <g style="fill:#262626;" transform="translate(633.272561 19.85)scale(0.176 -0.176)">
     <use xlink:href="#ArialMT-70"/>
     <use x="55.615234" xlink:href="#ArialMT-72"/>
     <use x="88.916016" xlink:href="#ArialMT-6f"/>
     <use x="144.53125" xlink:href="#ArialMT-63"/>
     <use x="194.53125" xlink:href="#ArialMT-65"/>
     <use x="250.146484" xlink:href="#ArialMT-73"/>
     <use x="300.146484" xlink:href="#ArialMT-73"/>
     <use x="350.146484" xlink:href="#ArialMT-6f"/>
     <use x="405.761719" xlink:href="#ArialMT-72"/>
     <use x="439.0625" xlink:href="#ArialMT-73"/>
     <use x="489.0625" xlink:href="#ArialMT-20"/>
     <use x="516.845703" xlink:href="#ArialMT-61"/>
     <use x="572.460938" xlink:href="#ArialMT-6d"/>
     <use x="655.761719" xlink:href="#ArialMT-6f"/>
     <use x="711.376953" xlink:href="#ArialMT-75"/>
     <use x="766.992188" xlink:href="#ArialMT-6e"/>
     <use x="822.607422" xlink:href="#ArialMT-74"/>
     <use x="850.390625" xlink:href="#ArialMT-20"/>
     <use x="878.173828" xlink:href="#ArialMT-3d"/>
     <use x="936.572266" xlink:href="#ArialMT-20"/>
     <use x="964.355469" xlink:href="#ArialMT-34"/>
    </g>
   </g>
   <g id="PathCollection_16">
    <defs>
     <path d="M 0 -3.383948 
L -0.759744 -1.045697 
L -3.218326 -1.045697 
L -1.229291 0.399421 
L -1.989035 2.737672 
L -0 1.292553 
L 1.989035 2.737672 
L 1.229291 0.399421 
L 3.218326 -1.045697 
L 0.759744 -1.045697 
z
" id="C5_0_2be20c0cc4"/>
    </defs>
    <g clip-path="url(#p3931abfbbd)">
     <use style="fill:#57d3db;stroke:#57d3db;stroke-width:2.025;" x="630.607366" xlink:href="#C5_0_2be20c0cc4" y="196.922848"/>
    </g>
    <g clip-path="url(#p3931abfbbd)">
     <use style="fill:#57d3db;stroke:#57d3db;stroke-width:2.025;" x="692.218663" xlink:href="#C5_0_2be20c0cc4" y="196.162565"/>
    </g>
    <g clip-path="url(#p3931abfbbd)">
     <use style="fill:#57d3db;stroke:#57d3db;stroke-width:2.025;" x="753.82996" xlink:href="#C5_0_2be20c0cc4" y="188.499431"/>
    </g>
    <g clip-path="url(#p3931abfbbd)">
     <use style="fill:#57d3db;stroke:#57d3db;stroke-width:2.025;" x="815.441257" xlink:href="#C5_0_2be20c0cc4" y="109.501833"/>
    </g>
   </g>
   <g id="line2d_112">
    <path clip-path="url(#p3931abfbbd)" d="M 630.607366 196.922848 
L 692.218663 196.162565 
L 753.82996 188.499431 
L 815.441257 109.501833 
" style="fill:none;stroke:#57d3db;stroke-linecap:round;stroke-width:2.7;"/>
   </g>
   <g id="line2d_113">
    <path clip-path="url(#p3931abfbbd)" d="M 0 0 
" style="fill:none;stroke:#57d3db;stroke-linecap:round;stroke-width:2.7;"/>
   </g>
   <g id="line2d_114">
    <path clip-path="url(#p3931abfbbd)" d="M 0 0 
" style="fill:none;stroke:#57d3db;stroke-linecap:round;stroke-width:2.7;"/>
   </g>
   <g id="line2d_115">
    <path clip-path="url(#p3931abfbbd)" d="M 0 0 
" style="fill:none;stroke:#57d3db;stroke-linecap:round;stroke-width:2.7;"/>
   </g>
   <g id="line2d_116">
    <path clip-path="url(#p3931abfbbd)" d="M 0 0 
" style="fill:none;stroke:#57d3db;stroke-linecap:round;stroke-width:2.7;"/>
   </g>
   <g id="PathCollection_17">
    <path clip-path="url(#p3931abfbbd)" d="M 627.223418 200.327818 
L 633.991314 193.559922 
M 627.223418 193.559922 
L 633.991314 200.327818 
" style="fill:#5f57db;stroke:#5f57db;stroke-width:2.025;"/>
    <path clip-path="url(#p3931abfbbd)" d="M 688.834715 199.817249 
L 695.602611 193.049352 
M 688.834715 193.049352 
L 695.602611 199.817249 
" style="fill:#5f57db;stroke:#5f57db;stroke-width:2.025;"/>
    <path clip-path="url(#p3931abfbbd)" d="M 750.446012 194.643418 
L 757.213908 187.875522 
M 750.446012 187.875522 
L 757.213908 194.643418 
" style="fill:#5f57db;stroke:#5f57db;stroke-width:2.025;"/>
    <path clip-path="url(#p3931abfbbd)" d="M 812.057308 141.301156 
L 818.825205 134.53326 
M 812.057308 134.53326 
L 818.825205 141.301156 
" style="fill:#5f57db;stroke:#5f57db;stroke-width:2.025;"/>
   </g>
   <g id="line2d_117">
    <path clip-path="url(#p3931abfbbd)" d="M 630.607366 196.94387 
L 692.218663 196.433301 
L 753.82996 191.25947 
L 815.441257 137.917208 
" style="fill:none;stroke:#5f57db;stroke-linecap:round;stroke-width:2.7;"/>
   </g>
   <g id="line2d_118">
    <path clip-path="url(#p3931abfbbd)" d="M 0 0 
" style="fill:none;stroke:#5f57db;stroke-linecap:round;stroke-width:2.7;"/>
   </g>
   <g id="line2d_119">
    <path clip-path="url(#p3931abfbbd)" d="M 0 0 
" style="fill:none;stroke:#5f57db;stroke-linecap:round;stroke-width:2.7;"/>
   </g>
   <g id="line2d_120">
    <path clip-path="url(#p3931abfbbd)" d="M 0 0 
" style="fill:none;stroke:#5f57db;stroke-linecap:round;stroke-width:2.7;"/>
   </g>
   <g id="line2d_121">
    <path clip-path="url(#p3931abfbbd)" d="M 0 0 
" style="fill:none;stroke:#5f57db;stroke-linecap:round;stroke-width:2.7;"/>
   </g>
   <g id="PathCollection_18">
    <path clip-path="url(#p3931abfbbd)" d="M 627.223418 196.942681 
L 633.991314 196.942681 
M 630.607366 200.326629 
L 630.607366 193.558733 
" style="fill:#db57d3;stroke:#db57d3;stroke-width:2.025;"/>
    <path clip-path="url(#p3931abfbbd)" d="M 688.834715 196.331795 
L 695.602611 196.331795 
M 692.218663 199.715743 
L 692.218663 192.947847 
" style="fill:#db57d3;stroke:#db57d3;stroke-width:2.025;"/>
    <path clip-path="url(#p3931abfbbd)" d="M 750.446012 190.031525 
L 757.213908 190.031525 
M 753.82996 193.415474 
L 753.82996 186.647577 
" style="fill:#db57d3;stroke:#db57d3;stroke-width:2.025;"/>
    <path clip-path="url(#p3931abfbbd)" d="M 812.057308 124.776417 
L 818.825205 124.776417 
M 815.441257 128.160365 
L 815.441257 121.392468 
" style="fill:#db57d3;stroke:#db57d3;stroke-width:2.025;"/>
   </g>
   <g id="line2d_122">
    <path clip-path="url(#p3931abfbbd)" d="M 630.607366 196.942681 
L 692.218663 196.331795 
L 753.82996 190.031525 
L 815.441257 124.776417 
" style="fill:none;stroke:#db57d3;stroke-linecap:round;stroke-width:2.7;"/>
   </g>
   <g id="line2d_123">
    <path clip-path="url(#p3931abfbbd)" d="M 0 0 
" style="fill:none;stroke:#db57d3;stroke-linecap:round;stroke-width:2.7;"/>
   </g>
   <g id="line2d_124">
    <path clip-path="url(#p3931abfbbd)" d="M 0 0 
" style="fill:none;stroke:#db57d3;stroke-linecap:round;stroke-width:2.7;"/>
   </g>
   <g id="line2d_125">
    <path clip-path="url(#p3931abfbbd)" d="M 0 0 
" style="fill:none;stroke:#db57d3;stroke-linecap:round;stroke-width:2.7;"/>
   </g>
   <g id="line2d_126">
    <path clip-path="url(#p3931abfbbd)" d="M 0 0 
" style="fill:none;stroke:#db57d3;stroke-linecap:round;stroke-width:2.7;"/>
   </g>
  </g>
  <g id="axes_4">
   <g id="patch_11">
    <path d="M 866.898077 207.258 
L 1113.343264 207.258 
L 1113.343264 25.85 
L 866.898077 25.85 
z
" style="fill:#ffffff;"/>
   </g>
   <g id="matplotlib.axis_7">
    <g id="xtick_13">
     <g id="line2d_127"/>
     <g id="text_24">
      <!-- 100 -->
      <g style="fill:#262626;" transform="translate(884.357475 229.9105)scale(0.16 -0.16)">
       <use xlink:href="#ArialMT-31"/>
       <use x="55.615234" xlink:href="#ArialMT-30"/>
       <use x="111.230469" xlink:href="#ArialMT-30"/>
      </g>
     </g>
    </g>
    <g id="xtick_14">
     <g id="line2d_128"/>
     <g id="text_25">
      <!-- 1000 -->
      <g style="fill:#262626;" transform="translate(941.520022 229.9105)scale(0.16 -0.16)">
       <use xlink:href="#ArialMT-31"/>
       <use x="55.615234" xlink:href="#ArialMT-30"/>
       <use x="111.230469" xlink:href="#ArialMT-30"/>
       <use x="166.845703" xlink:href="#ArialMT-30"/>
      </g>
     </g>
    </g>
    <g id="xtick_15">
     <g id="line2d_129"/>
     <g id="text_26">
      <!-- 10000 -->
      <g style="fill:#262626;" transform="translate(998.682569 229.9105)scale(0.16 -0.16)">
       <use xlink:href="#ArialMT-31"/>
       <use x="55.615234" xlink:href="#ArialMT-30"/>
       <use x="111.230469" xlink:href="#ArialMT-30"/>
       <use x="166.845703" xlink:href="#ArialMT-30"/>
       <use x="222.460938" xlink:href="#ArialMT-30"/>
      </g>
     </g>
    </g>
    <g id="xtick_16">
     <g id="line2d_130"/>
     <g id="text_27">
      <!-- 100000 -->
      <g style="fill:#262626;" transform="translate(1055.845116 229.9105)scale(0.16 -0.16)">
       <use xlink:href="#ArialMT-31"/>
       <use x="55.615234" xlink:href="#ArialMT-30"/>
       <use x="111.230469" xlink:href="#ArialMT-30"/>
       <use x="166.845703" xlink:href="#ArialMT-30"/>
       <use x="222.460938" xlink:href="#ArialMT-30"/>
       <use x="278.076172" xlink:href="#ArialMT-30"/>
      </g>
     </g>
    </g>
    <g id="text_28">
     <!-- iteration limit -->
     <g style="fill:#262626;" transform="translate(940.73067 249.68825)scale(0.176 -0.176)">
      <use xlink:href="#ArialMT-69"/>
      <use x="22.216797" xlink:href="#ArialMT-74"/>
      <use x="50" xlink:href="#ArialMT-65"/>
      <use x="105.615234" xlink:href="#ArialMT-72"/>
      <use x="138.916016" xlink:href="#ArialMT-61"/>
      <use x="194.53125" xlink:href="#ArialMT-74"/>
      <use x="222.314453" xlink:href="#ArialMT-69"/>
      <use x="244.53125" xlink:href="#ArialMT-6f"/>
      <use x="300.146484" xlink:href="#ArialMT-6e"/>
      <use x="355.761719" xlink:href="#ArialMT-20"/>
      <use x="383.544922" xlink:href="#ArialMT-6c"/>
      <use x="405.761719" xlink:href="#ArialMT-69"/>
      <use x="427.978516" xlink:href="#ArialMT-6d"/>
      <use x="511.279297" xlink:href="#ArialMT-69"/>
      <use x="533.496094" xlink:href="#ArialMT-74"/>
     </g>
    </g>
   </g>
   <g id="matplotlib.axis_8">
    <g id="ytick_13">
     <g id="line2d_131">
      <path clip-path="url(#pc514e2db7f)" d="M 866.898077 197.02522 
L 1113.343264 197.02522 
" style="fill:none;stroke:#cccccc;stroke-linecap:round;stroke-width:1.6;"/>
     </g>
     <g id="line2d_132"/>
    </g>
    <g id="ytick_14">
     <g id="line2d_133">
      <path clip-path="url(#pc514e2db7f)" d="M 866.898077 144.343344 
L 1113.343264 144.343344 
" style="fill:none;stroke:#cccccc;stroke-linecap:round;stroke-width:1.6;"/>
     </g>
     <g id="line2d_134"/>
    </g>
    <g id="ytick_15">
     <g id="line2d_135">
      <path clip-path="url(#pc514e2db7f)" d="M 866.898077 91.661467 
L 1113.343264 91.661467 
" style="fill:none;stroke:#cccccc;stroke-linecap:round;stroke-width:1.6;"/>
     </g>
     <g id="line2d_136"/>
    </g>
    <g id="ytick_16">
     <g id="line2d_137">
      <path clip-path="url(#pc514e2db7f)" d="M 866.898077 38.979591 
L 1113.343264 38.979591 
" style="fill:none;stroke:#cccccc;stroke-linecap:round;stroke-width:1.6;"/>
     </g>
     <g id="line2d_138"/>
    </g>
   </g>
   <g id="PathCollection_19">
    <path clip-path="url(#pc514e2db7f)" d="M 894.319777 200.191537 
L 901.087673 200.191537 
L 901.087673 193.42364 
L 894.319777 193.42364 
z
" style="fill:#db5f57;stroke:#db5f57;stroke-width:2.025;"/>
    <path clip-path="url(#pc514e2db7f)" d="M 955.931074 198.753001 
L 962.69897 198.753001 
L 962.69897 191.985105 
L 955.931074 191.985105 
z
" style="fill:#db5f57;stroke:#db5f57;stroke-width:2.025;"/>
    <path clip-path="url(#pc514e2db7f)" d="M 1017.542371 184.42914 
L 1024.310267 184.42914 
L 1024.310267 177.661243 
L 1017.542371 177.661243 
z
" style="fill:#db5f57;stroke:#db5f57;stroke-width:2.025;"/>
    <path clip-path="url(#pc514e2db7f)" d="M 1079.153667 41.135524 
L 1085.921564 41.135524 
L 1085.921564 34.367628 
L 1079.153667 34.367628 
z
" style="fill:#db5f57;stroke:#db5f57;stroke-width:2.025;"/>
   </g>
   <g id="line2d_139">
    <path clip-path="url(#pc514e2db7f)" d="M 897.703725 196.807588 
L 959.315022 195.369053 
L 1020.926319 181.045191 
L 1082.537616 37.751576 
" style="fill:none;stroke:#db5f57;stroke-linecap:round;stroke-width:2.7;"/>
   </g>
   <g id="line2d_140">
    <path clip-path="url(#pc514e2db7f)" d="M 0 0 
" style="fill:none;stroke:#db5f57;stroke-linecap:round;stroke-width:2.7;"/>
   </g>
   <g id="line2d_141">
    <path clip-path="url(#pc514e2db7f)" d="M 0 0 
" style="fill:none;stroke:#db5f57;stroke-linecap:round;stroke-width:2.7;"/>
   </g>
   <g id="line2d_142">
    <path clip-path="url(#pc514e2db7f)" d="M 0 0 
" style="fill:none;stroke:#db5f57;stroke-linecap:round;stroke-width:2.7;"/>
   </g>
   <g id="line2d_143">
    <path clip-path="url(#pc514e2db7f)" d="M 0 0 
" style="fill:none;stroke:#db5f57;stroke-linecap:round;stroke-width:2.7;"/>
   </g>
   <g id="PathCollection_20">
    <defs>
     <path d="M 0 3.383948 
C 0.897434 3.383948 1.758231 3.027394 2.392813 2.392813 
C 3.027394 1.758231 3.383948 0.897434 3.383948 0 
C 3.383948 -0.897434 3.027394 -1.758231 2.392813 -2.392813 
C 1.758231 -3.027394 0.897434 -3.383948 0 -3.383948 
C -0.897434 -3.383948 -1.758231 -3.027394 -2.392813 -2.392813 
C -3.027394 -1.758231 -3.383948 -0.897434 -3.383948 0 
C -3.383948 0.897434 -3.027394 1.758231 -2.392813 2.392813 
C -1.758231 3.027394 -0.897434 3.383948 0 3.383948 
z
" id="C6_0_d847533d52"/>
    </defs>
    <g clip-path="url(#pc514e2db7f)">
     <use style="fill:#d3db57;stroke:#d3db57;stroke-width:2.025;" x="897.703725" xlink:href="#C6_0_d847533d52" y="196.909409"/>
    </g>
    <g clip-path="url(#pc514e2db7f)">
     <use style="fill:#d3db57;stroke:#d3db57;stroke-width:2.025;" x="959.315022" xlink:href="#C6_0_d847533d52" y="195.92288"/>
    </g>
    <g clip-path="url(#pc514e2db7f)">
     <use style="fill:#d3db57;stroke:#d3db57;stroke-width:2.025;" x="1020.926319" xlink:href="#C6_0_d847533d52" y="186.849733"/>
    </g>
    <g clip-path="url(#pc514e2db7f)">
     <use style="fill:#d3db57;stroke:#d3db57;stroke-width:2.025;" x="1082.537616" xlink:href="#C6_0_d847533d52" y="71.131867"/>
    </g>
   </g>
   <g id="line2d_144">
    <path clip-path="url(#pc514e2db7f)" d="M 897.703725 196.909409 
L 959.315022 195.92288 
L 1020.926319 186.849733 
L 1082.537616 71.131867 
" style="fill:none;stroke:#d3db57;stroke-linecap:round;stroke-width:2.7;"/>
   </g>
   <g id="line2d_145">
    <path clip-path="url(#pc514e2db7f)" d="M 0 0 
" style="fill:none;stroke:#d3db57;stroke-linecap:round;stroke-width:2.7;"/>
   </g>
   <g id="line2d_146">
    <path clip-path="url(#pc514e2db7f)" d="M 0 0 
" style="fill:none;stroke:#d3db57;stroke-linecap:round;stroke-width:2.7;"/>
   </g>
   <g id="line2d_147">
    <path clip-path="url(#pc514e2db7f)" d="M 0 0 
" style="fill:none;stroke:#d3db57;stroke-linecap:round;stroke-width:2.7;"/>
   </g>
   <g id="line2d_148">
    <path clip-path="url(#pc514e2db7f)" d="M 0 0 
" style="fill:none;stroke:#d3db57;stroke-linecap:round;stroke-width:2.7;"/>
   </g>
   <g id="patch_12">
    <path d="M 866.898077 207.258 
L 866.898077 25.85 
" style="fill:none;stroke:#cccccc;stroke-linecap:square;stroke-linejoin:miter;stroke-width:1.5;"/>
   </g>
   <g id="patch_13">
    <path d="M 866.898077 207.258 
L 1113.343264 207.258 
" style="fill:none;stroke:#cccccc;stroke-linecap:square;stroke-linejoin:miter;stroke-width:1.5;"/>
   </g>
   <g id="PathCollection_21">
    <path clip-path="url(#pc514e2db7f)" d="M 897.703725 200.269231 
L 901.087673 193.501335 
L 894.319777 193.501335 
z
" style="fill:#57db5f;stroke:#57db5f;stroke-width:2.025;"/>
    <path clip-path="url(#pc514e2db7f)" d="M 959.315022 199.120415 
L 962.69897 192.352519 
L 955.931074 192.352519 
z
" style="fill:#57db5f;stroke:#57db5f;stroke-width:2.025;"/>
    <path clip-path="url(#pc514e2db7f)" d="M 1020.926319 187.343501 
L 1024.310267 180.575605 
L 1017.542371 180.575605 
z
" style="fill:#57db5f;stroke:#57db5f;stroke-width:2.025;"/>
    <path clip-path="url(#pc514e2db7f)" d="M 1082.537616 72.802425 
L 1085.921564 66.034528 
L 1079.153667 66.034528 
z
" style="fill:#57db5f;stroke:#57db5f;stroke-width:2.025;"/>
   </g>
   <g id="line2d_149">
    <path clip-path="url(#pc514e2db7f)" d="M 897.703725 196.885283 
L 959.315022 195.736467 
L 1020.926319 183.959553 
L 1082.537616 69.418476 
" style="fill:none;stroke:#57db5f;stroke-linecap:round;stroke-width:2.7;"/>
   </g>
   <g id="line2d_150">
    <path clip-path="url(#pc514e2db7f)" d="M 0 0 
" style="fill:none;stroke:#57db5f;stroke-linecap:round;stroke-width:2.7;"/>
   </g>
   <g id="line2d_151">
    <path clip-path="url(#pc514e2db7f)" d="M 0 0 
" style="fill:none;stroke:#57db5f;stroke-linecap:round;stroke-width:2.7;"/>
   </g>
   <g id="line2d_152">
    <path clip-path="url(#pc514e2db7f)" d="M 0 0 
" style="fill:none;stroke:#57db5f;stroke-linecap:round;stroke-width:2.7;"/>
   </g>
   <g id="line2d_153">
    <path clip-path="url(#pc514e2db7f)" d="M 0 0 
" style="fill:none;stroke:#57db5f;stroke-linecap:round;stroke-width:2.7;"/>
   </g>
   <g id="text_29">
    <!-- processors amount = 8 -->
    <defs>
     <path d="M 17.671875 38.8125 
Q 12.203125 40.828125 9.5625 44.53125 
Q 6.9375 48.25 6.9375 53.421875 
Q 6.9375 61.234375 12.546875 66.546875 
Q 18.171875 71.875 27.484375 71.875 
Q 36.859375 71.875 42.578125 66.421875 
Q 48.296875 60.984375 48.296875 53.171875 
Q 48.296875 48.1875 45.671875 44.5 
Q 43.0625 40.828125 37.75 38.8125 
Q 44.34375 36.671875 47.78125 31.875 
Q 51.21875 27.09375 51.21875 20.453125 
Q 51.21875 11.28125 44.71875 5.03125 
Q 38.234375 -1.21875 27.640625 -1.21875 
Q 17.046875 -1.21875 10.546875 5.046875 
Q 4.046875 11.328125 4.046875 20.703125 
Q 4.046875 27.6875 7.59375 32.390625 
Q 11.140625 37.109375 17.671875 38.8125 
z
M 15.921875 53.71875 
Q 15.921875 48.640625 19.1875 45.40625 
Q 22.46875 42.1875 27.6875 42.1875 
Q 32.765625 42.1875 36.015625 45.375 
Q 39.265625 48.578125 39.265625 53.21875 
Q 39.265625 58.0625 35.90625 61.359375 
Q 32.5625 64.65625 27.59375 64.65625 
Q 22.5625 64.65625 19.234375 61.421875 
Q 15.921875 58.203125 15.921875 53.71875 
z
M 13.09375 20.65625 
Q 13.09375 16.890625 14.875 13.375 
Q 16.65625 9.859375 20.171875 7.921875 
Q 23.6875 6 27.734375 6 
Q 34.03125 6 38.125 10.046875 
Q 42.234375 14.109375 42.234375 20.359375 
Q 42.234375 26.703125 38.015625 30.859375 
Q 33.796875 35.015625 27.4375 35.015625 
Q 21.234375 35.015625 17.15625 30.90625 
Q 13.09375 26.8125 13.09375 20.65625 
z
" id="ArialMT-38"/>
    </defs>
    <g style="fill:#262626;" transform="translate(900.36892 19.85)scale(0.176 -0.176)">
     <use xlink:href="#ArialMT-70"/>
     <use x="55.615234" xlink:href="#ArialMT-72"/>
     <use x="88.916016" xlink:href="#ArialMT-6f"/>
     <use x="144.53125" xlink:href="#ArialMT-63"/>
     <use x="194.53125" xlink:href="#ArialMT-65"/>
     <use x="250.146484" xlink:href="#ArialMT-73"/>
     <use x="300.146484" xlink:href="#ArialMT-73"/>
     <use x="350.146484" xlink:href="#ArialMT-6f"/>
     <use x="405.761719" xlink:href="#ArialMT-72"/>
     <use x="439.0625" xlink:href="#ArialMT-73"/>
     <use x="489.0625" xlink:href="#ArialMT-20"/>
     <use x="516.845703" xlink:href="#ArialMT-61"/>
     <use x="572.460938" xlink:href="#ArialMT-6d"/>
     <use x="655.761719" xlink:href="#ArialMT-6f"/>
     <use x="711.376953" xlink:href="#ArialMT-75"/>
     <use x="766.992188" xlink:href="#ArialMT-6e"/>
     <use x="822.607422" xlink:href="#ArialMT-74"/>
     <use x="850.390625" xlink:href="#ArialMT-20"/>
     <use x="878.173828" xlink:href="#ArialMT-3d"/>
     <use x="936.572266" xlink:href="#ArialMT-20"/>
     <use x="964.355469" xlink:href="#ArialMT-38"/>
    </g>
   </g>
   <g id="PathCollection_22">
    <defs>
     <path d="M 0 -3.383948 
L -0.759744 -1.045697 
L -3.218326 -1.045697 
L -1.229291 0.399421 
L -1.989035 2.737672 
L -0 1.292553 
L 1.989035 2.737672 
L 1.229291 0.399421 
L 3.218326 -1.045697 
L 0.759744 -1.045697 
z
" id="C7_0_7c911a82d2"/>
    </defs>
    <g clip-path="url(#pc514e2db7f)">
     <use style="fill:#57d3db;stroke:#57d3db;stroke-width:2.025;" x="897.703725" xlink:href="#C7_0_7c911a82d2" y="196.947008"/>
    </g>
    <g clip-path="url(#pc514e2db7f)">
     <use style="fill:#57d3db;stroke:#57d3db;stroke-width:2.025;" x="959.315022" xlink:href="#C7_0_7c911a82d2" y="196.388804"/>
    </g>
    <g clip-path="url(#pc514e2db7f)">
     <use style="fill:#57d3db;stroke:#57d3db;stroke-width:2.025;" x="1020.926319" xlink:href="#C7_0_7c911a82d2" y="190.772917"/>
    </g>
    <g clip-path="url(#pc514e2db7f)">
     <use style="fill:#57d3db;stroke:#57d3db;stroke-width:2.025;" x="1082.537616" xlink:href="#C7_0_7c911a82d2" y="132.431971"/>
    </g>
   </g>
   <g id="line2d_154">
    <path clip-path="url(#pc514e2db7f)" d="M 897.703725 196.947008 
L 959.315022 196.388804 
L 1020.926319 190.772917 
L 1082.537616 132.431971 
" style="fill:none;stroke:#57d3db;stroke-linecap:round;stroke-width:2.7;"/>
   </g>
   <g id="line2d_155">
    <path clip-path="url(#pc514e2db7f)" d="M 0 0 
" style="fill:none;stroke:#57d3db;stroke-linecap:round;stroke-width:2.7;"/>
   </g>
   <g id="line2d_156">
    <path clip-path="url(#pc514e2db7f)" d="M 0 0 
" style="fill:none;stroke:#57d3db;stroke-linecap:round;stroke-width:2.7;"/>
   </g>
   <g id="line2d_157">
    <path clip-path="url(#pc514e2db7f)" d="M 0 0 
" style="fill:none;stroke:#57d3db;stroke-linecap:round;stroke-width:2.7;"/>
   </g>
   <g id="line2d_158">
    <path clip-path="url(#pc514e2db7f)" d="M 0 0 
" style="fill:none;stroke:#57d3db;stroke-linecap:round;stroke-width:2.7;"/>
   </g>
   <g id="PathCollection_23">
    <path clip-path="url(#pc514e2db7f)" d="M 894.319777 200.342153 
L 901.087673 193.574256 
M 894.319777 193.574256 
L 901.087673 200.342153 
" style="fill:#5f57db;stroke:#5f57db;stroke-width:2.025;"/>
    <path clip-path="url(#pc514e2db7f)" d="M 955.931074 199.866809 
L 962.69897 193.098912 
M 955.931074 193.098912 
L 962.69897 199.866809 
" style="fill:#5f57db;stroke:#5f57db;stroke-width:2.025;"/>
    <path clip-path="url(#pc514e2db7f)" d="M 1017.542371 194.956945 
L 1024.310267 188.189049 
M 1017.542371 188.189049 
L 1024.310267 194.956945 
" style="fill:#5f57db;stroke:#5f57db;stroke-width:2.025;"/>
    <path clip-path="url(#pc514e2db7f)" d="M 1079.153667 142.580448 
L 1085.921564 135.812552 
M 1079.153667 135.812552 
L 1085.921564 142.580448 
" style="fill:#5f57db;stroke:#5f57db;stroke-width:2.025;"/>
   </g>
   <g id="line2d_159">
    <path clip-path="url(#pc514e2db7f)" d="M 897.703725 196.958204 
L 959.315022 196.482861 
L 1020.926319 191.572997 
L 1082.537616 139.1965 
" style="fill:none;stroke:#5f57db;stroke-linecap:round;stroke-width:2.7;"/>
   </g>
   <g id="line2d_160">
    <path clip-path="url(#pc514e2db7f)" d="M 0 0 
" style="fill:none;stroke:#5f57db;stroke-linecap:round;stroke-width:2.7;"/>
   </g>
   <g id="line2d_161">
    <path clip-path="url(#pc514e2db7f)" d="M 0 0 
" style="fill:none;stroke:#5f57db;stroke-linecap:round;stroke-width:2.7;"/>
   </g>
   <g id="line2d_162">
    <path clip-path="url(#pc514e2db7f)" d="M 0 0 
" style="fill:none;stroke:#5f57db;stroke-linecap:round;stroke-width:2.7;"/>
   </g>
   <g id="line2d_163">
    <path clip-path="url(#pc514e2db7f)" d="M 0 0 
" style="fill:none;stroke:#5f57db;stroke-linecap:round;stroke-width:2.7;"/>
   </g>
   <g id="PathCollection_24">
    <path clip-path="url(#pc514e2db7f)" d="M 894.319777 196.952732 
L 901.087673 196.952732 
M 897.703725 200.33668 
L 897.703725 193.568784 
" style="fill:#db57d3;stroke:#db57d3;stroke-width:2.025;"/>
    <path clip-path="url(#pc514e2db7f)" d="M 955.931074 196.452507 
L 962.69897 196.452507 
M 959.315022 199.836455 
L 959.315022 193.068558 
" style="fill:#db57d3;stroke:#db57d3;stroke-width:2.025;"/>
    <path clip-path="url(#pc514e2db7f)" d="M 1017.542371 191.308991 
L 1024.310267 191.308991 
M 1020.926319 194.692939 
L 1020.926319 187.925042 
" style="fill:#db57d3;stroke:#db57d3;stroke-width:2.025;"/>
    <path clip-path="url(#pc514e2db7f)" d="M 1079.153667 135.437824 
L 1085.921564 135.437824 
M 1082.537616 138.821772 
L 1082.537616 132.053875 
" style="fill:#db57d3;stroke:#db57d3;stroke-width:2.025;"/>
   </g>
   <g id="line2d_164">
    <path clip-path="url(#pc514e2db7f)" d="M 897.703725 196.952732 
L 959.315022 196.452507 
L 1020.926319 191.308991 
L 1082.537616 135.437824 
" style="fill:none;stroke:#db57d3;stroke-linecap:round;stroke-width:2.7;"/>
   </g>
   <g id="line2d_165">
    <path clip-path="url(#pc514e2db7f)" d="M 0 0 
" style="fill:none;stroke:#db57d3;stroke-linecap:round;stroke-width:2.7;"/>
   </g>
   <g id="line2d_166">
    <path clip-path="url(#pc514e2db7f)" d="M 0 0 
" style="fill:none;stroke:#db57d3;stroke-linecap:round;stroke-width:2.7;"/>
   </g>
   <g id="line2d_167">
    <path clip-path="url(#pc514e2db7f)" d="M 0 0 
" style="fill:none;stroke:#db57d3;stroke-linecap:round;stroke-width:2.7;"/>
   </g>
   <g id="line2d_168">
    <path clip-path="url(#pc514e2db7f)" d="M 0 0 
" style="fill:none;stroke:#db57d3;stroke-linecap:round;stroke-width:2.7;"/>
   </g>
  </g>
  <g id="legend_1">
   <g id="patch_14">
    <path d="M 1121.219564 212.302569 
L 1286.209564 212.302569 
Q 1289.409564 212.302569 1289.409564 209.102569 
L 1289.409564 51.283681 
Q 1289.409564 48.083681 1286.209564 48.083681 
L 1121.219564 48.083681 
Q 1118.019564 48.083681 1118.019564 51.283681 
L 1118.019564 209.102569 
Q 1118.019564 212.302569 1121.219564 212.302569 
z
" style="fill:#ffffff;opacity:0.8;stroke:#cccccc;stroke-linejoin:miter;stroke-width:0.48;"/>
   </g>
   <g id="text_30">
    <!-- implementation -->
    <g style="fill:#262626;" transform="translate(1152.99432 65.191769)scale(0.1496 -0.1496)">
     <use xlink:href="#ArialMT-69"/>
     <use x="22.216797" xlink:href="#ArialMT-6d"/>
     <use x="105.517578" xlink:href="#ArialMT-70"/>
     <use x="161.132812" xlink:href="#ArialMT-6c"/>
     <use x="183.349609" xlink:href="#ArialMT-65"/>
     <use x="238.964844" xlink:href="#ArialMT-6d"/>
     <use x="322.265625" xlink:href="#ArialMT-65"/>
     <use x="377.880859" xlink:href="#ArialMT-6e"/>
     <use x="433.496094" xlink:href="#ArialMT-74"/>
     <use x="461.279297" xlink:href="#ArialMT-61"/>
     <use x="516.894531" xlink:href="#ArialMT-74"/>
     <use x="544.677734" xlink:href="#ArialMT-69"/>
     <use x="566.894531" xlink:href="#ArialMT-6f"/>
     <use x="622.509766" xlink:href="#ArialMT-6e"/>
    </g>
   </g>
   <g id="PathCollection_25">
    <path d="M 1137.035616 86.801517 
L 1143.803512 86.801517 
L 1143.803512 80.033621 
L 1137.035616 80.033621 
z
" style="fill:#db5f57;stroke:#db5f57;stroke-width:2.025;"/>
   </g>
   <g id="text_31">
    <!-- sequential -->
    <defs>
     <path d="M 39.65625 -19.875 
L 39.65625 5.515625 
Q 37.59375 2.640625 33.90625 0.734375 
Q 30.21875 -1.171875 26.078125 -1.171875 
Q 16.84375 -1.171875 10.171875 6.203125 
Q 3.515625 13.578125 3.515625 26.421875 
Q 3.515625 34.234375 6.21875 40.421875 
Q 8.9375 46.625 14.078125 49.828125 
Q 19.234375 53.03125 25.390625 53.03125 
Q 35.015625 53.03125 40.53125 44.921875 
L 40.53125 51.859375 
L 48.4375 51.859375 
L 48.4375 -19.875 
z
M 12.546875 26.078125 
Q 12.546875 16.0625 16.75 11.0625 
Q 20.953125 6.0625 26.8125 6.0625 
Q 32.421875 6.0625 36.46875 10.8125 
Q 40.53125 15.578125 40.53125 25.296875 
Q 40.53125 35.640625 36.25 40.859375 
Q 31.984375 46.09375 26.21875 46.09375 
Q 20.515625 46.09375 16.53125 41.234375 
Q 12.546875 36.375 12.546875 26.078125 
z
" id="ArialMT-71"/>
    </defs>
    <g style="fill:#262626;" transform="translate(1169.219564 87.617569)scale(0.16 -0.16)">
     <use xlink:href="#ArialMT-73"/>
     <use x="50" xlink:href="#ArialMT-65"/>
     <use x="105.615234" xlink:href="#ArialMT-71"/>
     <use x="161.230469" xlink:href="#ArialMT-75"/>
     <use x="216.845703" xlink:href="#ArialMT-65"/>
     <use x="272.460938" xlink:href="#ArialMT-6e"/>
     <use x="328.076172" xlink:href="#ArialMT-74"/>
     <use x="355.859375" xlink:href="#ArialMT-69"/>
     <use x="378.076172" xlink:href="#ArialMT-61"/>
     <use x="433.691406" xlink:href="#ArialMT-6c"/>
    </g>
   </g>
   <g id="PathCollection_26">
    <path d="M 1140.419564 109.629017 
C 1141.316997 109.629017 1142.177795 109.272463 1142.812377 108.637881 
C 1143.446958 108.0033 1143.803512 107.142502 1143.803512 106.245069 
C 1143.803512 105.347635 1143.446958 104.486837 1142.812377 103.852256 
C 1142.177795 103.217675 1141.316997 102.861121 1140.419564 102.861121 
C 1139.52213 102.861121 1138.661333 103.217675 1138.026751 103.852256 
C 1137.39217 104.486837 1137.035616 105.347635 1137.035616 106.245069 
C 1137.035616 107.142502 1137.39217 108.0033 1138.026751 108.637881 
C 1138.661333 109.272463 1139.52213 109.629017 1140.419564 109.629017 
z
" style="fill:#d3db57;stroke:#d3db57;stroke-width:2.025;"/>
   </g>
   <g id="text_32">
    <!-- MPI (send-recv) -->
    <defs>
     <path d="M 7.421875 0 
L 7.421875 71.578125 
L 21.6875 71.578125 
L 38.625 20.90625 
Q 40.96875 13.8125 42.046875 10.296875 
Q 43.265625 14.203125 45.84375 21.78125 
L 62.984375 71.578125 
L 75.734375 71.578125 
L 75.734375 0 
L 66.609375 0 
L 66.609375 59.90625 
L 45.796875 0 
L 37.25 0 
L 16.546875 60.9375 
L 16.546875 0 
z
" id="ArialMT-4d"/>
     <path d="M 7.71875 0 
L 7.71875 71.578125 
L 34.71875 71.578125 
Q 41.84375 71.578125 45.609375 70.90625 
Q 50.875 70.015625 54.4375 67.546875 
Q 58.015625 65.09375 60.1875 60.640625 
Q 62.359375 56.203125 62.359375 50.875 
Q 62.359375 41.75 56.546875 35.421875 
Q 50.734375 29.109375 35.546875 29.109375 
L 17.1875 29.109375 
L 17.1875 0 
z
M 17.1875 37.546875 
L 35.6875 37.546875 
Q 44.875 37.546875 48.734375 40.96875 
Q 52.59375 44.390625 52.59375 50.59375 
Q 52.59375 55.078125 50.3125 58.265625 
Q 48.046875 61.46875 44.34375 62.5 
Q 41.9375 63.140625 35.5 63.140625 
L 17.1875 63.140625 
z
" id="ArialMT-50"/>
     <path d="M 9.328125 0 
L 9.328125 71.578125 
L 18.796875 71.578125 
L 18.796875 0 
z
" id="ArialMT-49"/>
     <path d="M 3.171875 21.484375 
L 3.171875 30.328125 
L 30.171875 30.328125 
L 30.171875 21.484375 
z
" id="ArialMT-2d"/>
     <path d="M 21 0 
L 1.265625 51.859375 
L 10.546875 51.859375 
L 21.6875 20.796875 
Q 23.484375 15.765625 25 10.359375 
Q 26.171875 14.453125 28.265625 20.21875 
L 39.796875 51.859375 
L 48.828125 51.859375 
L 29.203125 0 
z
" id="ArialMT-76"/>
    </defs>
    <g style="fill:#262626;" transform="translate(1169.219564 110.445069)scale(0.16 -0.16)">
     <use xlink:href="#ArialMT-4d"/>
     <use x="83.300781" xlink:href="#ArialMT-50"/>
     <use x="150" xlink:href="#ArialMT-49"/>
     <use x="177.783203" xlink:href="#ArialMT-20"/>
     <use x="205.566406" xlink:href="#ArialMT-28"/>
     <use x="238.867188" xlink:href="#ArialMT-73"/>
     <use x="288.867188" xlink:href="#ArialMT-65"/>
     <use x="344.482422" xlink:href="#ArialMT-6e"/>
     <use x="400.097656" xlink:href="#ArialMT-64"/>
     <use x="455.712891" xlink:href="#ArialMT-2d"/>
     <use x="489.013672" xlink:href="#ArialMT-72"/>
     <use x="522.314453" xlink:href="#ArialMT-65"/>
     <use x="577.929688" xlink:href="#ArialMT-63"/>
     <use x="627.929688" xlink:href="#ArialMT-76"/>
     <use x="677.929688" xlink:href="#ArialMT-29"/>
    </g>
   </g>
   <g id="PathCollection_27">
    <path d="M 1140.419564 132.644017 
L 1143.803512 125.876121 
L 1137.035616 125.876121 
z
" style="fill:#57db5f;stroke:#57db5f;stroke-width:2.025;"/>
   </g>
   <g id="text_33">
    <!-- MPI (gather) -->
    <defs>
     <path d="M 4.984375 -4.296875 
L 13.53125 -5.5625 
Q 14.0625 -9.515625 16.5 -11.328125 
Q 19.78125 -13.765625 25.4375 -13.765625 
Q 31.546875 -13.765625 34.859375 -11.328125 
Q 38.1875 -8.890625 39.359375 -4.5 
Q 40.046875 -1.8125 39.984375 6.78125 
Q 34.234375 0 25.640625 0 
Q 14.9375 0 9.078125 7.71875 
Q 3.21875 15.4375 3.21875 26.21875 
Q 3.21875 33.640625 5.90625 39.90625 
Q 8.59375 46.1875 13.6875 49.609375 
Q 18.796875 53.03125 25.6875 53.03125 
Q 34.859375 53.03125 40.828125 45.609375 
L 40.828125 51.859375 
L 48.921875 51.859375 
L 48.921875 7.03125 
Q 48.921875 -5.078125 46.453125 -10.125 
Q 44 -15.1875 38.640625 -18.109375 
Q 33.296875 -21.046875 25.484375 -21.046875 
Q 16.21875 -21.046875 10.5 -16.875 
Q 4.78125 -12.703125 4.984375 -4.296875 
z
M 12.25 26.859375 
Q 12.25 16.65625 16.296875 11.96875 
Q 20.359375 7.28125 26.46875 7.28125 
Q 32.515625 7.28125 36.609375 11.9375 
Q 40.71875 16.609375 40.71875 26.5625 
Q 40.71875 36.078125 36.5 40.90625 
Q 32.28125 45.75 26.3125 45.75 
Q 20.453125 45.75 16.34375 40.984375 
Q 12.25 36.234375 12.25 26.859375 
z
" id="ArialMT-67"/>
     <path d="M 6.59375 0 
L 6.59375 71.578125 
L 15.375 71.578125 
L 15.375 45.90625 
Q 21.53125 53.03125 30.90625 53.03125 
Q 36.671875 53.03125 40.921875 50.75 
Q 45.171875 48.484375 47 44.484375 
Q 48.828125 40.484375 48.828125 32.859375 
L 48.828125 0 
L 40.046875 0 
L 40.046875 32.859375 
Q 40.046875 39.453125 37.1875 42.453125 
Q 34.328125 45.453125 29.109375 45.453125 
Q 25.203125 45.453125 21.75 43.421875 
Q 18.3125 41.40625 16.84375 37.9375 
Q 15.375 34.46875 15.375 28.375 
L 15.375 0 
z
" id="ArialMT-68"/>
    </defs>
    <g style="fill:#262626;" transform="translate(1169.219564 133.460069)scale(0.16 -0.16)">
     <use xlink:href="#ArialMT-4d"/>
     <use x="83.300781" xlink:href="#ArialMT-50"/>
     <use x="150" xlink:href="#ArialMT-49"/>
     <use x="177.783203" xlink:href="#ArialMT-20"/>
     <use x="205.566406" xlink:href="#ArialMT-28"/>
     <use x="238.867188" xlink:href="#ArialMT-67"/>
     <use x="294.482422" xlink:href="#ArialMT-61"/>
     <use x="350.097656" xlink:href="#ArialMT-74"/>
     <use x="377.880859" xlink:href="#ArialMT-68"/>
     <use x="433.496094" xlink:href="#ArialMT-65"/>
     <use x="489.111328" xlink:href="#ArialMT-72"/>
     <use x="522.412109" xlink:href="#ArialMT-29"/>
    </g>
   </g>
   <g id="PathCollection_28">
    <path d="M 1140.419564 148.901121 
L 1139.65982 151.239371 
L 1137.201238 151.239371 
L 1139.190273 152.68449 
L 1138.430529 155.02274 
L 1140.419564 153.577622 
L 1142.408599 155.02274 
L 1141.648855 152.68449 
L 1143.63789 151.239371 
L 1141.179308 151.239371 
z
" style="fill:#57d3db;stroke:#57d3db;stroke-width:2.025;"/>
   </g>
   <g id="text_34">
    <!-- OMP (static) -->
    <defs>
     <path d="M 4.828125 34.859375 
Q 4.828125 52.6875 14.390625 62.765625 
Q 23.96875 72.859375 39.109375 72.859375 
Q 49.03125 72.859375 56.984375 68.109375 
Q 64.9375 63.375 69.109375 54.90625 
Q 73.296875 46.4375 73.296875 35.6875 
Q 73.296875 24.8125 68.890625 16.21875 
Q 64.5 7.625 56.4375 3.203125 
Q 48.390625 -1.21875 39.0625 -1.21875 
Q 28.953125 -1.21875 20.984375 3.65625 
Q 13.03125 8.546875 8.921875 16.984375 
Q 4.828125 25.4375 4.828125 34.859375 
z
M 14.59375 34.71875 
Q 14.59375 21.78125 21.546875 14.328125 
Q 28.515625 6.890625 39.015625 6.890625 
Q 49.703125 6.890625 56.609375 14.40625 
Q 63.53125 21.921875 63.53125 35.75 
Q 63.53125 44.484375 60.578125 51 
Q 57.625 57.515625 51.921875 61.109375 
Q 46.234375 64.703125 39.15625 64.703125 
Q 29.109375 64.703125 21.84375 57.78125 
Q 14.59375 50.875 14.59375 34.71875 
z
" id="ArialMT-4f"/>
    </defs>
    <g style="fill:#262626;" transform="translate(1169.219564 156.485069)scale(0.16 -0.16)">
     <use xlink:href="#ArialMT-4f"/>
     <use x="77.783203" xlink:href="#ArialMT-4d"/>
     <use x="161.083984" xlink:href="#ArialMT-50"/>
     <use x="227.767578" xlink:href="#ArialMT-20"/>
     <use x="255.550781" xlink:href="#ArialMT-28"/>
     <use x="288.851562" xlink:href="#ArialMT-73"/>
     <use x="338.851562" xlink:href="#ArialMT-74"/>
     <use x="366.634766" xlink:href="#ArialMT-61"/>
     <use x="422.25" xlink:href="#ArialMT-74"/>
     <use x="450.033203" xlink:href="#ArialMT-69"/>
     <use x="472.25" xlink:href="#ArialMT-63"/>
     <use x="522.25" xlink:href="#ArialMT-29"/>
    </g>
   </g>
   <g id="PathCollection_29">
    <path d="M 1137.035616 178.694017 
L 1143.803512 171.926121 
M 1137.035616 171.926121 
L 1143.803512 178.694017 
" style="fill:#5f57db;stroke:#5f57db;stroke-width:2.025;"/>
   </g>
   <g id="text_35">
    <!-- OMP (dynamic) -->
    <defs>
     <path d="M 6.203125 -19.96875 
L 5.21875 -11.71875 
Q 8.109375 -12.5 10.25 -12.5 
Q 13.1875 -12.5 14.9375 -11.515625 
Q 16.703125 -10.546875 17.828125 -8.796875 
Q 18.65625 -7.46875 20.515625 -2.25 
Q 20.75 -1.515625 21.296875 -0.09375 
L 1.609375 51.859375 
L 11.078125 51.859375 
L 21.875 21.828125 
Q 23.96875 16.109375 25.640625 9.8125 
Q 27.15625 15.875 29.25 21.625 
L 40.328125 51.859375 
L 49.125 51.859375 
L 29.390625 -0.875 
Q 26.21875 -9.421875 24.46875 -12.640625 
Q 22.125 -17 19.09375 -19.015625 
Q 16.0625 -21.046875 11.859375 -21.046875 
Q 9.328125 -21.046875 6.203125 -19.96875 
z
" id="ArialMT-79"/>
    </defs>
    <g style="fill:#262626;" transform="translate(1169.219564 179.510069)scale(0.16 -0.16)">
     <use xlink:href="#ArialMT-4f"/>
     <use x="77.783203" xlink:href="#ArialMT-4d"/>
     <use x="161.083984" xlink:href="#ArialMT-50"/>
     <use x="227.767578" xlink:href="#ArialMT-20"/>
     <use x="255.550781" xlink:href="#ArialMT-28"/>
     <use x="288.851562" xlink:href="#ArialMT-64"/>
     <use x="344.466797" xlink:href="#ArialMT-79"/>
     <use x="394.466797" xlink:href="#ArialMT-6e"/>
     <use x="450.082031" xlink:href="#ArialMT-61"/>
     <use x="505.697266" xlink:href="#ArialMT-6d"/>
     <use x="588.998047" xlink:href="#ArialMT-69"/>
     <use x="611.214844" xlink:href="#ArialMT-63"/>
     <use x="661.214844" xlink:href="#ArialMT-29"/>
    </g>
   </g>
   <g id="PathCollection_30">
    <path d="M 1137.035616 198.335069 
L 1143.803512 198.335069 
M 1140.419564 201.719017 
L 1140.419564 194.951121 
" style="fill:#db57d3;stroke:#db57d3;stroke-width:2.025;"/>
   </g>
   <g id="text_36">
    <!-- OMP (guided) -->
    <g style="fill:#262626;" transform="translate(1169.219564 202.535069)scale(0.16 -0.16)">
     <use xlink:href="#ArialMT-4f"/>
     <use x="77.783203" xlink:href="#ArialMT-4d"/>
     <use x="161.083984" xlink:href="#ArialMT-50"/>
     <use x="227.767578" xlink:href="#ArialMT-20"/>
     <use x="255.550781" xlink:href="#ArialMT-28"/>
     <use x="288.851562" xlink:href="#ArialMT-67"/>
     <use x="344.466797" xlink:href="#ArialMT-75"/>
     <use x="400.082031" xlink:href="#ArialMT-69"/>
     <use x="422.298828" xlink:href="#ArialMT-64"/>
     <use x="477.914062" xlink:href="#ArialMT-65"/>
     <use x="533.529297" xlink:href="#ArialMT-64"/>
     <use x="589.144531" xlink:href="#ArialMT-29"/>
    </g>
   </g>
  </g>
 </g>
 <defs>
  <clipPath id="p71d220ba29">
   <rect height="181.408" width="246.445187" x="65.609" y="25.85"/>
  </clipPath>
  <clipPath id="p5c02f9e4fb">
   <rect height="181.408" width="246.445187" x="332.705359" y="25.85"/>
  </clipPath>
  <clipPath id="p3931abfbbd">
   <rect height="181.408" width="246.445187" x="599.801718" y="25.85"/>
  </clipPath>
  <clipPath id="pc514e2db7f">
   <rect height="181.408" width="246.445187" x="866.898077" y="25.85"/>
  </clipPath>
 </defs>
</svg>
