<?xml version="1.0" encoding="utf-8" standalone="no"?>
<!DOCTYPE svg PUBLIC "-//W3C//DTD SVG 1.1//EN"
  "http://www.w3.org/Graphics/SVG/1.1/DTD/svg11.dtd">
<!-- Created with matplotlib (http://matplotlib.org/) -->
<svg height="260pt" version="1.1" viewBox="0 0 1284 260" width="1284pt" xmlns="http://www.w3.org/2000/svg" xmlns:xlink="http://www.w3.org/1999/xlink">
 <defs>
  <style type="text/css">
*{stroke-linecap:butt;stroke-linejoin:round;}
  </style>
 </defs>
 <g id="figure_1">
  <g id="patch_1">
   <path d="M 0 260.38625 
L 1284.364244 260.38625 
L 1284.364244 0 
L 0 0 
z
" style="fill:#ffffff;"/>
  </g>
  <g id="axes_1">
   <g id="patch_2">
    <path d="M 47.39325 207.258 
L 295.120905 207.258 
L 295.120905 25.85 
L 47.39325 25.85 
z
" style="fill:#ffffff;"/>
   </g>
   <g id="matplotlib.axis_1">
    <g id="xtick_1">
     <g id="line2d_1"/>
     <g id="text_1">
      <!-- 100 -->
      <defs>
       <path d="M 37.25 0 
L 28.46875 0 
L 28.46875 56 
Q 25.296875 52.984375 20.140625 49.953125 
Q 14.984375 46.921875 10.890625 45.40625 
L 10.890625 53.90625 
Q 18.265625 57.375 23.78125 62.296875 
Q 29.296875 67.234375 31.59375 71.875 
L 37.25 71.875 
z
" id="ArialMT-31"/>
       <path d="M 4.15625 35.296875 
Q 4.15625 48 6.765625 55.734375 
Q 9.375 63.484375 14.515625 67.671875 
Q 19.671875 71.875 27.484375 71.875 
Q 33.25 71.875 37.59375 69.546875 
Q 41.9375 67.234375 44.765625 62.859375 
Q 47.609375 58.5 49.21875 52.21875 
Q 50.828125 45.953125 50.828125 35.296875 
Q 50.828125 22.703125 48.234375 14.96875 
Q 45.65625 7.234375 40.5 3 
Q 35.359375 -1.21875 27.484375 -1.21875 
Q 17.140625 -1.21875 11.234375 6.203125 
Q 4.15625 15.140625 4.15625 35.296875 
z
M 13.1875 35.296875 
Q 13.1875 17.671875 17.3125 11.828125 
Q 21.4375 6 27.484375 6 
Q 33.546875 6 37.671875 11.859375 
Q 41.796875 17.71875 41.796875 35.296875 
Q 41.796875 52.984375 37.671875 58.78125 
Q 33.546875 64.59375 27.390625 64.59375 
Q 21.34375 64.59375 17.71875 59.46875 
Q 13.1875 52.9375 13.1875 35.296875 
z
" id="ArialMT-30"/>
      </defs>
      <g style="fill:#262626;" transform="translate(65.012957 229.9105)scale(0.16 -0.16)">
       <use xlink:href="#ArialMT-31"/>
       <use x="55.615234" xlink:href="#ArialMT-30"/>
       <use x="111.230469" xlink:href="#ArialMT-30"/>
      </g>
     </g>
    </g>
    <g id="xtick_2">
     <g id="line2d_2"/>
     <g id="text_2">
      <!-- 1000 -->
      <g style="fill:#262626;" transform="translate(122.496121 229.9105)scale(0.16 -0.16)">
       <use xlink:href="#ArialMT-31"/>
       <use x="55.615234" xlink:href="#ArialMT-30"/>
       <use x="111.230469" xlink:href="#ArialMT-30"/>
       <use x="166.845703" xlink:href="#ArialMT-30"/>
      </g>
     </g>
    </g>
    <g id="xtick_3">
     <g id="line2d_3"/>
     <g id="text_3">
      <!-- 10000 -->
      <g style="fill:#262626;" transform="translate(179.979284 229.9105)scale(0.16 -0.16)">
       <use xlink:href="#ArialMT-31"/>
       <use x="55.615234" xlink:href="#ArialMT-30"/>
       <use x="111.230469" xlink:href="#ArialMT-30"/>
       <use x="166.845703" xlink:href="#ArialMT-30"/>
       <use x="222.460938" xlink:href="#ArialMT-30"/>
      </g>
     </g>
    </g>
    <g id="xtick_4">
     <g id="line2d_4"/>
     <g id="text_4">
      <!-- 100000 -->
      <g style="fill:#262626;" transform="translate(237.462448 229.9105)scale(0.16 -0.16)">
       <use xlink:href="#ArialMT-31"/>
       <use x="55.615234" xlink:href="#ArialMT-30"/>
       <use x="111.230469" xlink:href="#ArialMT-30"/>
       <use x="166.845703" xlink:href="#ArialMT-30"/>
       <use x="222.460938" xlink:href="#ArialMT-30"/>
       <use x="278.076172" xlink:href="#ArialMT-30"/>
      </g>
     </g>
    </g>
    <g id="text_5">
     <!-- iteration limit -->
     <defs>
      <path d="M 6.640625 61.46875 
L 6.640625 71.578125 
L 15.4375 71.578125 
L 15.4375 61.46875 
z
M 6.640625 0 
L 6.640625 51.859375 
L 15.4375 51.859375 
L 15.4375 0 
z
" id="ArialMT-69"/>
      <path d="M 25.78125 7.859375 
L 27.046875 0.09375 
Q 23.34375 -0.6875 20.40625 -0.6875 
Q 15.625 -0.6875 12.984375 0.828125 
Q 10.359375 2.34375 9.28125 4.8125 
Q 8.203125 7.28125 8.203125 15.1875 
L 8.203125 45.015625 
L 1.765625 45.015625 
L 1.765625 51.859375 
L 8.203125 51.859375 
L 8.203125 64.703125 
L 16.9375 69.96875 
L 16.9375 51.859375 
L 25.78125 51.859375 
L 25.78125 45.015625 
L 16.9375 45.015625 
L 16.9375 14.703125 
Q 16.9375 10.9375 17.40625 9.859375 
Q 17.875 8.796875 18.921875 8.15625 
Q 19.96875 7.515625 21.921875 7.515625 
Q 23.390625 7.515625 25.78125 7.859375 
z
" id="ArialMT-74"/>
      <path d="M 42.09375 16.703125 
L 51.171875 15.578125 
Q 49.03125 7.625 43.21875 3.21875 
Q 37.40625 -1.171875 28.375 -1.171875 
Q 17 -1.171875 10.328125 5.828125 
Q 3.65625 12.84375 3.65625 25.484375 
Q 3.65625 38.578125 10.390625 45.796875 
Q 17.140625 53.03125 27.875 53.03125 
Q 38.28125 53.03125 44.875 45.953125 
Q 51.46875 38.875 51.46875 26.03125 
Q 51.46875 25.25 51.421875 23.6875 
L 12.75 23.6875 
Q 13.234375 15.140625 17.578125 10.59375 
Q 21.921875 6.0625 28.421875 6.0625 
Q 33.25 6.0625 36.671875 8.59375 
Q 40.09375 11.140625 42.09375 16.703125 
z
M 13.234375 30.90625 
L 42.1875 30.90625 
Q 41.609375 37.453125 38.875 40.71875 
Q 34.671875 45.796875 27.984375 45.796875 
Q 21.921875 45.796875 17.796875 41.75 
Q 13.671875 37.703125 13.234375 30.90625 
z
" id="ArialMT-65"/>
      <path d="M 6.5 0 
L 6.5 51.859375 
L 14.40625 51.859375 
L 14.40625 44 
Q 17.4375 49.515625 20 51.265625 
Q 22.5625 53.03125 25.640625 53.03125 
Q 30.078125 53.03125 34.671875 50.203125 
L 31.640625 42.046875 
Q 28.421875 43.953125 25.203125 43.953125 
Q 22.3125 43.953125 20.015625 42.21875 
Q 17.71875 40.484375 16.75 37.40625 
Q 15.28125 32.71875 15.28125 27.15625 
L 15.28125 0 
z
" id="ArialMT-72"/>
      <path d="M 40.4375 6.390625 
Q 35.546875 2.25 31.03125 0.53125 
Q 26.515625 -1.171875 21.34375 -1.171875 
Q 12.796875 -1.171875 8.203125 3 
Q 3.609375 7.171875 3.609375 13.671875 
Q 3.609375 17.484375 5.34375 20.625 
Q 7.078125 23.78125 9.890625 25.6875 
Q 12.703125 27.59375 16.21875 28.5625 
Q 18.796875 29.25 24.03125 29.890625 
Q 34.671875 31.15625 39.703125 32.90625 
Q 39.75 34.71875 39.75 35.203125 
Q 39.75 40.578125 37.25 42.78125 
Q 33.890625 45.75 27.25 45.75 
Q 21.046875 45.75 18.09375 43.578125 
Q 15.140625 41.40625 13.71875 35.890625 
L 5.125 37.0625 
Q 6.296875 42.578125 8.984375 45.96875 
Q 11.671875 49.359375 16.75 51.1875 
Q 21.828125 53.03125 28.515625 53.03125 
Q 35.15625 53.03125 39.296875 51.46875 
Q 43.453125 49.90625 45.40625 47.53125 
Q 47.359375 45.171875 48.140625 41.546875 
Q 48.578125 39.3125 48.578125 33.453125 
L 48.578125 21.734375 
Q 48.578125 9.46875 49.140625 6.21875 
Q 49.703125 2.984375 51.375 0 
L 42.1875 0 
Q 40.828125 2.734375 40.4375 6.390625 
z
M 39.703125 26.03125 
Q 34.90625 24.078125 25.34375 22.703125 
Q 19.921875 21.921875 17.671875 20.9375 
Q 15.4375 19.96875 14.203125 18.09375 
Q 12.984375 16.21875 12.984375 13.921875 
Q 12.984375 10.40625 15.640625 8.0625 
Q 18.3125 5.71875 23.4375 5.71875 
Q 28.515625 5.71875 32.46875 7.9375 
Q 36.421875 10.15625 38.28125 14.015625 
Q 39.703125 17 39.703125 22.796875 
z
" id="ArialMT-61"/>
      <path d="M 3.328125 25.921875 
Q 3.328125 40.328125 11.328125 47.265625 
Q 18.015625 53.03125 27.640625 53.03125 
Q 38.328125 53.03125 45.109375 46.015625 
Q 51.90625 39.015625 51.90625 26.65625 
Q 51.90625 16.65625 48.90625 10.90625 
Q 45.90625 5.171875 40.15625 2 
Q 34.421875 -1.171875 27.640625 -1.171875 
Q 16.75 -1.171875 10.03125 5.8125 
Q 3.328125 12.796875 3.328125 25.921875 
z
M 12.359375 25.921875 
Q 12.359375 15.96875 16.703125 11.015625 
Q 21.046875 6.0625 27.640625 6.0625 
Q 34.1875 6.0625 38.53125 11.03125 
Q 42.875 16.015625 42.875 26.21875 
Q 42.875 35.84375 38.5 40.796875 
Q 34.125 45.75 27.640625 45.75 
Q 21.046875 45.75 16.703125 40.8125 
Q 12.359375 35.890625 12.359375 25.921875 
z
" id="ArialMT-6f"/>
      <path d="M 6.59375 0 
L 6.59375 51.859375 
L 14.5 51.859375 
L 14.5 44.484375 
Q 20.21875 53.03125 31 53.03125 
Q 35.6875 53.03125 39.625 51.34375 
Q 43.5625 49.65625 45.515625 46.921875 
Q 47.46875 44.1875 48.25 40.4375 
Q 48.734375 37.984375 48.734375 31.890625 
L 48.734375 0 
L 39.9375 0 
L 39.9375 31.546875 
Q 39.9375 36.921875 38.90625 39.578125 
Q 37.890625 42.234375 35.28125 43.8125 
Q 32.671875 45.40625 29.15625 45.40625 
Q 23.53125 45.40625 19.453125 41.84375 
Q 15.375 38.28125 15.375 28.328125 
L 15.375 0 
z
" id="ArialMT-6e"/>
      <path id="ArialMT-20"/>
      <path d="M 6.390625 0 
L 6.390625 71.578125 
L 15.1875 71.578125 
L 15.1875 0 
z
" id="ArialMT-6c"/>
      <path d="M 6.59375 0 
L 6.59375 51.859375 
L 14.453125 51.859375 
L 14.453125 44.578125 
Q 16.890625 48.390625 20.9375 50.703125 
Q 25 53.03125 30.171875 53.03125 
Q 35.9375 53.03125 39.625 50.640625 
Q 43.3125 48.25 44.828125 43.953125 
Q 50.984375 53.03125 60.84375 53.03125 
Q 68.5625 53.03125 72.703125 48.75 
Q 76.859375 44.484375 76.859375 35.59375 
L 76.859375 0 
L 68.109375 0 
L 68.109375 32.671875 
Q 68.109375 37.9375 67.25 40.25 
Q 66.40625 42.578125 64.15625 43.984375 
Q 61.921875 45.40625 58.890625 45.40625 
Q 53.421875 45.40625 49.796875 41.765625 
Q 46.1875 38.140625 46.1875 30.125 
L 46.1875 0 
L 37.40625 0 
L 37.40625 33.6875 
Q 37.40625 39.546875 35.25 42.46875 
Q 33.109375 45.40625 28.21875 45.40625 
Q 24.515625 45.40625 21.359375 43.453125 
Q 18.21875 41.5 16.796875 37.734375 
Q 15.375 33.984375 15.375 26.90625 
L 15.375 0 
z
" id="ArialMT-6d"/>
     </defs>
     <g style="fill:#262626;" transform="translate(121.867077 249.68825)scale(0.176 -0.176)">
      <use xlink:href="#ArialMT-69"/>
      <use x="22.216797" xlink:href="#ArialMT-74"/>
      <use x="50" xlink:href="#ArialMT-65"/>
      <use x="105.615234" xlink:href="#ArialMT-72"/>
      <use x="138.916016" xlink:href="#ArialMT-61"/>
      <use x="194.53125" xlink:href="#ArialMT-74"/>
      <use x="222.314453" xlink:href="#ArialMT-69"/>
      <use x="244.53125" xlink:href="#ArialMT-6f"/>
      <use x="300.146484" xlink:href="#ArialMT-6e"/>
      <use x="355.761719" xlink:href="#ArialMT-20"/>
      <use x="383.544922" xlink:href="#ArialMT-6c"/>
      <use x="405.761719" xlink:href="#ArialMT-69"/>
      <use x="427.978516" xlink:href="#ArialMT-6d"/>
      <use x="511.279297" xlink:href="#ArialMT-69"/>
      <use x="533.496094" xlink:href="#ArialMT-74"/>
     </g>
    </g>
   </g>
   <g id="matplotlib.axis_2">
    <g id="ytick_1">
     <g id="line2d_5">
      <path clip-path="url(#pa865f17080)" d="M 47.39325 195.983177 
L 295.120905 195.983177 
" style="fill:none;stroke:#cccccc;stroke-linecap:round;stroke-width:1.6;"/>
     </g>
     <g id="line2d_6"/>
     <g id="text_6">
      <!-- 1 -->
      <g style="fill:#262626;" transform="translate(27.29575 201.709427)scale(0.16 -0.16)">
       <use xlink:href="#ArialMT-31"/>
      </g>
     </g>
    </g>
    <g id="ytick_2">
     <g id="line2d_7">
      <path clip-path="url(#pa865f17080)" d="M 47.39325 124.855011 
L 295.120905 124.855011 
" style="fill:none;stroke:#cccccc;stroke-linecap:round;stroke-width:1.6;"/>
     </g>
     <g id="line2d_8"/>
     <g id="text_7">
      <!-- 2 -->
      <defs>
       <path d="M 50.34375 8.453125 
L 50.34375 0 
L 3.03125 0 
Q 2.9375 3.171875 4.046875 6.109375 
Q 5.859375 10.9375 9.828125 15.625 
Q 13.8125 20.3125 21.34375 26.46875 
Q 33.015625 36.03125 37.109375 41.625 
Q 41.21875 47.21875 41.21875 52.203125 
Q 41.21875 57.421875 37.46875 61 
Q 33.734375 64.59375 27.734375 64.59375 
Q 21.390625 64.59375 17.578125 60.78125 
Q 13.765625 56.984375 13.71875 50.25 
L 4.6875 51.171875 
Q 5.609375 61.28125 11.65625 66.578125 
Q 17.71875 71.875 27.9375 71.875 
Q 38.234375 71.875 44.234375 66.15625 
Q 50.25 60.453125 50.25 52 
Q 50.25 47.703125 48.484375 43.546875 
Q 46.734375 39.40625 42.65625 34.8125 
Q 38.578125 30.21875 29.109375 22.21875 
Q 21.1875 15.578125 18.9375 13.203125 
Q 16.703125 10.84375 15.234375 8.453125 
z
" id="ArialMT-32"/>
      </defs>
      <g style="fill:#262626;" transform="translate(27.29575 130.581261)scale(0.16 -0.16)">
       <use xlink:href="#ArialMT-32"/>
      </g>
     </g>
    </g>
    <g id="ytick_3">
     <g id="line2d_9">
      <path clip-path="url(#pa865f17080)" d="M 47.39325 53.726846 
L 295.120905 53.726846 
" style="fill:none;stroke:#cccccc;stroke-linecap:round;stroke-width:1.6;"/>
     </g>
     <g id="line2d_10"/>
     <g id="text_8">
      <!-- 3 -->
      <defs>
       <path d="M 4.203125 18.890625 
L 12.984375 20.0625 
Q 14.5 12.59375 18.140625 9.296875 
Q 21.78125 6 27 6 
Q 33.203125 6 37.46875 10.296875 
Q 41.75 14.59375 41.75 20.953125 
Q 41.75 27 37.796875 30.921875 
Q 33.84375 34.859375 27.734375 34.859375 
Q 25.25 34.859375 21.53125 33.890625 
L 22.515625 41.609375 
Q 23.390625 41.5 23.921875 41.5 
Q 29.546875 41.5 34.03125 44.421875 
Q 38.53125 47.359375 38.53125 53.46875 
Q 38.53125 58.296875 35.25 61.46875 
Q 31.984375 64.65625 26.8125 64.65625 
Q 21.6875 64.65625 18.265625 61.421875 
Q 14.84375 58.203125 13.875 51.765625 
L 5.078125 53.328125 
Q 6.6875 62.15625 12.390625 67.015625 
Q 18.109375 71.875 26.609375 71.875 
Q 32.46875 71.875 37.390625 69.359375 
Q 42.328125 66.84375 44.9375 62.5 
Q 47.5625 58.15625 47.5625 53.265625 
Q 47.5625 48.640625 45.0625 44.828125 
Q 42.578125 41.015625 37.703125 38.765625 
Q 44.046875 37.3125 47.5625 32.6875 
Q 51.078125 28.078125 51.078125 21.140625 
Q 51.078125 11.765625 44.234375 5.25 
Q 37.40625 -1.265625 26.953125 -1.265625 
Q 17.53125 -1.265625 11.296875 4.34375 
Q 5.078125 9.96875 4.203125 18.890625 
z
" id="ArialMT-33"/>
      </defs>
      <g style="fill:#262626;" transform="translate(27.29575 59.453096)scale(0.16 -0.16)">
       <use xlink:href="#ArialMT-33"/>
      </g>
     </g>
    </g>
    <g id="text_9">
     <!-- speedup -->
     <defs>
      <path d="M 3.078125 15.484375 
L 11.765625 16.84375 
Q 12.5 11.625 15.84375 8.84375 
Q 19.1875 6.0625 25.203125 6.0625 
Q 31.25 6.0625 34.171875 8.515625 
Q 37.109375 10.984375 37.109375 14.3125 
Q 37.109375 17.28125 34.515625 19 
Q 32.71875 20.171875 25.53125 21.96875 
Q 15.875 24.421875 12.140625 26.203125 
Q 8.40625 27.984375 6.46875 31.125 
Q 4.546875 34.28125 4.546875 38.09375 
Q 4.546875 41.546875 6.125 44.5 
Q 7.71875 47.46875 10.453125 49.421875 
Q 12.5 50.921875 16.03125 51.96875 
Q 19.578125 53.03125 23.640625 53.03125 
Q 29.734375 53.03125 34.34375 51.265625 
Q 38.96875 49.515625 41.15625 46.5 
Q 43.359375 43.5 44.1875 38.484375 
L 35.59375 37.3125 
Q 35.015625 41.3125 32.203125 43.546875 
Q 29.390625 45.796875 24.265625 45.796875 
Q 18.21875 45.796875 15.625 43.796875 
Q 13.03125 41.796875 13.03125 39.109375 
Q 13.03125 37.40625 14.109375 36.03125 
Q 15.1875 34.625 17.484375 33.6875 
Q 18.796875 33.203125 25.25 31.453125 
Q 34.578125 28.953125 38.25 27.359375 
Q 41.9375 25.78125 44.03125 22.75 
Q 46.140625 19.734375 46.140625 15.234375 
Q 46.140625 10.84375 43.578125 6.953125 
Q 41.015625 3.078125 36.171875 0.953125 
Q 31.34375 -1.171875 25.25 -1.171875 
Q 15.140625 -1.171875 9.84375 3.03125 
Q 4.546875 7.234375 3.078125 15.484375 
z
" id="ArialMT-73"/>
      <path d="M 6.59375 -19.875 
L 6.59375 51.859375 
L 14.59375 51.859375 
L 14.59375 45.125 
Q 17.4375 49.078125 21 51.046875 
Q 24.5625 53.03125 29.640625 53.03125 
Q 36.28125 53.03125 41.359375 49.609375 
Q 46.4375 46.1875 49.015625 39.953125 
Q 51.609375 33.734375 51.609375 26.3125 
Q 51.609375 18.359375 48.75 11.984375 
Q 45.90625 5.609375 40.453125 2.21875 
Q 35.015625 -1.171875 29 -1.171875 
Q 24.609375 -1.171875 21.109375 0.6875 
Q 17.625 2.546875 15.375 5.375 
L 15.375 -19.875 
z
M 14.546875 25.640625 
Q 14.546875 15.625 18.59375 10.84375 
Q 22.65625 6.0625 28.421875 6.0625 
Q 34.28125 6.0625 38.453125 11.015625 
Q 42.625 15.96875 42.625 26.375 
Q 42.625 36.28125 38.546875 41.203125 
Q 34.46875 46.140625 28.8125 46.140625 
Q 23.1875 46.140625 18.859375 40.890625 
Q 14.546875 35.640625 14.546875 25.640625 
z
" id="ArialMT-70"/>
      <path d="M 40.234375 0 
L 40.234375 6.546875 
Q 35.296875 -1.171875 25.734375 -1.171875 
Q 19.53125 -1.171875 14.328125 2.25 
Q 9.125 5.671875 6.265625 11.796875 
Q 3.421875 17.921875 3.421875 25.875 
Q 3.421875 33.640625 6 39.96875 
Q 8.59375 46.296875 13.765625 49.65625 
Q 18.953125 53.03125 25.34375 53.03125 
Q 30.03125 53.03125 33.6875 51.046875 
Q 37.359375 49.078125 39.65625 45.90625 
L 39.65625 71.578125 
L 48.390625 71.578125 
L 48.390625 0 
z
M 12.453125 25.875 
Q 12.453125 15.921875 16.640625 10.984375 
Q 20.84375 6.0625 26.5625 6.0625 
Q 32.328125 6.0625 36.34375 10.765625 
Q 40.375 15.484375 40.375 25.140625 
Q 40.375 35.796875 36.265625 40.765625 
Q 32.171875 45.75 26.171875 45.75 
Q 20.3125 45.75 16.375 40.96875 
Q 12.453125 36.1875 12.453125 25.875 
z
" id="ArialMT-64"/>
      <path d="M 40.578125 0 
L 40.578125 7.625 
Q 34.515625 -1.171875 24.125 -1.171875 
Q 19.53125 -1.171875 15.546875 0.578125 
Q 11.578125 2.34375 9.640625 5 
Q 7.71875 7.671875 6.9375 11.53125 
Q 6.390625 14.109375 6.390625 19.734375 
L 6.390625 51.859375 
L 15.1875 51.859375 
L 15.1875 23.09375 
Q 15.1875 16.21875 15.71875 13.8125 
Q 16.546875 10.359375 19.234375 8.375 
Q 21.921875 6.390625 25.875 6.390625 
Q 29.828125 6.390625 33.296875 8.421875 
Q 36.765625 10.453125 38.203125 13.9375 
Q 39.65625 17.4375 39.65625 24.078125 
L 39.65625 51.859375 
L 48.4375 51.859375 
L 48.4375 0 
z
" id="ArialMT-75"/>
     </defs>
     <g style="fill:#262626;" transform="translate(19.79775 150.31575)rotate(-90)scale(0.176 -0.176)">
      <use xlink:href="#ArialMT-73"/>
      <use x="50" xlink:href="#ArialMT-70"/>
      <use x="105.615234" xlink:href="#ArialMT-65"/>
      <use x="161.230469" xlink:href="#ArialMT-65"/>
      <use x="216.845703" xlink:href="#ArialMT-64"/>
      <use x="272.460938" xlink:href="#ArialMT-75"/>
      <use x="328.076172" xlink:href="#ArialMT-70"/>
     </g>
    </g>
   </g>
   <g id="PathCollection_1">
    <path clip-path="url(#pa865f17080)" d="M 74.975259 199.367125 
L 81.743155 199.367125 
L 81.743155 192.599229 
L 74.975259 192.599229 
z
" style="fill:#db5f57;stroke:#db5f57;stroke-width:2.025;"/>
    <path clip-path="url(#pa865f17080)" d="M 136.907172 199.367125 
L 143.675069 199.367125 
L 143.675069 192.599229 
L 136.907172 192.599229 
z
" style="fill:#db5f57;stroke:#db5f57;stroke-width:2.025;"/>
    <path clip-path="url(#pa865f17080)" d="M 198.839086 199.367125 
L 205.606982 199.367125 
L 205.606982 192.599229 
L 198.839086 192.599229 
z
" style="fill:#db5f57;stroke:#db5f57;stroke-width:2.025;"/>
    <path clip-path="url(#pa865f17080)" d="M 260.771 199.367125 
L 267.538896 199.367125 
L 267.538896 192.599229 
L 260.771 192.599229 
z
" style="fill:#db5f57;stroke:#db5f57;stroke-width:2.025;"/>
   </g>
   <g id="line2d_11">
    <path clip-path="url(#pa865f17080)" d="M 78.359207 195.983177 
L 140.291121 195.983177 
L 202.223034 195.983177 
L 264.154948 195.983177 
" style="fill:none;stroke:#db5f57;stroke-linecap:round;stroke-width:2.7;"/>
   </g>
   <g id="line2d_12">
    <path clip-path="url(#pa865f17080)" d="M 0 0 
" style="fill:none;stroke:#db5f57;stroke-linecap:round;stroke-width:2.7;"/>
   </g>
   <g id="line2d_13">
    <path clip-path="url(#pa865f17080)" d="M 0 0 
" style="fill:none;stroke:#db5f57;stroke-linecap:round;stroke-width:2.7;"/>
   </g>
   <g id="line2d_14">
    <path clip-path="url(#pa865f17080)" d="M 0 0 
" style="fill:none;stroke:#db5f57;stroke-linecap:round;stroke-width:2.7;"/>
   </g>
   <g id="line2d_15">
    <path clip-path="url(#pa865f17080)" d="M 0 0 
" style="fill:none;stroke:#db5f57;stroke-linecap:round;stroke-width:2.7;"/>
   </g>
   <g id="PathCollection_2">
    <defs>
     <path d="M 0 3.383948 
C 0.897434 3.383948 1.758231 3.027394 2.392813 2.392813 
C 3.027394 1.758231 3.383948 0.897434 3.383948 0 
C 3.383948 -0.897434 3.027394 -1.758231 2.392813 -2.392813 
C 1.758231 -3.027394 0.897434 -3.383948 0 -3.383948 
C -0.897434 -3.383948 -1.758231 -3.027394 -2.392813 -2.392813 
C -3.027394 -1.758231 -3.383948 -0.897434 -3.383948 0 
C -3.383948 0.897434 -3.027394 1.758231 -2.392813 2.392813 
C -1.758231 3.027394 -0.897434 3.383948 0 3.383948 
z
" id="C0_0_d371daccd6"/>
    </defs>
    <g clip-path="url(#pa865f17080)">
     <use style="fill:#d3db57;stroke:#d3db57;stroke-width:2.025;" x="78.359207" xlink:href="#C0_0_d371daccd6" y="196.182631"/>
    </g>
    <g clip-path="url(#pa865f17080)">
     <use style="fill:#d3db57;stroke:#d3db57;stroke-width:2.025;" x="140.291121" xlink:href="#C0_0_d371daccd6" y="196.369249"/>
    </g>
    <g clip-path="url(#pa865f17080)">
     <use style="fill:#d3db57;stroke:#d3db57;stroke-width:2.025;" x="202.223034" xlink:href="#C0_0_d371daccd6" y="196.059227"/>
    </g>
    <g clip-path="url(#pa865f17080)">
     <use style="fill:#d3db57;stroke:#d3db57;stroke-width:2.025;" x="264.154948" xlink:href="#C0_0_d371daccd6" y="196.701641"/>
    </g>
   </g>
   <g id="line2d_16">
    <path clip-path="url(#pa865f17080)" d="M 78.359207 196.182631 
L 140.291121 196.369249 
L 202.223034 196.059227 
L 264.154948 196.701641 
" style="fill:none;stroke:#d3db57;stroke-linecap:round;stroke-width:2.7;"/>
   </g>
   <g id="line2d_17">
    <path clip-path="url(#pa865f17080)" d="M 0 0 
" style="fill:none;stroke:#d3db57;stroke-linecap:round;stroke-width:2.7;"/>
   </g>
   <g id="line2d_18">
    <path clip-path="url(#pa865f17080)" d="M 0 0 
" style="fill:none;stroke:#d3db57;stroke-linecap:round;stroke-width:2.7;"/>
   </g>
   <g id="line2d_19">
    <path clip-path="url(#pa865f17080)" d="M 0 0 
" style="fill:none;stroke:#d3db57;stroke-linecap:round;stroke-width:2.7;"/>
   </g>
   <g id="line2d_20">
    <path clip-path="url(#pa865f17080)" d="M 0 0 
" style="fill:none;stroke:#d3db57;stroke-linecap:round;stroke-width:2.7;"/>
   </g>
   <g id="patch_3">
    <path d="M 47.39325 207.258 
L 47.39325 25.85 
" style="fill:none;stroke:#cccccc;stroke-linecap:square;stroke-linejoin:miter;stroke-width:1.5;"/>
   </g>
   <g id="patch_4">
    <path d="M 47.39325 207.258 
L 295.120905 207.258 
" style="fill:none;stroke:#cccccc;stroke-linecap:square;stroke-linejoin:miter;stroke-width:1.5;"/>
   </g>
   <g id="PathCollection_3">
    <path clip-path="url(#pa865f17080)" d="M 78.359207 199.708574 
L 81.743155 192.940678 
L 74.975259 192.940678 
z
" style="fill:#57db5f;stroke:#57db5f;stroke-width:2.025;"/>
    <path clip-path="url(#pa865f17080)" d="M 140.291121 199.468795 
L 143.675069 192.700898 
L 136.907172 192.700898 
z
" style="fill:#57db5f;stroke:#57db5f;stroke-width:2.025;"/>
    <path clip-path="url(#pa865f17080)" d="M 202.223034 199.68732 
L 205.606982 192.919424 
L 198.839086 192.919424 
z
" style="fill:#57db5f;stroke:#57db5f;stroke-width:2.025;"/>
    <path clip-path="url(#pa865f17080)" d="M 264.154948 199.558819 
L 267.538896 192.790923 
L 260.771 192.790923 
z
" style="fill:#57db5f;stroke:#57db5f;stroke-width:2.025;"/>
   </g>
   <g id="line2d_21">
    <path clip-path="url(#pa865f17080)" d="M 78.359207 196.324626 
L 140.291121 196.084846 
L 202.223034 196.303372 
L 264.154948 196.174871 
" style="fill:none;stroke:#57db5f;stroke-linecap:round;stroke-width:2.7;"/>
   </g>
   <g id="line2d_22">
    <path clip-path="url(#pa865f17080)" d="M 0 0 
" style="fill:none;stroke:#57db5f;stroke-linecap:round;stroke-width:2.7;"/>
   </g>
   <g id="line2d_23">
    <path clip-path="url(#pa865f17080)" d="M 0 0 
" style="fill:none;stroke:#57db5f;stroke-linecap:round;stroke-width:2.7;"/>
   </g>
   <g id="line2d_24">
    <path clip-path="url(#pa865f17080)" d="M 0 0 
" style="fill:none;stroke:#57db5f;stroke-linecap:round;stroke-width:2.7;"/>
   </g>
   <g id="line2d_25">
    <path clip-path="url(#pa865f17080)" d="M 0 0 
" style="fill:none;stroke:#57db5f;stroke-linecap:round;stroke-width:2.7;"/>
   </g>
   <g id="text_10">
    <!-- processors amount = 1 -->
    <defs>
     <path d="M 40.4375 19 
L 49.078125 17.875 
Q 47.65625 8.9375 41.8125 3.875 
Q 35.984375 -1.171875 27.484375 -1.171875 
Q 16.84375 -1.171875 10.375 5.78125 
Q 3.90625 12.75 3.90625 25.734375 
Q 3.90625 34.125 6.6875 40.421875 
Q 9.46875 46.734375 15.15625 49.875 
Q 20.84375 53.03125 27.546875 53.03125 
Q 35.984375 53.03125 41.359375 48.75 
Q 46.734375 44.484375 48.25 36.625 
L 39.703125 35.296875 
Q 38.484375 40.53125 35.375 43.15625 
Q 32.28125 45.796875 27.875 45.796875 
Q 21.234375 45.796875 17.078125 41.03125 
Q 12.9375 36.28125 12.9375 25.984375 
Q 12.9375 15.53125 16.9375 10.796875 
Q 20.953125 6.0625 27.390625 6.0625 
Q 32.5625 6.0625 36.03125 9.234375 
Q 39.5 12.40625 40.4375 19 
z
" id="ArialMT-63"/>
     <path d="M 52.828125 42.09375 
L 5.5625 42.09375 
L 5.5625 50.296875 
L 52.828125 50.296875 
z
M 52.828125 20.359375 
L 5.5625 20.359375 
L 5.5625 28.5625 
L 52.828125 28.5625 
z
" id="ArialMT-3d"/>
    </defs>
    <g style="fill:#262626;" transform="translate(81.505327 19.85)scale(0.176 -0.176)">
     <use xlink:href="#ArialMT-70"/>
     <use x="55.615234" xlink:href="#ArialMT-72"/>
     <use x="88.916016" xlink:href="#ArialMT-6f"/>
     <use x="144.53125" xlink:href="#ArialMT-63"/>
     <use x="194.53125" xlink:href="#ArialMT-65"/>
     <use x="250.146484" xlink:href="#ArialMT-73"/>
     <use x="300.146484" xlink:href="#ArialMT-73"/>
     <use x="350.146484" xlink:href="#ArialMT-6f"/>
     <use x="405.761719" xlink:href="#ArialMT-72"/>
     <use x="439.0625" xlink:href="#ArialMT-73"/>
     <use x="489.0625" xlink:href="#ArialMT-20"/>
     <use x="516.845703" xlink:href="#ArialMT-61"/>
     <use x="572.460938" xlink:href="#ArialMT-6d"/>
     <use x="655.761719" xlink:href="#ArialMT-6f"/>
     <use x="711.376953" xlink:href="#ArialMT-75"/>
     <use x="766.992188" xlink:href="#ArialMT-6e"/>
     <use x="822.607422" xlink:href="#ArialMT-74"/>
     <use x="850.390625" xlink:href="#ArialMT-20"/>
     <use x="878.173828" xlink:href="#ArialMT-3d"/>
     <use x="936.572266" xlink:href="#ArialMT-20"/>
     <use x="964.355469" xlink:href="#ArialMT-31"/>
    </g>
   </g>
   <g id="PathCollection_4">
    <defs>
     <path d="M 0 -3.383948 
L -0.759744 -1.045697 
L -3.218326 -1.045697 
L -1.229291 0.399421 
L -1.989035 2.737672 
L -0 1.292553 
L 1.989035 2.737672 
L 1.229291 0.399421 
L 3.218326 -1.045697 
L 0.759744 -1.045697 
z
" id="C1_0_9f2745e6ec"/>
    </defs>
    <g clip-path="url(#pa865f17080)">
     <use style="fill:#57d3db;stroke:#57d3db;stroke-width:2.025;" x="78.359207" xlink:href="#C1_0_9f2745e6ec" y="196.038805"/>
    </g>
    <g clip-path="url(#pa865f17080)">
     <use style="fill:#57d3db;stroke:#57d3db;stroke-width:2.025;" x="140.291121" xlink:href="#C1_0_9f2745e6ec" y="198.428304"/>
    </g>
    <g clip-path="url(#pa865f17080)">
     <use style="fill:#57d3db;stroke:#57d3db;stroke-width:2.025;" x="202.223034" xlink:href="#C1_0_9f2745e6ec" y="195.904536"/>
    </g>
    <g clip-path="url(#pa865f17080)">
     <use style="fill:#57d3db;stroke:#57d3db;stroke-width:2.025;" x="264.154948" xlink:href="#C1_0_9f2745e6ec" y="196.585952"/>
    </g>
   </g>
   <g id="line2d_26">
    <path clip-path="url(#pa865f17080)" d="M 78.359207 196.038805 
L 140.291121 198.428304 
L 202.223034 195.904536 
L 264.154948 196.585952 
" style="fill:none;stroke:#57d3db;stroke-linecap:round;stroke-width:2.7;"/>
   </g>
   <g id="line2d_27">
    <path clip-path="url(#pa865f17080)" d="M 0 0 
" style="fill:none;stroke:#57d3db;stroke-linecap:round;stroke-width:2.7;"/>
   </g>
   <g id="line2d_28">
    <path clip-path="url(#pa865f17080)" d="M 0 0 
" style="fill:none;stroke:#57d3db;stroke-linecap:round;stroke-width:2.7;"/>
   </g>
   <g id="line2d_29">
    <path clip-path="url(#pa865f17080)" d="M 0 0 
" style="fill:none;stroke:#57d3db;stroke-linecap:round;stroke-width:2.7;"/>
   </g>
   <g id="line2d_30">
    <path clip-path="url(#pa865f17080)" d="M 0 0 
" style="fill:none;stroke:#57d3db;stroke-linecap:round;stroke-width:2.7;"/>
   </g>
   <g id="PathCollection_5">
    <path clip-path="url(#pa865f17080)" d="M 74.975259 202.356495 
L 81.743155 195.588599 
M 74.975259 195.588599 
L 81.743155 202.356495 
" style="fill:#5f57db;stroke:#5f57db;stroke-width:2.025;"/>
    <path clip-path="url(#pa865f17080)" d="M 136.907172 199.815658 
L 143.675069 193.047762 
M 136.907172 193.047762 
L 143.675069 199.815658 
" style="fill:#5f57db;stroke:#5f57db;stroke-width:2.025;"/>
    <path clip-path="url(#pa865f17080)" d="M 198.839086 199.174479 
L 205.606982 192.406583 
M 198.839086 192.406583 
L 205.606982 199.174479 
" style="fill:#5f57db;stroke:#5f57db;stroke-width:2.025;"/>
    <path clip-path="url(#pa865f17080)" d="M 260.771 199.931793 
L 267.538896 193.163897 
M 260.771 193.163897 
L 267.538896 199.931793 
" style="fill:#5f57db;stroke:#5f57db;stroke-width:2.025;"/>
   </g>
   <g id="line2d_31">
    <path clip-path="url(#pa865f17080)" d="M 78.359207 198.972547 
L 140.291121 196.43171 
L 202.223034 195.790531 
L 264.154948 196.547845 
" style="fill:none;stroke:#5f57db;stroke-linecap:round;stroke-width:2.7;"/>
   </g>
   <g id="line2d_32">
    <path clip-path="url(#pa865f17080)" d="M 0 0 
" style="fill:none;stroke:#5f57db;stroke-linecap:round;stroke-width:2.7;"/>
   </g>
   <g id="line2d_33">
    <path clip-path="url(#pa865f17080)" d="M 0 0 
" style="fill:none;stroke:#5f57db;stroke-linecap:round;stroke-width:2.7;"/>
   </g>
   <g id="line2d_34">
    <path clip-path="url(#pa865f17080)" d="M 0 0 
" style="fill:none;stroke:#5f57db;stroke-linecap:round;stroke-width:2.7;"/>
   </g>
   <g id="line2d_35">
    <path clip-path="url(#pa865f17080)" d="M 0 0 
" style="fill:none;stroke:#5f57db;stroke-linecap:round;stroke-width:2.7;"/>
   </g>
   <g id="PathCollection_6">
    <path clip-path="url(#pa865f17080)" d="M 74.975259 196.401848 
L 81.743155 196.401848 
M 78.359207 199.785797 
L 78.359207 193.0179 
" style="fill:#db57d3;stroke:#db57d3;stroke-width:2.025;"/>
    <path clip-path="url(#pa865f17080)" d="M 136.907172 196.007906 
L 143.675069 196.007906 
M 140.291121 199.391854 
L 140.291121 192.623957 
" style="fill:#db57d3;stroke:#db57d3;stroke-width:2.025;"/>
    <path clip-path="url(#pa865f17080)" d="M 198.839086 196.322732 
L 205.606982 196.322732 
M 202.223034 199.70668 
L 202.223034 192.938784 
" style="fill:#db57d3;stroke:#db57d3;stroke-width:2.025;"/>
    <path clip-path="url(#pa865f17080)" d="M 260.771 196.547073 
L 267.538896 196.547073 
M 264.154948 199.931021 
L 264.154948 193.163125 
" style="fill:#db57d3;stroke:#db57d3;stroke-width:2.025;"/>
   </g>
   <g id="line2d_36">
    <path clip-path="url(#pa865f17080)" d="M 78.359207 196.401848 
L 140.291121 196.007906 
L 202.223034 196.322732 
L 264.154948 196.547073 
" style="fill:none;stroke:#db57d3;stroke-linecap:round;stroke-width:2.7;"/>
   </g>
   <g id="line2d_37">
    <path clip-path="url(#pa865f17080)" d="M 0 0 
" style="fill:none;stroke:#db57d3;stroke-linecap:round;stroke-width:2.7;"/>
   </g>
   <g id="line2d_38">
    <path clip-path="url(#pa865f17080)" d="M 0 0 
" style="fill:none;stroke:#db57d3;stroke-linecap:round;stroke-width:2.7;"/>
   </g>
   <g id="line2d_39">
    <path clip-path="url(#pa865f17080)" d="M 0 0 
" style="fill:none;stroke:#db57d3;stroke-linecap:round;stroke-width:2.7;"/>
   </g>
   <g id="line2d_40">
    <path clip-path="url(#pa865f17080)" d="M 0 0 
" style="fill:none;stroke:#db57d3;stroke-linecap:round;stroke-width:2.7;"/>
   </g>
  </g>
  <g id="axes_2">
   <g id="patch_5">
    <path d="M 315.785596 207.258 
L 563.513251 207.258 
L 563.513251 25.85 
L 315.785596 25.85 
z
" style="fill:#ffffff;"/>
   </g>
   <g id="matplotlib.axis_3">
    <g id="xtick_5">
     <g id="line2d_41"/>
     <g id="text_11">
      <!-- 100 -->
      <g style="fill:#262626;" transform="translate(333.405303 229.9105)scale(0.16 -0.16)">
       <use xlink:href="#ArialMT-31"/>
       <use x="55.615234" xlink:href="#ArialMT-30"/>
       <use x="111.230469" xlink:href="#ArialMT-30"/>
      </g>
     </g>
    </g>
    <g id="xtick_6">
     <g id="line2d_42"/>
     <g id="text_12">
      <!-- 1000 -->
      <g style="fill:#262626;" transform="translate(390.888467 229.9105)scale(0.16 -0.16)">
       <use xlink:href="#ArialMT-31"/>
       <use x="55.615234" xlink:href="#ArialMT-30"/>
       <use x="111.230469" xlink:href="#ArialMT-30"/>
       <use x="166.845703" xlink:href="#ArialMT-30"/>
      </g>
     </g>
    </g>
    <g id="xtick_7">
     <g id="line2d_43"/>
     <g id="text_13">
      <!-- 10000 -->
      <g style="fill:#262626;" transform="translate(448.371631 229.9105)scale(0.16 -0.16)">
       <use xlink:href="#ArialMT-31"/>
       <use x="55.615234" xlink:href="#ArialMT-30"/>
       <use x="111.230469" xlink:href="#ArialMT-30"/>
       <use x="166.845703" xlink:href="#ArialMT-30"/>
       <use x="222.460938" xlink:href="#ArialMT-30"/>
      </g>
     </g>
    </g>
    <g id="xtick_8">
     <g id="line2d_44"/>
     <g id="text_14">
      <!-- 100000 -->
      <g style="fill:#262626;" transform="translate(505.854794 229.9105)scale(0.16 -0.16)">
       <use xlink:href="#ArialMT-31"/>
       <use x="55.615234" xlink:href="#ArialMT-30"/>
       <use x="111.230469" xlink:href="#ArialMT-30"/>
       <use x="166.845703" xlink:href="#ArialMT-30"/>
       <use x="222.460938" xlink:href="#ArialMT-30"/>
       <use x="278.076172" xlink:href="#ArialMT-30"/>
      </g>
     </g>
    </g>
    <g id="text_15">
     <!-- iteration limit -->
     <g style="fill:#262626;" transform="translate(390.259424 249.68825)scale(0.176 -0.176)">
      <use xlink:href="#ArialMT-69"/>
      <use x="22.216797" xlink:href="#ArialMT-74"/>
      <use x="50" xlink:href="#ArialMT-65"/>
      <use x="105.615234" xlink:href="#ArialMT-72"/>
      <use x="138.916016" xlink:href="#ArialMT-61"/>
      <use x="194.53125" xlink:href="#ArialMT-74"/>
      <use x="222.314453" xlink:href="#ArialMT-69"/>
      <use x="244.53125" xlink:href="#ArialMT-6f"/>
      <use x="300.146484" xlink:href="#ArialMT-6e"/>
      <use x="355.761719" xlink:href="#ArialMT-20"/>
      <use x="383.544922" xlink:href="#ArialMT-6c"/>
      <use x="405.761719" xlink:href="#ArialMT-69"/>
      <use x="427.978516" xlink:href="#ArialMT-6d"/>
      <use x="511.279297" xlink:href="#ArialMT-69"/>
      <use x="533.496094" xlink:href="#ArialMT-74"/>
     </g>
    </g>
   </g>
   <g id="matplotlib.axis_4">
    <g id="ytick_4">
     <g id="line2d_45">
      <path clip-path="url(#p83fd9f053a)" d="M 315.785596 195.983177 
L 563.513251 195.983177 
" style="fill:none;stroke:#cccccc;stroke-linecap:round;stroke-width:1.6;"/>
     </g>
     <g id="line2d_46"/>
    </g>
    <g id="ytick_5">
     <g id="line2d_47">
      <path clip-path="url(#p83fd9f053a)" d="M 315.785596 124.855011 
L 563.513251 124.855011 
" style="fill:none;stroke:#cccccc;stroke-linecap:round;stroke-width:1.6;"/>
     </g>
     <g id="line2d_48"/>
    </g>
    <g id="ytick_6">
     <g id="line2d_49">
      <path clip-path="url(#p83fd9f053a)" d="M 315.785596 53.726846 
L 563.513251 53.726846 
" style="fill:none;stroke:#cccccc;stroke-linecap:round;stroke-width:1.6;"/>
     </g>
     <g id="line2d_50"/>
    </g>
   </g>
   <g id="PathCollection_7">
    <path clip-path="url(#p83fd9f053a)" d="M 343.367605 199.367125 
L 350.135501 199.367125 
L 350.135501 192.599229 
L 343.367605 192.599229 
z
" style="fill:#db5f57;stroke:#db5f57;stroke-width:2.025;"/>
    <path clip-path="url(#p83fd9f053a)" d="M 405.299519 199.367125 
L 412.067415 199.367125 
L 412.067415 192.599229 
L 405.299519 192.599229 
z
" style="fill:#db5f57;stroke:#db5f57;stroke-width:2.025;"/>
    <path clip-path="url(#p83fd9f053a)" d="M 467.231432 199.367125 
L 473.999329 199.367125 
L 473.999329 192.599229 
L 467.231432 192.599229 
z
" style="fill:#db5f57;stroke:#db5f57;stroke-width:2.025;"/>
    <path clip-path="url(#p83fd9f053a)" d="M 529.163346 199.367125 
L 535.931242 199.367125 
L 535.931242 192.599229 
L 529.163346 192.599229 
z
" style="fill:#db5f57;stroke:#db5f57;stroke-width:2.025;"/>
   </g>
   <g id="line2d_51">
    <path clip-path="url(#p83fd9f053a)" d="M 346.751553 195.983177 
L 408.683467 195.983177 
L 470.615381 195.983177 
L 532.547294 195.983177 
" style="fill:none;stroke:#db5f57;stroke-linecap:round;stroke-width:2.7;"/>
   </g>
   <g id="line2d_52">
    <path clip-path="url(#p83fd9f053a)" d="M 0 0 
" style="fill:none;stroke:#db5f57;stroke-linecap:round;stroke-width:2.7;"/>
   </g>
   <g id="line2d_53">
    <path clip-path="url(#p83fd9f053a)" d="M 0 0 
" style="fill:none;stroke:#db5f57;stroke-linecap:round;stroke-width:2.7;"/>
   </g>
   <g id="line2d_54">
    <path clip-path="url(#p83fd9f053a)" d="M 0 0 
" style="fill:none;stroke:#db5f57;stroke-linecap:round;stroke-width:2.7;"/>
   </g>
   <g id="line2d_55">
    <path clip-path="url(#p83fd9f053a)" d="M 0 0 
" style="fill:none;stroke:#db5f57;stroke-linecap:round;stroke-width:2.7;"/>
   </g>
   <g id="PathCollection_8">
    <defs>
     <path d="M 0 3.383948 
C 0.897434 3.383948 1.758231 3.027394 2.392813 2.392813 
C 3.027394 1.758231 3.383948 0.897434 3.383948 0 
C 3.383948 -0.897434 3.027394 -1.758231 2.392813 -2.392813 
C 1.758231 -3.027394 0.897434 -3.383948 0 -3.383948 
C -0.897434 -3.383948 -1.758231 -3.027394 -2.392813 -2.392813 
C -3.027394 -1.758231 -3.383948 -0.897434 -3.383948 0 
C -3.383948 0.897434 -3.027394 1.758231 -2.392813 2.392813 
C -1.758231 3.027394 -0.897434 3.383948 0 3.383948 
z
" id="C2_0_137ce99402"/>
    </defs>
    <g clip-path="url(#p83fd9f053a)">
     <use style="fill:#d3db57;stroke:#d3db57;stroke-width:2.025;" x="346.751553" xlink:href="#C2_0_137ce99402" y="148.387077"/>
    </g>
    <g clip-path="url(#p83fd9f053a)">
     <use style="fill:#d3db57;stroke:#d3db57;stroke-width:2.025;" x="408.683467" xlink:href="#C2_0_137ce99402" y="142.000897"/>
    </g>
    <g clip-path="url(#p83fd9f053a)">
     <use style="fill:#d3db57;stroke:#d3db57;stroke-width:2.025;" x="470.615381" xlink:href="#C2_0_137ce99402" y="145.007433"/>
    </g>
    <g clip-path="url(#p83fd9f053a)">
     <use style="fill:#d3db57;stroke:#d3db57;stroke-width:2.025;" x="532.547294" xlink:href="#C2_0_137ce99402" y="144.101284"/>
    </g>
   </g>
   <g id="line2d_56">
    <path clip-path="url(#p83fd9f053a)" d="M 346.751553 148.387077 
L 408.683467 142.000897 
L 470.615381 145.007433 
L 532.547294 144.101284 
" style="fill:none;stroke:#d3db57;stroke-linecap:round;stroke-width:2.7;"/>
   </g>
   <g id="line2d_57">
    <path clip-path="url(#p83fd9f053a)" d="M 0 0 
" style="fill:none;stroke:#d3db57;stroke-linecap:round;stroke-width:2.7;"/>
   </g>
   <g id="line2d_58">
    <path clip-path="url(#p83fd9f053a)" d="M 0 0 
" style="fill:none;stroke:#d3db57;stroke-linecap:round;stroke-width:2.7;"/>
   </g>
   <g id="line2d_59">
    <path clip-path="url(#p83fd9f053a)" d="M 0 0 
" style="fill:none;stroke:#d3db57;stroke-linecap:round;stroke-width:2.7;"/>
   </g>
   <g id="line2d_60">
    <path clip-path="url(#p83fd9f053a)" d="M 0 0 
" style="fill:none;stroke:#d3db57;stroke-linecap:round;stroke-width:2.7;"/>
   </g>
   <g id="patch_6">
    <path d="M 315.785596 207.258 
L 315.785596 25.85 
" style="fill:none;stroke:#cccccc;stroke-linecap:square;stroke-linejoin:miter;stroke-width:1.5;"/>
   </g>
   <g id="patch_7">
    <path d="M 315.785596 207.258 
L 563.513251 207.258 
" style="fill:none;stroke:#cccccc;stroke-linecap:square;stroke-linejoin:miter;stroke-width:1.5;"/>
   </g>
   <g id="PathCollection_9">
    <path clip-path="url(#p83fd9f053a)" d="M 346.751553 151.067467 
L 350.135501 144.299571 
L 343.367605 144.299571 
z
" style="fill:#57db5f;stroke:#57db5f;stroke-width:2.025;"/>
    <path clip-path="url(#p83fd9f053a)" d="M 408.683467 144.236896 
L 412.067415 137.469 
L 405.299519 137.469 
z
" style="fill:#57db5f;stroke:#57db5f;stroke-width:2.025;"/>
    <path clip-path="url(#p83fd9f053a)" d="M 470.615381 146.088366 
L 473.999329 139.32047 
L 467.231432 139.32047 
z
" style="fill:#57db5f;stroke:#57db5f;stroke-width:2.025;"/>
    <path clip-path="url(#p83fd9f053a)" d="M 532.547294 147.039148 
L 535.931242 140.271251 
L 529.163346 140.271251 
z
" style="fill:#57db5f;stroke:#57db5f;stroke-width:2.025;"/>
   </g>
   <g id="line2d_61">
    <path clip-path="url(#p83fd9f053a)" d="M 346.751553 147.683519 
L 408.683467 140.852948 
L 470.615381 142.704418 
L 532.547294 143.6552 
" style="fill:none;stroke:#57db5f;stroke-linecap:round;stroke-width:2.7;"/>
   </g>
   <g id="line2d_62">
    <path clip-path="url(#p83fd9f053a)" d="M 0 0 
" style="fill:none;stroke:#57db5f;stroke-linecap:round;stroke-width:2.7;"/>
   </g>
   <g id="line2d_63">
    <path clip-path="url(#p83fd9f053a)" d="M 0 0 
" style="fill:none;stroke:#57db5f;stroke-linecap:round;stroke-width:2.7;"/>
   </g>
   <g id="line2d_64">
    <path clip-path="url(#p83fd9f053a)" d="M 0 0 
" style="fill:none;stroke:#57db5f;stroke-linecap:round;stroke-width:2.7;"/>
   </g>
   <g id="line2d_65">
    <path clip-path="url(#p83fd9f053a)" d="M 0 0 
" style="fill:none;stroke:#57db5f;stroke-linecap:round;stroke-width:2.7;"/>
   </g>
   <g id="text_16">
    <!-- processors amount = 2 -->
    <g style="fill:#262626;" transform="translate(349.897674 19.85)scale(0.176 -0.176)">
     <use xlink:href="#ArialMT-70"/>
     <use x="55.615234" xlink:href="#ArialMT-72"/>
     <use x="88.916016" xlink:href="#ArialMT-6f"/>
     <use x="144.53125" xlink:href="#ArialMT-63"/>
     <use x="194.53125" xlink:href="#ArialMT-65"/>
     <use x="250.146484" xlink:href="#ArialMT-73"/>
     <use x="300.146484" xlink:href="#ArialMT-73"/>
     <use x="350.146484" xlink:href="#ArialMT-6f"/>
     <use x="405.761719" xlink:href="#ArialMT-72"/>
     <use x="439.0625" xlink:href="#ArialMT-73"/>
     <use x="489.0625" xlink:href="#ArialMT-20"/>
     <use x="516.845703" xlink:href="#ArialMT-61"/>
     <use x="572.460938" xlink:href="#ArialMT-6d"/>
     <use x="655.761719" xlink:href="#ArialMT-6f"/>
     <use x="711.376953" xlink:href="#ArialMT-75"/>
     <use x="766.992188" xlink:href="#ArialMT-6e"/>
     <use x="822.607422" xlink:href="#ArialMT-74"/>
     <use x="850.390625" xlink:href="#ArialMT-20"/>
     <use x="878.173828" xlink:href="#ArialMT-3d"/>
     <use x="936.572266" xlink:href="#ArialMT-20"/>
     <use x="964.355469" xlink:href="#ArialMT-32"/>
    </g>
   </g>
   <g id="PathCollection_10">
    <defs>
     <path d="M 0 -3.383948 
L -0.759744 -1.045697 
L -3.218326 -1.045697 
L -1.229291 0.399421 
L -1.989035 2.737672 
L -0 1.292553 
L 1.989035 2.737672 
L 1.229291 0.399421 
L 3.218326 -1.045697 
L 0.759744 -1.045697 
z
" id="C3_0_495b285a7a"/>
    </defs>
    <g clip-path="url(#p83fd9f053a)">
     <use style="fill:#57d3db;stroke:#57d3db;stroke-width:2.025;" x="346.751553" xlink:href="#C3_0_495b285a7a" y="151.74907"/>
    </g>
    <g clip-path="url(#p83fd9f053a)">
     <use style="fill:#57d3db;stroke:#57d3db;stroke-width:2.025;" x="408.683467" xlink:href="#C3_0_495b285a7a" y="144.792739"/>
    </g>
    <g clip-path="url(#p83fd9f053a)">
     <use style="fill:#57d3db;stroke:#57d3db;stroke-width:2.025;" x="470.615381" xlink:href="#C3_0_495b285a7a" y="140.03379"/>
    </g>
    <g clip-path="url(#p83fd9f053a)">
     <use style="fill:#57d3db;stroke:#57d3db;stroke-width:2.025;" x="532.547294" xlink:href="#C3_0_495b285a7a" y="143.301936"/>
    </g>
   </g>
   <g id="line2d_66">
    <path clip-path="url(#p83fd9f053a)" d="M 346.751553 151.74907 
L 408.683467 144.792739 
L 470.615381 140.03379 
L 532.547294 143.301936 
" style="fill:none;stroke:#57d3db;stroke-linecap:round;stroke-width:2.7;"/>
   </g>
   <g id="line2d_67">
    <path clip-path="url(#p83fd9f053a)" d="M 0 0 
" style="fill:none;stroke:#57d3db;stroke-linecap:round;stroke-width:2.7;"/>
   </g>
   <g id="line2d_68">
    <path clip-path="url(#p83fd9f053a)" d="M 0 0 
" style="fill:none;stroke:#57d3db;stroke-linecap:round;stroke-width:2.7;"/>
   </g>
   <g id="line2d_69">
    <path clip-path="url(#p83fd9f053a)" d="M 0 0 
" style="fill:none;stroke:#57d3db;stroke-linecap:round;stroke-width:2.7;"/>
   </g>
   <g id="line2d_70">
    <path clip-path="url(#p83fd9f053a)" d="M 0 0 
" style="fill:none;stroke:#57d3db;stroke-linecap:round;stroke-width:2.7;"/>
   </g>
   <g id="PathCollection_11">
    <path clip-path="url(#p83fd9f053a)" d="M 343.367605 159.132713 
L 350.135501 152.364816 
M 343.367605 152.364816 
L 350.135501 159.132713 
" style="fill:#5f57db;stroke:#5f57db;stroke-width:2.025;"/>
    <path clip-path="url(#p83fd9f053a)" d="M 405.299519 145.584495 
L 412.067415 138.816599 
M 405.299519 138.816599 
L 412.067415 145.584495 
" style="fill:#5f57db;stroke:#5f57db;stroke-width:2.025;"/>
    <path clip-path="url(#p83fd9f053a)" d="M 467.231432 143.388541 
L 473.999329 136.620645 
M 467.231432 136.620645 
L 473.999329 143.388541 
" style="fill:#5f57db;stroke:#5f57db;stroke-width:2.025;"/>
    <path clip-path="url(#p83fd9f053a)" d="M 529.163346 146.31458 
L 535.931242 139.546684 
M 529.163346 139.546684 
L 535.931242 146.31458 
" style="fill:#5f57db;stroke:#5f57db;stroke-width:2.025;"/>
   </g>
   <g id="line2d_71">
    <path clip-path="url(#p83fd9f053a)" d="M 346.751553 155.748765 
L 408.683467 142.200547 
L 470.615381 140.004593 
L 532.547294 142.930632 
" style="fill:none;stroke:#5f57db;stroke-linecap:round;stroke-width:2.7;"/>
   </g>
   <g id="line2d_72">
    <path clip-path="url(#p83fd9f053a)" d="M 0 0 
" style="fill:none;stroke:#5f57db;stroke-linecap:round;stroke-width:2.7;"/>
   </g>
   <g id="line2d_73">
    <path clip-path="url(#p83fd9f053a)" d="M 0 0 
" style="fill:none;stroke:#5f57db;stroke-linecap:round;stroke-width:2.7;"/>
   </g>
   <g id="line2d_74">
    <path clip-path="url(#p83fd9f053a)" d="M 0 0 
" style="fill:none;stroke:#5f57db;stroke-linecap:round;stroke-width:2.7;"/>
   </g>
   <g id="line2d_75">
    <path clip-path="url(#p83fd9f053a)" d="M 0 0 
" style="fill:none;stroke:#5f57db;stroke-linecap:round;stroke-width:2.7;"/>
   </g>
   <g id="PathCollection_12">
    <path clip-path="url(#p83fd9f053a)" d="M 343.367605 146.519269 
L 350.135501 146.519269 
M 346.751553 149.903217 
L 346.751553 143.13532 
" style="fill:#db57d3;stroke:#db57d3;stroke-width:2.025;"/>
    <path clip-path="url(#p83fd9f053a)" d="M 405.299519 141.334695 
L 412.067415 141.334695 
M 408.683467 144.718643 
L 408.683467 137.950747 
" style="fill:#db57d3;stroke:#db57d3;stroke-width:2.025;"/>
    <path clip-path="url(#p83fd9f053a)" d="M 467.231432 138.591247 
L 473.999329 138.591247 
M 470.615381 141.975195 
L 470.615381 135.207299 
" style="fill:#db57d3;stroke:#db57d3;stroke-width:2.025;"/>
    <path clip-path="url(#p83fd9f053a)" d="M 529.163346 143.230375 
L 535.931242 143.230375 
M 532.547294 146.614323 
L 532.547294 139.846427 
" style="fill:#db57d3;stroke:#db57d3;stroke-width:2.025;"/>
   </g>
   <g id="line2d_76">
    <path clip-path="url(#p83fd9f053a)" d="M 346.751553 146.519269 
L 408.683467 141.334695 
L 470.615381 138.591247 
L 532.547294 143.230375 
" style="fill:none;stroke:#db57d3;stroke-linecap:round;stroke-width:2.7;"/>
   </g>
   <g id="line2d_77">
    <path clip-path="url(#p83fd9f053a)" d="M 0 0 
" style="fill:none;stroke:#db57d3;stroke-linecap:round;stroke-width:2.7;"/>
   </g>
   <g id="line2d_78">
    <path clip-path="url(#p83fd9f053a)" d="M 0 0 
" style="fill:none;stroke:#db57d3;stroke-linecap:round;stroke-width:2.7;"/>
   </g>
   <g id="line2d_79">
    <path clip-path="url(#p83fd9f053a)" d="M 0 0 
" style="fill:none;stroke:#db57d3;stroke-linecap:round;stroke-width:2.7;"/>
   </g>
   <g id="line2d_80">
    <path clip-path="url(#p83fd9f053a)" d="M 0 0 
" style="fill:none;stroke:#db57d3;stroke-linecap:round;stroke-width:2.7;"/>
   </g>
  </g>
  <g id="axes_3">
   <g id="patch_8">
    <path d="M 584.177942 207.258 
L 831.905597 207.258 
L 831.905597 25.85 
L 584.177942 25.85 
z
" style="fill:#ffffff;"/>
   </g>
   <g id="matplotlib.axis_5">
    <g id="xtick_9">
     <g id="line2d_81"/>
     <g id="text_17">
      <!-- 100 -->
      <g style="fill:#262626;" transform="translate(601.797649 229.9105)scale(0.16 -0.16)">
       <use xlink:href="#ArialMT-31"/>
       <use x="55.615234" xlink:href="#ArialMT-30"/>
       <use x="111.230469" xlink:href="#ArialMT-30"/>
      </g>
     </g>
    </g>
    <g id="xtick_10">
     <g id="line2d_82"/>
     <g id="text_18">
      <!-- 1000 -->
      <g style="fill:#262626;" transform="translate(659.280813 229.9105)scale(0.16 -0.16)">
       <use xlink:href="#ArialMT-31"/>
       <use x="55.615234" xlink:href="#ArialMT-30"/>
       <use x="111.230469" xlink:href="#ArialMT-30"/>
       <use x="166.845703" xlink:href="#ArialMT-30"/>
      </g>
     </g>
    </g>
    <g id="xtick_11">
     <g id="line2d_83"/>
     <g id="text_19">
      <!-- 10000 -->
      <g style="fill:#262626;" transform="translate(716.763977 229.9105)scale(0.16 -0.16)">
       <use xlink:href="#ArialMT-31"/>
       <use x="55.615234" xlink:href="#ArialMT-30"/>
       <use x="111.230469" xlink:href="#ArialMT-30"/>
       <use x="166.845703" xlink:href="#ArialMT-30"/>
       <use x="222.460938" xlink:href="#ArialMT-30"/>
      </g>
     </g>
    </g>
    <g id="xtick_12">
     <g id="line2d_84"/>
     <g id="text_20">
      <!-- 100000 -->
      <g style="fill:#262626;" transform="translate(774.24714 229.9105)scale(0.16 -0.16)">
       <use xlink:href="#ArialMT-31"/>
       <use x="55.615234" xlink:href="#ArialMT-30"/>
       <use x="111.230469" xlink:href="#ArialMT-30"/>
       <use x="166.845703" xlink:href="#ArialMT-30"/>
       <use x="222.460938" xlink:href="#ArialMT-30"/>
       <use x="278.076172" xlink:href="#ArialMT-30"/>
      </g>
     </g>
    </g>
    <g id="text_21">
     <!-- iteration limit -->
     <g style="fill:#262626;" transform="translate(658.65177 249.68825)scale(0.176 -0.176)">
      <use xlink:href="#ArialMT-69"/>
      <use x="22.216797" xlink:href="#ArialMT-74"/>
      <use x="50" xlink:href="#ArialMT-65"/>
      <use x="105.615234" xlink:href="#ArialMT-72"/>
      <use x="138.916016" xlink:href="#ArialMT-61"/>
      <use x="194.53125" xlink:href="#ArialMT-74"/>
      <use x="222.314453" xlink:href="#ArialMT-69"/>
      <use x="244.53125" xlink:href="#ArialMT-6f"/>
      <use x="300.146484" xlink:href="#ArialMT-6e"/>
      <use x="355.761719" xlink:href="#ArialMT-20"/>
      <use x="383.544922" xlink:href="#ArialMT-6c"/>
      <use x="405.761719" xlink:href="#ArialMT-69"/>
      <use x="427.978516" xlink:href="#ArialMT-6d"/>
      <use x="511.279297" xlink:href="#ArialMT-69"/>
      <use x="533.496094" xlink:href="#ArialMT-74"/>
     </g>
    </g>
   </g>
   <g id="matplotlib.axis_6">
    <g id="ytick_7">
     <g id="line2d_85">
      <path clip-path="url(#pec53cd0850)" d="M 584.177942 195.983177 
L 831.905597 195.983177 
" style="fill:none;stroke:#cccccc;stroke-linecap:round;stroke-width:1.6;"/>
     </g>
     <g id="line2d_86"/>
    </g>
    <g id="ytick_8">
     <g id="line2d_87">
      <path clip-path="url(#pec53cd0850)" d="M 584.177942 124.855011 
L 831.905597 124.855011 
" style="fill:none;stroke:#cccccc;stroke-linecap:round;stroke-width:1.6;"/>
     </g>
     <g id="line2d_88"/>
    </g>
    <g id="ytick_9">
     <g id="line2d_89">
      <path clip-path="url(#pec53cd0850)" d="M 584.177942 53.726846 
L 831.905597 53.726846 
" style="fill:none;stroke:#cccccc;stroke-linecap:round;stroke-width:1.6;"/>
     </g>
     <g id="line2d_90"/>
    </g>
   </g>
   <g id="PathCollection_13">
    <path clip-path="url(#pec53cd0850)" d="M 611.759951 199.367125 
L 618.527848 199.367125 
L 618.527848 192.599229 
L 611.759951 192.599229 
z
" style="fill:#db5f57;stroke:#db5f57;stroke-width:2.025;"/>
    <path clip-path="url(#pec53cd0850)" d="M 673.691865 199.367125 
L 680.459761 199.367125 
L 680.459761 192.599229 
L 673.691865 192.599229 
z
" style="fill:#db5f57;stroke:#db5f57;stroke-width:2.025;"/>
    <path clip-path="url(#pec53cd0850)" d="M 735.623779 199.367125 
L 742.391675 199.367125 
L 742.391675 192.599229 
L 735.623779 192.599229 
z
" style="fill:#db5f57;stroke:#db5f57;stroke-width:2.025;"/>
    <path clip-path="url(#pec53cd0850)" d="M 797.555692 199.367125 
L 804.323589 199.367125 
L 804.323589 192.599229 
L 797.555692 192.599229 
z
" style="fill:#db5f57;stroke:#db5f57;stroke-width:2.025;"/>
   </g>
   <g id="line2d_91">
    <path clip-path="url(#pec53cd0850)" d="M 615.143899 195.983177 
L 677.075813 195.983177 
L 739.007727 195.983177 
L 800.93964 195.983177 
" style="fill:none;stroke:#db5f57;stroke-linecap:round;stroke-width:2.7;"/>
   </g>
   <g id="line2d_92">
    <path clip-path="url(#pec53cd0850)" d="M 0 0 
" style="fill:none;stroke:#db5f57;stroke-linecap:round;stroke-width:2.7;"/>
   </g>
   <g id="line2d_93">
    <path clip-path="url(#pec53cd0850)" d="M 0 0 
" style="fill:none;stroke:#db5f57;stroke-linecap:round;stroke-width:2.7;"/>
   </g>
   <g id="line2d_94">
    <path clip-path="url(#pec53cd0850)" d="M 0 0 
" style="fill:none;stroke:#db5f57;stroke-linecap:round;stroke-width:2.7;"/>
   </g>
   <g id="line2d_95">
    <path clip-path="url(#pec53cd0850)" d="M 0 0 
" style="fill:none;stroke:#db5f57;stroke-linecap:round;stroke-width:2.7;"/>
   </g>
   <g id="PathCollection_14">
    <defs>
     <path d="M 0 3.383948 
C 0.897434 3.383948 1.758231 3.027394 2.392813 2.392813 
C 3.027394 1.758231 3.383948 0.897434 3.383948 0 
C 3.383948 -0.897434 3.027394 -1.758231 2.392813 -2.392813 
C 1.758231 -3.027394 0.897434 -3.383948 0 -3.383948 
C -0.897434 -3.383948 -1.758231 -3.027394 -2.392813 -2.392813 
C -3.027394 -1.758231 -3.383948 -0.897434 -3.383948 0 
C -3.383948 0.897434 -3.027394 1.758231 -2.392813 2.392813 
C -1.758231 3.027394 -0.897434 3.383948 0 3.383948 
z
" id="C4_0_47639f4d94"/>
    </defs>
    <g clip-path="url(#pec53cd0850)">
     <use style="fill:#d3db57;stroke:#d3db57;stroke-width:2.025;" x="615.143899" xlink:href="#C4_0_47639f4d94" y="146.168342"/>
    </g>
    <g clip-path="url(#pec53cd0850)">
     <use style="fill:#d3db57;stroke:#d3db57;stroke-width:2.025;" x="677.075813" xlink:href="#C4_0_47639f4d94" y="144.81214"/>
    </g>
    <g clip-path="url(#pec53cd0850)">
     <use style="fill:#d3db57;stroke:#d3db57;stroke-width:2.025;" x="739.007727" xlink:href="#C4_0_47639f4d94" y="141.43943"/>
    </g>
    <g clip-path="url(#pec53cd0850)">
     <use style="fill:#d3db57;stroke:#d3db57;stroke-width:2.025;" x="800.93964" xlink:href="#C4_0_47639f4d94" y="148.431195"/>
    </g>
   </g>
   <g id="line2d_96">
    <path clip-path="url(#pec53cd0850)" d="M 615.143899 146.168342 
L 677.075813 144.81214 
L 739.007727 141.43943 
L 800.93964 148.431195 
" style="fill:none;stroke:#d3db57;stroke-linecap:round;stroke-width:2.7;"/>
   </g>
   <g id="line2d_97">
    <path clip-path="url(#pec53cd0850)" d="M 0 0 
" style="fill:none;stroke:#d3db57;stroke-linecap:round;stroke-width:2.7;"/>
   </g>
   <g id="line2d_98">
    <path clip-path="url(#pec53cd0850)" d="M 0 0 
" style="fill:none;stroke:#d3db57;stroke-linecap:round;stroke-width:2.7;"/>
   </g>
   <g id="line2d_99">
    <path clip-path="url(#pec53cd0850)" d="M 0 0 
" style="fill:none;stroke:#d3db57;stroke-linecap:round;stroke-width:2.7;"/>
   </g>
   <g id="line2d_100">
    <path clip-path="url(#pec53cd0850)" d="M 0 0 
" style="fill:none;stroke:#d3db57;stroke-linecap:round;stroke-width:2.7;"/>
   </g>
   <g id="patch_9">
    <path d="M 584.177942 207.258 
L 584.177942 25.85 
" style="fill:none;stroke:#cccccc;stroke-linecap:square;stroke-linejoin:miter;stroke-width:1.5;"/>
   </g>
   <g id="patch_10">
    <path d="M 584.177942 207.258 
L 831.905597 207.258 
" style="fill:none;stroke:#cccccc;stroke-linecap:square;stroke-linejoin:miter;stroke-width:1.5;"/>
   </g>
   <g id="PathCollection_15">
    <path clip-path="url(#pec53cd0850)" d="M 615.143899 158.531422 
L 618.527848 151.763525 
L 611.759951 151.763525 
z
" style="fill:#57db5f;stroke:#57db5f;stroke-width:2.025;"/>
    <path clip-path="url(#pec53cd0850)" d="M 677.075813 159.233668 
L 680.459761 152.465772 
L 673.691865 152.465772 
z
" style="fill:#57db5f;stroke:#57db5f;stroke-width:2.025;"/>
    <path clip-path="url(#pec53cd0850)" d="M 739.007727 156.197863 
L 742.391675 149.429967 
L 735.623779 149.429967 
z
" style="fill:#57db5f;stroke:#57db5f;stroke-width:2.025;"/>
    <path clip-path="url(#pec53cd0850)" d="M 800.93964 160.645409 
L 804.323589 153.877513 
L 797.555692 153.877513 
z
" style="fill:#57db5f;stroke:#57db5f;stroke-width:2.025;"/>
   </g>
   <g id="line2d_101">
    <path clip-path="url(#pec53cd0850)" d="M 615.143899 155.147474 
L 677.075813 155.84972 
L 739.007727 152.813915 
L 800.93964 157.261461 
" style="fill:none;stroke:#57db5f;stroke-linecap:round;stroke-width:2.7;"/>
   </g>
   <g id="line2d_102">
    <path clip-path="url(#pec53cd0850)" d="M 0 0 
" style="fill:none;stroke:#57db5f;stroke-linecap:round;stroke-width:2.7;"/>
   </g>
   <g id="line2d_103">
    <path clip-path="url(#pec53cd0850)" d="M 0 0 
" style="fill:none;stroke:#57db5f;stroke-linecap:round;stroke-width:2.7;"/>
   </g>
   <g id="line2d_104">
    <path clip-path="url(#pec53cd0850)" d="M 0 0 
" style="fill:none;stroke:#57db5f;stroke-linecap:round;stroke-width:2.7;"/>
   </g>
   <g id="line2d_105">
    <path clip-path="url(#pec53cd0850)" d="M 0 0 
" style="fill:none;stroke:#57db5f;stroke-linecap:round;stroke-width:2.7;"/>
   </g>
   <g id="text_22">
    <!-- processors amount = 4 -->
    <defs>
     <path d="M 32.328125 0 
L 32.328125 17.140625 
L 1.265625 17.140625 
L 1.265625 25.203125 
L 33.9375 71.578125 
L 41.109375 71.578125 
L 41.109375 25.203125 
L 50.78125 25.203125 
L 50.78125 17.140625 
L 41.109375 17.140625 
L 41.109375 0 
z
M 32.328125 25.203125 
L 32.328125 57.46875 
L 9.90625 25.203125 
z
" id="ArialMT-34"/>
    </defs>
    <g style="fill:#262626;" transform="translate(618.29002 19.85)scale(0.176 -0.176)">
     <use xlink:href="#ArialMT-70"/>
     <use x="55.615234" xlink:href="#ArialMT-72"/>
     <use x="88.916016" xlink:href="#ArialMT-6f"/>
     <use x="144.53125" xlink:href="#ArialMT-63"/>
     <use x="194.53125" xlink:href="#ArialMT-65"/>
     <use x="250.146484" xlink:href="#ArialMT-73"/>
     <use x="300.146484" xlink:href="#ArialMT-73"/>
     <use x="350.146484" xlink:href="#ArialMT-6f"/>
     <use x="405.761719" xlink:href="#ArialMT-72"/>
     <use x="439.0625" xlink:href="#ArialMT-73"/>
     <use x="489.0625" xlink:href="#ArialMT-20"/>
     <use x="516.845703" xlink:href="#ArialMT-61"/>
     <use x="572.460938" xlink:href="#ArialMT-6d"/>
     <use x="655.761719" xlink:href="#ArialMT-6f"/>
     <use x="711.376953" xlink:href="#ArialMT-75"/>
     <use x="766.992188" xlink:href="#ArialMT-6e"/>
     <use x="822.607422" xlink:href="#ArialMT-74"/>
     <use x="850.390625" xlink:href="#ArialMT-20"/>
     <use x="878.173828" xlink:href="#ArialMT-3d"/>
     <use x="936.572266" xlink:href="#ArialMT-20"/>
     <use x="964.355469" xlink:href="#ArialMT-34"/>
    </g>
   </g>
   <g id="PathCollection_16">
    <defs>
     <path d="M 0 -3.383948 
L -0.759744 -1.045697 
L -3.218326 -1.045697 
L -1.229291 0.399421 
L -1.989035 2.737672 
L -0 1.292553 
L 1.989035 2.737672 
L 1.229291 0.399421 
L 3.218326 -1.045697 
L 0.759744 -1.045697 
z
" id="C5_0_e4e7dee401"/>
    </defs>
    <g clip-path="url(#pec53cd0850)">
     <use style="fill:#57d3db;stroke:#57d3db;stroke-width:2.025;" x="615.143899" xlink:href="#C5_0_e4e7dee401" y="115.901369"/>
    </g>
    <g clip-path="url(#pec53cd0850)">
     <use style="fill:#57d3db;stroke:#57d3db;stroke-width:2.025;" x="677.075813" xlink:href="#C5_0_e4e7dee401" y="130.556049"/>
    </g>
    <g clip-path="url(#pec53cd0850)">
     <use style="fill:#57d3db;stroke:#57d3db;stroke-width:2.025;" x="739.007727" xlink:href="#C5_0_e4e7dee401" y="133.794635"/>
    </g>
    <g clip-path="url(#pec53cd0850)">
     <use style="fill:#57d3db;stroke:#57d3db;stroke-width:2.025;" x="800.93964" xlink:href="#C5_0_e4e7dee401" y="137.673457"/>
    </g>
   </g>
   <g id="line2d_106">
    <path clip-path="url(#pec53cd0850)" d="M 615.143899 115.901369 
L 677.075813 130.556049 
L 739.007727 133.794635 
L 800.93964 137.673457 
" style="fill:none;stroke:#57d3db;stroke-linecap:round;stroke-width:2.7;"/>
   </g>
   <g id="line2d_107">
    <path clip-path="url(#pec53cd0850)" d="M 0 0 
" style="fill:none;stroke:#57d3db;stroke-linecap:round;stroke-width:2.7;"/>
   </g>
   <g id="line2d_108">
    <path clip-path="url(#pec53cd0850)" d="M 0 0 
" style="fill:none;stroke:#57d3db;stroke-linecap:round;stroke-width:2.7;"/>
   </g>
   <g id="line2d_109">
    <path clip-path="url(#pec53cd0850)" d="M 0 0 
" style="fill:none;stroke:#57d3db;stroke-linecap:round;stroke-width:2.7;"/>
   </g>
   <g id="line2d_110">
    <path clip-path="url(#pec53cd0850)" d="M 0 0 
" style="fill:none;stroke:#57d3db;stroke-linecap:round;stroke-width:2.7;"/>
   </g>
   <g id="PathCollection_17">
    <path clip-path="url(#pec53cd0850)" d="M 611.759951 80.20991 
L 618.527848 73.442013 
M 611.759951 73.442013 
L 618.527848 80.20991 
" style="fill:#5f57db;stroke:#5f57db;stroke-width:2.025;"/>
    <path clip-path="url(#pec53cd0850)" d="M 673.691865 71.481523 
L 680.459761 64.713627 
M 673.691865 64.713627 
L 680.459761 71.481523 
" style="fill:#5f57db;stroke:#5f57db;stroke-width:2.025;"/>
    <path clip-path="url(#pec53cd0850)" d="M 735.623779 73.360478 
L 742.391675 66.592581 
M 735.623779 66.592581 
L 742.391675 73.360478 
" style="fill:#5f57db;stroke:#5f57db;stroke-width:2.025;"/>
    <path clip-path="url(#pec53cd0850)" d="M 797.555692 78.831897 
L 804.323589 72.064001 
M 797.555692 72.064001 
L 804.323589 78.831897 
" style="fill:#5f57db;stroke:#5f57db;stroke-width:2.025;"/>
   </g>
   <g id="line2d_111">
    <path clip-path="url(#pec53cd0850)" d="M 615.143899 76.825961 
L 677.075813 68.097575 
L 739.007727 69.97653 
L 800.93964 75.447949 
" style="fill:none;stroke:#5f57db;stroke-linecap:round;stroke-width:2.7;"/>
   </g>
   <g id="line2d_112">
    <path clip-path="url(#pec53cd0850)" d="M 0 0 
" style="fill:none;stroke:#5f57db;stroke-linecap:round;stroke-width:2.7;"/>
   </g>
   <g id="line2d_113">
    <path clip-path="url(#pec53cd0850)" d="M 0 0 
" style="fill:none;stroke:#5f57db;stroke-linecap:round;stroke-width:2.7;"/>
   </g>
   <g id="line2d_114">
    <path clip-path="url(#pec53cd0850)" d="M 0 0 
" style="fill:none;stroke:#5f57db;stroke-linecap:round;stroke-width:2.7;"/>
   </g>
   <g id="line2d_115">
    <path clip-path="url(#pec53cd0850)" d="M 0 0 
" style="fill:none;stroke:#5f57db;stroke-linecap:round;stroke-width:2.7;"/>
   </g>
   <g id="PathCollection_18">
    <path clip-path="url(#pec53cd0850)" d="M 611.759951 79.566348 
L 618.527848 79.566348 
M 615.143899 82.950296 
L 615.143899 76.182399 
" style="fill:#db57d3;stroke:#db57d3;stroke-width:2.025;"/>
    <path clip-path="url(#pec53cd0850)" d="M 673.691865 97.229814 
L 680.459761 97.229814 
M 677.075813 100.613762 
L 677.075813 93.845865 
" style="fill:#db57d3;stroke:#db57d3;stroke-width:2.025;"/>
    <path clip-path="url(#pec53cd0850)" d="M 735.623779 104.589217 
L 742.391675 104.589217 
M 739.007727 107.973165 
L 739.007727 101.205269 
" style="fill:#db57d3;stroke:#db57d3;stroke-width:2.025;"/>
    <path clip-path="url(#pec53cd0850)" d="M 797.555692 110.308163 
L 804.323589 110.308163 
M 800.93964 113.692111 
L 800.93964 106.924215 
" style="fill:#db57d3;stroke:#db57d3;stroke-width:2.025;"/>
   </g>
   <g id="line2d_116">
    <path clip-path="url(#pec53cd0850)" d="M 615.143899 79.566348 
L 677.075813 97.229814 
L 739.007727 104.589217 
L 800.93964 110.308163 
" style="fill:none;stroke:#db57d3;stroke-linecap:round;stroke-width:2.7;"/>
   </g>
   <g id="line2d_117">
    <path clip-path="url(#pec53cd0850)" d="M 0 0 
" style="fill:none;stroke:#db57d3;stroke-linecap:round;stroke-width:2.7;"/>
   </g>
   <g id="line2d_118">
    <path clip-path="url(#pec53cd0850)" d="M 0 0 
" style="fill:none;stroke:#db57d3;stroke-linecap:round;stroke-width:2.7;"/>
   </g>
   <g id="line2d_119">
    <path clip-path="url(#pec53cd0850)" d="M 0 0 
" style="fill:none;stroke:#db57d3;stroke-linecap:round;stroke-width:2.7;"/>
   </g>
   <g id="line2d_120">
    <path clip-path="url(#pec53cd0850)" d="M 0 0 
" style="fill:none;stroke:#db57d3;stroke-linecap:round;stroke-width:2.7;"/>
   </g>
  </g>
  <g id="axes_4">
   <g id="patch_11">
    <path d="M 852.570289 207.258 
L 1100.297944 207.258 
L 1100.297944 25.85 
L 852.570289 25.85 
z
" style="fill:#ffffff;"/>
   </g>
   <g id="matplotlib.axis_7">
    <g id="xtick_13">
     <g id="line2d_121"/>
     <g id="text_23">
      <!-- 100 -->
      <g style="fill:#262626;" transform="translate(870.189996 229.9105)scale(0.16 -0.16)">
       <use xlink:href="#ArialMT-31"/>
       <use x="55.615234" xlink:href="#ArialMT-30"/>
       <use x="111.230469" xlink:href="#ArialMT-30"/>
      </g>
     </g>
    </g>
    <g id="xtick_14">
     <g id="line2d_122"/>
     <g id="text_24">
      <!-- 1000 -->
      <g style="fill:#262626;" transform="translate(927.673159 229.9105)scale(0.16 -0.16)">
       <use xlink:href="#ArialMT-31"/>
       <use x="55.615234" xlink:href="#ArialMT-30"/>
       <use x="111.230469" xlink:href="#ArialMT-30"/>
       <use x="166.845703" xlink:href="#ArialMT-30"/>
      </g>
     </g>
    </g>
    <g id="xtick_15">
     <g id="line2d_123"/>
     <g id="text_25">
      <!-- 10000 -->
      <g style="fill:#262626;" transform="translate(985.156323 229.9105)scale(0.16 -0.16)">
       <use xlink:href="#ArialMT-31"/>
       <use x="55.615234" xlink:href="#ArialMT-30"/>
       <use x="111.230469" xlink:href="#ArialMT-30"/>
       <use x="166.845703" xlink:href="#ArialMT-30"/>
       <use x="222.460938" xlink:href="#ArialMT-30"/>
      </g>
     </g>
    </g>
    <g id="xtick_16">
     <g id="line2d_124"/>
     <g id="text_26">
      <!-- 100000 -->
      <g style="fill:#262626;" transform="translate(1042.639487 229.9105)scale(0.16 -0.16)">
       <use xlink:href="#ArialMT-31"/>
       <use x="55.615234" xlink:href="#ArialMT-30"/>
       <use x="111.230469" xlink:href="#ArialMT-30"/>
       <use x="166.845703" xlink:href="#ArialMT-30"/>
       <use x="222.460938" xlink:href="#ArialMT-30"/>
       <use x="278.076172" xlink:href="#ArialMT-30"/>
      </g>
     </g>
    </g>
    <g id="text_27">
     <!-- iteration limit -->
     <g style="fill:#262626;" transform="translate(927.044116 249.68825)scale(0.176 -0.176)">
      <use xlink:href="#ArialMT-69"/>
      <use x="22.216797" xlink:href="#ArialMT-74"/>
      <use x="50" xlink:href="#ArialMT-65"/>
      <use x="105.615234" xlink:href="#ArialMT-72"/>
      <use x="138.916016" xlink:href="#ArialMT-61"/>
      <use x="194.53125" xlink:href="#ArialMT-74"/>
      <use x="222.314453" xlink:href="#ArialMT-69"/>
      <use x="244.53125" xlink:href="#ArialMT-6f"/>
      <use x="300.146484" xlink:href="#ArialMT-6e"/>
      <use x="355.761719" xlink:href="#ArialMT-20"/>
      <use x="383.544922" xlink:href="#ArialMT-6c"/>
      <use x="405.761719" xlink:href="#ArialMT-69"/>
      <use x="427.978516" xlink:href="#ArialMT-6d"/>
      <use x="511.279297" xlink:href="#ArialMT-69"/>
      <use x="533.496094" xlink:href="#ArialMT-74"/>
     </g>
    </g>
   </g>
   <g id="matplotlib.axis_8">
    <g id="ytick_10">
     <g id="line2d_125">
      <path clip-path="url(#pdcd402d5d8)" d="M 852.570289 195.983177 
L 1100.297944 195.983177 
" style="fill:none;stroke:#cccccc;stroke-linecap:round;stroke-width:1.6;"/>
     </g>
     <g id="line2d_126"/>
    </g>
    <g id="ytick_11">
     <g id="line2d_127">
      <path clip-path="url(#pdcd402d5d8)" d="M 852.570289 124.855011 
L 1100.297944 124.855011 
" style="fill:none;stroke:#cccccc;stroke-linecap:round;stroke-width:1.6;"/>
     </g>
     <g id="line2d_128"/>
    </g>
    <g id="ytick_12">
     <g id="line2d_129">
      <path clip-path="url(#pdcd402d5d8)" d="M 852.570289 53.726846 
L 1100.297944 53.726846 
" style="fill:none;stroke:#cccccc;stroke-linecap:round;stroke-width:1.6;"/>
     </g>
     <g id="line2d_130"/>
    </g>
   </g>
   <g id="PathCollection_19">
    <path clip-path="url(#pdcd402d5d8)" d="M 880.152297 199.367125 
L 886.920194 199.367125 
L 886.920194 192.599229 
L 880.152297 192.599229 
z
" style="fill:#db5f57;stroke:#db5f57;stroke-width:2.025;"/>
    <path clip-path="url(#pdcd402d5d8)" d="M 942.084211 199.367125 
L 948.852107 199.367125 
L 948.852107 192.599229 
L 942.084211 192.599229 
z
" style="fill:#db5f57;stroke:#db5f57;stroke-width:2.025;"/>
    <path clip-path="url(#pdcd402d5d8)" d="M 1004.016125 199.367125 
L 1010.784021 199.367125 
L 1010.784021 192.599229 
L 1004.016125 192.599229 
z
" style="fill:#db5f57;stroke:#db5f57;stroke-width:2.025;"/>
    <path clip-path="url(#pdcd402d5d8)" d="M 1065.948039 199.367125 
L 1072.715935 199.367125 
L 1072.715935 192.599229 
L 1065.948039 192.599229 
z
" style="fill:#db5f57;stroke:#db5f57;stroke-width:2.025;"/>
   </g>
   <g id="line2d_131">
    <path clip-path="url(#pdcd402d5d8)" d="M 883.536246 195.983177 
L 945.468159 195.983177 
L 1007.400073 195.983177 
L 1069.331987 195.983177 
" style="fill:none;stroke:#db5f57;stroke-linecap:round;stroke-width:2.7;"/>
   </g>
   <g id="line2d_132">
    <path clip-path="url(#pdcd402d5d8)" d="M 0 0 
" style="fill:none;stroke:#db5f57;stroke-linecap:round;stroke-width:2.7;"/>
   </g>
   <g id="line2d_133">
    <path clip-path="url(#pdcd402d5d8)" d="M 0 0 
" style="fill:none;stroke:#db5f57;stroke-linecap:round;stroke-width:2.7;"/>
   </g>
   <g id="line2d_134">
    <path clip-path="url(#pdcd402d5d8)" d="M 0 0 
" style="fill:none;stroke:#db5f57;stroke-linecap:round;stroke-width:2.7;"/>
   </g>
   <g id="line2d_135">
    <path clip-path="url(#pdcd402d5d8)" d="M 0 0 
" style="fill:none;stroke:#db5f57;stroke-linecap:round;stroke-width:2.7;"/>
   </g>
   <g id="PathCollection_20">
    <defs>
     <path d="M 0 3.383948 
C 0.897434 3.383948 1.758231 3.027394 2.392813 2.392813 
C 3.027394 1.758231 3.383948 0.897434 3.383948 0 
C 3.383948 -0.897434 3.027394 -1.758231 2.392813 -2.392813 
C 1.758231 -3.027394 0.897434 -3.383948 0 -3.383948 
C -0.897434 -3.383948 -1.758231 -3.027394 -2.392813 -2.392813 
C -3.027394 -1.758231 -3.383948 -0.897434 -3.383948 0 
C -3.383948 0.897434 -3.027394 1.758231 -2.392813 2.392813 
C -1.758231 3.027394 -0.897434 3.383948 0 3.383948 
z
" id="C6_0_aa1f0c32bc"/>
    </defs>
    <g clip-path="url(#pdcd402d5d8)">
     <use style="fill:#d3db57;stroke:#d3db57;stroke-width:2.025;" x="883.536246" xlink:href="#C6_0_aa1f0c32bc" y="133.447644"/>
    </g>
    <g clip-path="url(#pdcd402d5d8)">
     <use style="fill:#d3db57;stroke:#d3db57;stroke-width:2.025;" x="945.468159" xlink:href="#C6_0_aa1f0c32bc" y="160.247657"/>
    </g>
    <g clip-path="url(#pdcd402d5d8)">
     <use style="fill:#d3db57;stroke:#d3db57;stroke-width:2.025;" x="1007.400073" xlink:href="#C6_0_aa1f0c32bc" y="155.408567"/>
    </g>
    <g clip-path="url(#pdcd402d5d8)">
     <use style="fill:#d3db57;stroke:#d3db57;stroke-width:2.025;" x="1069.331987" xlink:href="#C6_0_aa1f0c32bc" y="177.123732"/>
    </g>
   </g>
   <g id="line2d_136">
    <path clip-path="url(#pdcd402d5d8)" d="M 883.536246 133.447644 
L 945.468159 160.247657 
L 1007.400073 155.408567 
L 1069.331987 177.123732 
" style="fill:none;stroke:#d3db57;stroke-linecap:round;stroke-width:2.7;"/>
   </g>
   <g id="line2d_137">
    <path clip-path="url(#pdcd402d5d8)" d="M 0 0 
" style="fill:none;stroke:#d3db57;stroke-linecap:round;stroke-width:2.7;"/>
   </g>
   <g id="line2d_138">
    <path clip-path="url(#pdcd402d5d8)" d="M 0 0 
" style="fill:none;stroke:#d3db57;stroke-linecap:round;stroke-width:2.7;"/>
   </g>
   <g id="line2d_139">
    <path clip-path="url(#pdcd402d5d8)" d="M 0 0 
" style="fill:none;stroke:#d3db57;stroke-linecap:round;stroke-width:2.7;"/>
   </g>
   <g id="line2d_140">
    <path clip-path="url(#pdcd402d5d8)" d="M 0 0 
" style="fill:none;stroke:#d3db57;stroke-linecap:round;stroke-width:2.7;"/>
   </g>
   <g id="patch_12">
    <path d="M 852.570289 207.258 
L 852.570289 25.85 
" style="fill:none;stroke:#cccccc;stroke-linecap:square;stroke-linejoin:miter;stroke-width:1.5;"/>
   </g>
   <g id="patch_13">
    <path d="M 852.570289 207.258 
L 1100.297944 207.258 
" style="fill:none;stroke:#cccccc;stroke-linecap:square;stroke-linejoin:miter;stroke-width:1.5;"/>
   </g>
   <g id="PathCollection_21">
    <path clip-path="url(#pdcd402d5d8)" d="M 883.536246 159.876172 
L 886.920194 153.108276 
L 880.152297 153.108276 
z
" style="fill:#57db5f;stroke:#57db5f;stroke-width:2.025;"/>
    <path clip-path="url(#pdcd402d5d8)" d="M 945.468159 179.089015 
L 948.852107 172.321119 
L 942.084211 172.321119 
z
" style="fill:#57db5f;stroke:#57db5f;stroke-width:2.025;"/>
    <path clip-path="url(#pdcd402d5d8)" d="M 1007.400073 183.501638 
L 1010.784021 176.733741 
L 1004.016125 176.733741 
z
" style="fill:#57db5f;stroke:#57db5f;stroke-width:2.025;"/>
    <path clip-path="url(#pdcd402d5d8)" d="M 1069.331987 181.715954 
L 1072.715935 174.948057 
L 1065.948039 174.948057 
z
" style="fill:#57db5f;stroke:#57db5f;stroke-width:2.025;"/>
   </g>
   <g id="line2d_141">
    <path clip-path="url(#pdcd402d5d8)" d="M 883.536246 156.492224 
L 945.468159 175.705067 
L 1007.400073 180.11769 
L 1069.331987 178.332005 
" style="fill:none;stroke:#57db5f;stroke-linecap:round;stroke-width:2.7;"/>
   </g>
   <g id="line2d_142">
    <path clip-path="url(#pdcd402d5d8)" d="M 0 0 
" style="fill:none;stroke:#57db5f;stroke-linecap:round;stroke-width:2.7;"/>
   </g>
   <g id="line2d_143">
    <path clip-path="url(#pdcd402d5d8)" d="M 0 0 
" style="fill:none;stroke:#57db5f;stroke-linecap:round;stroke-width:2.7;"/>
   </g>
   <g id="line2d_144">
    <path clip-path="url(#pdcd402d5d8)" d="M 0 0 
" style="fill:none;stroke:#57db5f;stroke-linecap:round;stroke-width:2.7;"/>
   </g>
   <g id="line2d_145">
    <path clip-path="url(#pdcd402d5d8)" d="M 0 0 
" style="fill:none;stroke:#57db5f;stroke-linecap:round;stroke-width:2.7;"/>
   </g>
   <g id="text_28">
    <!-- processors amount = 8 -->
    <defs>
     <path d="M 17.671875 38.8125 
Q 12.203125 40.828125 9.5625 44.53125 
Q 6.9375 48.25 6.9375 53.421875 
Q 6.9375 61.234375 12.546875 66.546875 
Q 18.171875 71.875 27.484375 71.875 
Q 36.859375 71.875 42.578125 66.421875 
Q 48.296875 60.984375 48.296875 53.171875 
Q 48.296875 48.1875 45.671875 44.5 
Q 43.0625 40.828125 37.75 38.8125 
Q 44.34375 36.671875 47.78125 31.875 
Q 51.21875 27.09375 51.21875 20.453125 
Q 51.21875 11.28125 44.71875 5.03125 
Q 38.234375 -1.21875 27.640625 -1.21875 
Q 17.046875 -1.21875 10.546875 5.046875 
Q 4.046875 11.328125 4.046875 20.703125 
Q 4.046875 27.6875 7.59375 32.390625 
Q 11.140625 37.109375 17.671875 38.8125 
z
M 15.921875 53.71875 
Q 15.921875 48.640625 19.1875 45.40625 
Q 22.46875 42.1875 27.6875 42.1875 
Q 32.765625 42.1875 36.015625 45.375 
Q 39.265625 48.578125 39.265625 53.21875 
Q 39.265625 58.0625 35.90625 61.359375 
Q 32.5625 64.65625 27.59375 64.65625 
Q 22.5625 64.65625 19.234375 61.421875 
Q 15.921875 58.203125 15.921875 53.71875 
z
M 13.09375 20.65625 
Q 13.09375 16.890625 14.875 13.375 
Q 16.65625 9.859375 20.171875 7.921875 
Q 23.6875 6 27.734375 6 
Q 34.03125 6 38.125 10.046875 
Q 42.234375 14.109375 42.234375 20.359375 
Q 42.234375 26.703125 38.015625 30.859375 
Q 33.796875 35.015625 27.4375 35.015625 
Q 21.234375 35.015625 17.15625 30.90625 
Q 13.09375 26.8125 13.09375 20.65625 
z
" id="ArialMT-38"/>
    </defs>
    <g style="fill:#262626;" transform="translate(886.682366 19.85)scale(0.176 -0.176)">
     <use xlink:href="#ArialMT-70"/>
     <use x="55.615234" xlink:href="#ArialMT-72"/>
     <use x="88.916016" xlink:href="#ArialMT-6f"/>
     <use x="144.53125" xlink:href="#ArialMT-63"/>
     <use x="194.53125" xlink:href="#ArialMT-65"/>
     <use x="250.146484" xlink:href="#ArialMT-73"/>
     <use x="300.146484" xlink:href="#ArialMT-73"/>
     <use x="350.146484" xlink:href="#ArialMT-6f"/>
     <use x="405.761719" xlink:href="#ArialMT-72"/>
     <use x="439.0625" xlink:href="#ArialMT-73"/>
     <use x="489.0625" xlink:href="#ArialMT-20"/>
     <use x="516.845703" xlink:href="#ArialMT-61"/>
     <use x="572.460938" xlink:href="#ArialMT-6d"/>
     <use x="655.761719" xlink:href="#ArialMT-6f"/>
     <use x="711.376953" xlink:href="#ArialMT-75"/>
     <use x="766.992188" xlink:href="#ArialMT-6e"/>
     <use x="822.607422" xlink:href="#ArialMT-74"/>
     <use x="850.390625" xlink:href="#ArialMT-20"/>
     <use x="878.173828" xlink:href="#ArialMT-3d"/>
     <use x="936.572266" xlink:href="#ArialMT-20"/>
     <use x="964.355469" xlink:href="#ArialMT-38"/>
    </g>
   </g>
   <g id="PathCollection_22">
    <defs>
     <path d="M 0 -3.383948 
L -0.759744 -1.045697 
L -3.218326 -1.045697 
L -1.229291 0.399421 
L -1.989035 2.737672 
L -0 1.292553 
L 1.989035 2.737672 
L 1.229291 0.399421 
L 3.218326 -1.045697 
L 0.759744 -1.045697 
z
" id="C7_0_60ab438db8"/>
    </defs>
    <g clip-path="url(#pdcd402d5d8)">
     <use style="fill:#57d3db;stroke:#57d3db;stroke-width:2.025;" x="883.536246" xlink:href="#C7_0_60ab438db8" y="69.191185"/>
    </g>
    <g clip-path="url(#pdcd402d5d8)">
     <use style="fill:#57d3db;stroke:#57d3db;stroke-width:2.025;" x="945.468159" xlink:href="#C7_0_60ab438db8" y="82.012191"/>
    </g>
    <g clip-path="url(#pdcd402d5d8)">
     <use style="fill:#57d3db;stroke:#57d3db;stroke-width:2.025;" x="1007.400073" xlink:href="#C7_0_60ab438db8" y="85.3175"/>
    </g>
    <g clip-path="url(#pdcd402d5d8)">
     <use style="fill:#57d3db;stroke:#57d3db;stroke-width:2.025;" x="1069.331987" xlink:href="#C7_0_60ab438db8" y="91.72394"/>
    </g>
   </g>
   <g id="line2d_146">
    <path clip-path="url(#pdcd402d5d8)" d="M 883.536246 69.191185 
L 945.468159 82.012191 
L 1007.400073 85.3175 
L 1069.331987 91.72394 
" style="fill:none;stroke:#57d3db;stroke-linecap:round;stroke-width:2.7;"/>
   </g>
   <g id="line2d_147">
    <path clip-path="url(#pdcd402d5d8)" d="M 0 0 
" style="fill:none;stroke:#57d3db;stroke-linecap:round;stroke-width:2.7;"/>
   </g>
   <g id="line2d_148">
    <path clip-path="url(#pdcd402d5d8)" d="M 0 0 
" style="fill:none;stroke:#57d3db;stroke-linecap:round;stroke-width:2.7;"/>
   </g>
   <g id="line2d_149">
    <path clip-path="url(#pdcd402d5d8)" d="M 0 0 
" style="fill:none;stroke:#57d3db;stroke-linecap:round;stroke-width:2.7;"/>
   </g>
   <g id="line2d_150">
    <path clip-path="url(#pdcd402d5d8)" d="M 0 0 
" style="fill:none;stroke:#57d3db;stroke-linecap:round;stroke-width:2.7;"/>
   </g>
   <g id="PathCollection_23">
    <path clip-path="url(#pdcd402d5d8)" d="M 880.152297 39.508658 
L 886.920194 32.740762 
M 880.152297 32.740762 
L 886.920194 39.508658 
" style="fill:#5f57db;stroke:#5f57db;stroke-width:2.025;"/>
    <path clip-path="url(#pdcd402d5d8)" d="M 942.084211 53.295964 
L 948.852107 46.528067 
M 942.084211 46.528067 
L 948.852107 53.295964 
" style="fill:#5f57db;stroke:#5f57db;stroke-width:2.025;"/>
    <path clip-path="url(#pdcd402d5d8)" d="M 1004.016125 62.024337 
L 1010.784021 55.256441 
M 1004.016125 55.256441 
L 1010.784021 62.024337 
" style="fill:#5f57db;stroke:#5f57db;stroke-width:2.025;"/>
    <path clip-path="url(#pdcd402d5d8)" d="M 1065.948039 74.591904 
L 1072.715935 67.824008 
M 1065.948039 67.824008 
L 1072.715935 74.591904 
" style="fill:#5f57db;stroke:#5f57db;stroke-width:2.025;"/>
   </g>
   <g id="line2d_151">
    <path clip-path="url(#pdcd402d5d8)" d="M 883.536246 36.12471 
L 945.468159 49.912015 
L 1007.400073 58.640389 
L 1069.331987 71.207956 
" style="fill:none;stroke:#5f57db;stroke-linecap:round;stroke-width:2.7;"/>
   </g>
   <g id="line2d_152">
    <path clip-path="url(#pdcd402d5d8)" d="M 0 0 
" style="fill:none;stroke:#5f57db;stroke-linecap:round;stroke-width:2.7;"/>
   </g>
   <g id="line2d_153">
    <path clip-path="url(#pdcd402d5d8)" d="M 0 0 
" style="fill:none;stroke:#5f57db;stroke-linecap:round;stroke-width:2.7;"/>
   </g>
   <g id="line2d_154">
    <path clip-path="url(#pdcd402d5d8)" d="M 0 0 
" style="fill:none;stroke:#5f57db;stroke-linecap:round;stroke-width:2.7;"/>
   </g>
   <g id="line2d_155">
    <path clip-path="url(#pdcd402d5d8)" d="M 0 0 
" style="fill:none;stroke:#5f57db;stroke-linecap:round;stroke-width:2.7;"/>
   </g>
   <g id="PathCollection_24">
    <path clip-path="url(#pdcd402d5d8)" d="M 880.152297 53.56177 
L 886.920194 53.56177 
M 883.536246 56.945719 
L 883.536246 50.177822 
" style="fill:#db57d3;stroke:#db57d3;stroke-width:2.025;"/>
    <path clip-path="url(#pdcd402d5d8)" d="M 942.084211 61.42361 
L 948.852107 61.42361 
M 945.468159 64.807558 
L 945.468159 58.039662 
" style="fill:#db57d3;stroke:#db57d3;stroke-width:2.025;"/>
    <path clip-path="url(#pdcd402d5d8)" d="M 1004.016125 68.268707 
L 1010.784021 68.268707 
M 1007.400073 71.652655 
L 1007.400073 64.884759 
" style="fill:#db57d3;stroke:#db57d3;stroke-width:2.025;"/>
    <path clip-path="url(#pdcd402d5d8)" d="M 1065.948039 83.163932 
L 1072.715935 83.163932 
M 1069.331987 86.54788 
L 1069.331987 79.779984 
" style="fill:#db57d3;stroke:#db57d3;stroke-width:2.025;"/>
   </g>
   <g id="line2d_156">
    <path clip-path="url(#pdcd402d5d8)" d="M 883.536246 53.56177 
L 945.468159 61.42361 
L 1007.400073 68.268707 
L 1069.331987 83.163932 
" style="fill:none;stroke:#db57d3;stroke-linecap:round;stroke-width:2.7;"/>
   </g>
   <g id="line2d_157">
    <path clip-path="url(#pdcd402d5d8)" d="M 0 0 
" style="fill:none;stroke:#db57d3;stroke-linecap:round;stroke-width:2.7;"/>
   </g>
   <g id="line2d_158">
    <path clip-path="url(#pdcd402d5d8)" d="M 0 0 
" style="fill:none;stroke:#db57d3;stroke-linecap:round;stroke-width:2.7;"/>
   </g>
   <g id="line2d_159">
    <path clip-path="url(#pdcd402d5d8)" d="M 0 0 
" style="fill:none;stroke:#db57d3;stroke-linecap:round;stroke-width:2.7;"/>
   </g>
   <g id="line2d_160">
    <path clip-path="url(#pdcd402d5d8)" d="M 0 0 
" style="fill:none;stroke:#db57d3;stroke-linecap:round;stroke-width:2.7;"/>
   </g>
  </g>
  <g id="legend_1">
   <g id="patch_14">
    <path d="M 1108.174244 212.302569 
L 1273.164244 212.302569 
Q 1276.364244 212.302569 1276.364244 209.102569 
L 1276.364244 51.283681 
Q 1276.364244 48.083681 1273.164244 48.083681 
L 1108.174244 48.083681 
Q 1104.974244 48.083681 1104.974244 51.283681 
L 1104.974244 209.102569 
Q 1104.974244 212.302569 1108.174244 212.302569 
z
" style="fill:#ffffff;opacity:0.8;stroke:#cccccc;stroke-linejoin:miter;stroke-width:0.48;"/>
   </g>
   <g id="text_29">
    <!-- implementation -->
    <g style="fill:#262626;" transform="translate(1139.949 65.191769)scale(0.1496 -0.1496)">
     <use xlink:href="#ArialMT-69"/>
     <use x="22.216797" xlink:href="#ArialMT-6d"/>
     <use x="105.517578" xlink:href="#ArialMT-70"/>
     <use x="161.132812" xlink:href="#ArialMT-6c"/>
     <use x="183.349609" xlink:href="#ArialMT-65"/>
     <use x="238.964844" xlink:href="#ArialMT-6d"/>
     <use x="322.265625" xlink:href="#ArialMT-65"/>
     <use x="377.880859" xlink:href="#ArialMT-6e"/>
     <use x="433.496094" xlink:href="#ArialMT-74"/>
     <use x="461.279297" xlink:href="#ArialMT-61"/>
     <use x="516.894531" xlink:href="#ArialMT-74"/>
     <use x="544.677734" xlink:href="#ArialMT-69"/>
     <use x="566.894531" xlink:href="#ArialMT-6f"/>
     <use x="622.509766" xlink:href="#ArialMT-6e"/>
    </g>
   </g>
   <g id="PathCollection_25">
    <path d="M 1123.990295 86.801517 
L 1130.758192 86.801517 
L 1130.758192 80.033621 
L 1123.990295 80.033621 
z
" style="fill:#db5f57;stroke:#db5f57;stroke-width:2.025;"/>
   </g>
   <g id="text_30">
    <!-- sequential -->
    <defs>
     <path d="M 39.65625 -19.875 
L 39.65625 5.515625 
Q 37.59375 2.640625 33.90625 0.734375 
Q 30.21875 -1.171875 26.078125 -1.171875 
Q 16.84375 -1.171875 10.171875 6.203125 
Q 3.515625 13.578125 3.515625 26.421875 
Q 3.515625 34.234375 6.21875 40.421875 
Q 8.9375 46.625 14.078125 49.828125 
Q 19.234375 53.03125 25.390625 53.03125 
Q 35.015625 53.03125 40.53125 44.921875 
L 40.53125 51.859375 
L 48.4375 51.859375 
L 48.4375 -19.875 
z
M 12.546875 26.078125 
Q 12.546875 16.0625 16.75 11.0625 
Q 20.953125 6.0625 26.8125 6.0625 
Q 32.421875 6.0625 36.46875 10.8125 
Q 40.53125 15.578125 40.53125 25.296875 
Q 40.53125 35.640625 36.25 40.859375 
Q 31.984375 46.09375 26.21875 46.09375 
Q 20.515625 46.09375 16.53125 41.234375 
Q 12.546875 36.375 12.546875 26.078125 
z
" id="ArialMT-71"/>
    </defs>
    <g style="fill:#262626;" transform="translate(1156.174244 87.617569)scale(0.16 -0.16)">
     <use xlink:href="#ArialMT-73"/>
     <use x="50" xlink:href="#ArialMT-65"/>
     <use x="105.615234" xlink:href="#ArialMT-71"/>
     <use x="161.230469" xlink:href="#ArialMT-75"/>
     <use x="216.845703" xlink:href="#ArialMT-65"/>
     <use x="272.460938" xlink:href="#ArialMT-6e"/>
     <use x="328.076172" xlink:href="#ArialMT-74"/>
     <use x="355.859375" xlink:href="#ArialMT-69"/>
     <use x="378.076172" xlink:href="#ArialMT-61"/>
     <use x="433.691406" xlink:href="#ArialMT-6c"/>
    </g>
   </g>
   <g id="PathCollection_26">
    <path d="M 1127.374244 109.629017 
C 1128.271677 109.629017 1129.132475 109.272463 1129.767056 108.637881 
C 1130.401638 108.0033 1130.758192 107.142502 1130.758192 106.245069 
C 1130.758192 105.347635 1130.401638 104.486837 1129.767056 103.852256 
C 1129.132475 103.217675 1128.271677 102.861121 1127.374244 102.861121 
C 1126.47681 102.861121 1125.616012 103.217675 1124.981431 103.852256 
C 1124.34685 104.486837 1123.990295 105.347635 1123.990295 106.245069 
C 1123.990295 107.142502 1124.34685 108.0033 1124.981431 108.637881 
C 1125.616012 109.272463 1126.47681 109.629017 1127.374244 109.629017 
z
" style="fill:#d3db57;stroke:#d3db57;stroke-width:2.025;"/>
   </g>
   <g id="text_31">
    <!-- MPI (send-recv) -->
    <defs>
     <path d="M 7.421875 0 
L 7.421875 71.578125 
L 21.6875 71.578125 
L 38.625 20.90625 
Q 40.96875 13.8125 42.046875 10.296875 
Q 43.265625 14.203125 45.84375 21.78125 
L 62.984375 71.578125 
L 75.734375 71.578125 
L 75.734375 0 
L 66.609375 0 
L 66.609375 59.90625 
L 45.796875 0 
L 37.25 0 
L 16.546875 60.9375 
L 16.546875 0 
z
" id="ArialMT-4d"/>
     <path d="M 7.71875 0 
L 7.71875 71.578125 
L 34.71875 71.578125 
Q 41.84375 71.578125 45.609375 70.90625 
Q 50.875 70.015625 54.4375 67.546875 
Q 58.015625 65.09375 60.1875 60.640625 
Q 62.359375 56.203125 62.359375 50.875 
Q 62.359375 41.75 56.546875 35.421875 
Q 50.734375 29.109375 35.546875 29.109375 
L 17.1875 29.109375 
L 17.1875 0 
z
M 17.1875 37.546875 
L 35.6875 37.546875 
Q 44.875 37.546875 48.734375 40.96875 
Q 52.59375 44.390625 52.59375 50.59375 
Q 52.59375 55.078125 50.3125 58.265625 
Q 48.046875 61.46875 44.34375 62.5 
Q 41.9375 63.140625 35.5 63.140625 
L 17.1875 63.140625 
z
" id="ArialMT-50"/>
     <path d="M 9.328125 0 
L 9.328125 71.578125 
L 18.796875 71.578125 
L 18.796875 0 
z
" id="ArialMT-49"/>
     <path d="M 23.390625 -21.046875 
Q 16.109375 -11.859375 11.078125 0.4375 
Q 6.0625 12.75 6.0625 25.921875 
Q 6.0625 37.546875 9.8125 48.1875 
Q 14.203125 60.546875 23.390625 72.796875 
L 29.6875 72.796875 
Q 23.78125 62.640625 21.875 58.296875 
Q 18.890625 51.5625 17.1875 44.234375 
Q 15.09375 35.109375 15.09375 25.875 
Q 15.09375 2.390625 29.6875 -21.046875 
z
" id="ArialMT-28"/>
     <path d="M 3.171875 21.484375 
L 3.171875 30.328125 
L 30.171875 30.328125 
L 30.171875 21.484375 
z
" id="ArialMT-2d"/>
     <path d="M 21 0 
L 1.265625 51.859375 
L 10.546875 51.859375 
L 21.6875 20.796875 
Q 23.484375 15.765625 25 10.359375 
Q 26.171875 14.453125 28.265625 20.21875 
L 39.796875 51.859375 
L 48.828125 51.859375 
L 29.203125 0 
z
" id="ArialMT-76"/>
     <path d="M 12.359375 -21.046875 
L 6.0625 -21.046875 
Q 20.65625 2.390625 20.65625 25.875 
Q 20.65625 35.0625 18.5625 44.09375 
Q 16.890625 51.421875 13.921875 58.15625 
Q 12.015625 62.546875 6.0625 72.796875 
L 12.359375 72.796875 
Q 21.53125 60.546875 25.921875 48.1875 
Q 29.6875 37.546875 29.6875 25.921875 
Q 29.6875 12.75 24.625 0.4375 
Q 19.578125 -11.859375 12.359375 -21.046875 
z
" id="ArialMT-29"/>
    </defs>
    <g style="fill:#262626;" transform="translate(1156.174244 110.445069)scale(0.16 -0.16)">
     <use xlink:href="#ArialMT-4d"/>
     <use x="83.300781" xlink:href="#ArialMT-50"/>
     <use x="150" xlink:href="#ArialMT-49"/>
     <use x="177.783203" xlink:href="#ArialMT-20"/>
     <use x="205.566406" xlink:href="#ArialMT-28"/>
     <use x="238.867188" xlink:href="#ArialMT-73"/>
     <use x="288.867188" xlink:href="#ArialMT-65"/>
     <use x="344.482422" xlink:href="#ArialMT-6e"/>
     <use x="400.097656" xlink:href="#ArialMT-64"/>
     <use x="455.712891" xlink:href="#ArialMT-2d"/>
     <use x="489.013672" xlink:href="#ArialMT-72"/>
     <use x="522.314453" xlink:href="#ArialMT-65"/>
     <use x="577.929688" xlink:href="#ArialMT-63"/>
     <use x="627.929688" xlink:href="#ArialMT-76"/>
     <use x="677.929688" xlink:href="#ArialMT-29"/>
    </g>
   </g>
   <g id="PathCollection_27">
    <path d="M 1127.374244 132.644017 
L 1130.758192 125.876121 
L 1123.990295 125.876121 
z
" style="fill:#57db5f;stroke:#57db5f;stroke-width:2.025;"/>
   </g>
   <g id="text_32">
    <!-- MPI (gather) -->
    <defs>
     <path d="M 4.984375 -4.296875 
L 13.53125 -5.5625 
Q 14.0625 -9.515625 16.5 -11.328125 
Q 19.78125 -13.765625 25.4375 -13.765625 
Q 31.546875 -13.765625 34.859375 -11.328125 
Q 38.1875 -8.890625 39.359375 -4.5 
Q 40.046875 -1.8125 39.984375 6.78125 
Q 34.234375 0 25.640625 0 
Q 14.9375 0 9.078125 7.71875 
Q 3.21875 15.4375 3.21875 26.21875 
Q 3.21875 33.640625 5.90625 39.90625 
Q 8.59375 46.1875 13.6875 49.609375 
Q 18.796875 53.03125 25.6875 53.03125 
Q 34.859375 53.03125 40.828125 45.609375 
L 40.828125 51.859375 
L 48.921875 51.859375 
L 48.921875 7.03125 
Q 48.921875 -5.078125 46.453125 -10.125 
Q 44 -15.1875 38.640625 -18.109375 
Q 33.296875 -21.046875 25.484375 -21.046875 
Q 16.21875 -21.046875 10.5 -16.875 
Q 4.78125 -12.703125 4.984375 -4.296875 
z
M 12.25 26.859375 
Q 12.25 16.65625 16.296875 11.96875 
Q 20.359375 7.28125 26.46875 7.28125 
Q 32.515625 7.28125 36.609375 11.9375 
Q 40.71875 16.609375 40.71875 26.5625 
Q 40.71875 36.078125 36.5 40.90625 
Q 32.28125 45.75 26.3125 45.75 
Q 20.453125 45.75 16.34375 40.984375 
Q 12.25 36.234375 12.25 26.859375 
z
" id="ArialMT-67"/>
     <path d="M 6.59375 0 
L 6.59375 71.578125 
L 15.375 71.578125 
L 15.375 45.90625 
Q 21.53125 53.03125 30.90625 53.03125 
Q 36.671875 53.03125 40.921875 50.75 
Q 45.171875 48.484375 47 44.484375 
Q 48.828125 40.484375 48.828125 32.859375 
L 48.828125 0 
L 40.046875 0 
L 40.046875 32.859375 
Q 40.046875 39.453125 37.1875 42.453125 
Q 34.328125 45.453125 29.109375 45.453125 
Q 25.203125 45.453125 21.75 43.421875 
Q 18.3125 41.40625 16.84375 37.9375 
Q 15.375 34.46875 15.375 28.375 
L 15.375 0 
z
" id="ArialMT-68"/>
    </defs>
    <g style="fill:#262626;" transform="translate(1156.174244 133.460069)scale(0.16 -0.16)">
     <use xlink:href="#ArialMT-4d"/>
     <use x="83.300781" xlink:href="#ArialMT-50"/>
     <use x="150" xlink:href="#ArialMT-49"/>
     <use x="177.783203" xlink:href="#ArialMT-20"/>
     <use x="205.566406" xlink:href="#ArialMT-28"/>
     <use x="238.867188" xlink:href="#ArialMT-67"/>
     <use x="294.482422" xlink:href="#ArialMT-61"/>
     <use x="350.097656" xlink:href="#ArialMT-74"/>
     <use x="377.880859" xlink:href="#ArialMT-68"/>
     <use x="433.496094" xlink:href="#ArialMT-65"/>
     <use x="489.111328" xlink:href="#ArialMT-72"/>
     <use x="522.412109" xlink:href="#ArialMT-29"/>
    </g>
   </g>
   <g id="PathCollection_28">
    <path d="M 1127.374244 148.901121 
L 1126.6145 151.239371 
L 1124.155918 151.239371 
L 1126.144953 152.68449 
L 1125.385209 155.02274 
L 1127.374244 153.577622 
L 1129.363278 155.02274 
L 1128.603535 152.68449 
L 1130.59257 151.239371 
L 1128.133987 151.239371 
z
" style="fill:#57d3db;stroke:#57d3db;stroke-width:2.025;"/>
   </g>
   <g id="text_33">
    <!-- OMP (static) -->
    <defs>
     <path d="M 4.828125 34.859375 
Q 4.828125 52.6875 14.390625 62.765625 
Q 23.96875 72.859375 39.109375 72.859375 
Q 49.03125 72.859375 56.984375 68.109375 
Q 64.9375 63.375 69.109375 54.90625 
Q 73.296875 46.4375 73.296875 35.6875 
Q 73.296875 24.8125 68.890625 16.21875 
Q 64.5 7.625 56.4375 3.203125 
Q 48.390625 -1.21875 39.0625 -1.21875 
Q 28.953125 -1.21875 20.984375 3.65625 
Q 13.03125 8.546875 8.921875 16.984375 
Q 4.828125 25.4375 4.828125 34.859375 
z
M 14.59375 34.71875 
Q 14.59375 21.78125 21.546875 14.328125 
Q 28.515625 6.890625 39.015625 6.890625 
Q 49.703125 6.890625 56.609375 14.40625 
Q 63.53125 21.921875 63.53125 35.75 
Q 63.53125 44.484375 60.578125 51 
Q 57.625 57.515625 51.921875 61.109375 
Q 46.234375 64.703125 39.15625 64.703125 
Q 29.109375 64.703125 21.84375 57.78125 
Q 14.59375 50.875 14.59375 34.71875 
z
" id="ArialMT-4f"/>
    </defs>
    <g style="fill:#262626;" transform="translate(1156.174244 156.485069)scale(0.16 -0.16)">
     <use xlink:href="#ArialMT-4f"/>
     <use x="77.783203" xlink:href="#ArialMT-4d"/>
     <use x="161.083984" xlink:href="#ArialMT-50"/>
     <use x="227.767578" xlink:href="#ArialMT-20"/>
     <use x="255.550781" xlink:href="#ArialMT-28"/>
     <use x="288.851562" xlink:href="#ArialMT-73"/>
     <use x="338.851562" xlink:href="#ArialMT-74"/>
     <use x="366.634766" xlink:href="#ArialMT-61"/>
     <use x="422.25" xlink:href="#ArialMT-74"/>
     <use x="450.033203" xlink:href="#ArialMT-69"/>
     <use x="472.25" xlink:href="#ArialMT-63"/>
     <use x="522.25" xlink:href="#ArialMT-29"/>
    </g>
   </g>
   <g id="PathCollection_29">
    <path d="M 1123.990295 178.694017 
L 1130.758192 171.926121 
M 1123.990295 171.926121 
L 1130.758192 178.694017 
" style="fill:#5f57db;stroke:#5f57db;stroke-width:2.025;"/>
   </g>
   <g id="text_34">
    <!-- OMP (dynamic) -->
    <defs>
     <path d="M 6.203125 -19.96875 
L 5.21875 -11.71875 
Q 8.109375 -12.5 10.25 -12.5 
Q 13.1875 -12.5 14.9375 -11.515625 
Q 16.703125 -10.546875 17.828125 -8.796875 
Q 18.65625 -7.46875 20.515625 -2.25 
Q 20.75 -1.515625 21.296875 -0.09375 
L 1.609375 51.859375 
L 11.078125 51.859375 
L 21.875 21.828125 
Q 23.96875 16.109375 25.640625 9.8125 
Q 27.15625 15.875 29.25 21.625 
L 40.328125 51.859375 
L 49.125 51.859375 
L 29.390625 -0.875 
Q 26.21875 -9.421875 24.46875 -12.640625 
Q 22.125 -17 19.09375 -19.015625 
Q 16.0625 -21.046875 11.859375 -21.046875 
Q 9.328125 -21.046875 6.203125 -19.96875 
z
" id="ArialMT-79"/>
    </defs>
    <g style="fill:#262626;" transform="translate(1156.174244 179.510069)scale(0.16 -0.16)">
     <use xlink:href="#ArialMT-4f"/>
     <use x="77.783203" xlink:href="#ArialMT-4d"/>
     <use x="161.083984" xlink:href="#ArialMT-50"/>
     <use x="227.767578" xlink:href="#ArialMT-20"/>
     <use x="255.550781" xlink:href="#ArialMT-28"/>
     <use x="288.851562" xlink:href="#ArialMT-64"/>
     <use x="344.466797" xlink:href="#ArialMT-79"/>
     <use x="394.466797" xlink:href="#ArialMT-6e"/>
     <use x="450.082031" xlink:href="#ArialMT-61"/>
     <use x="505.697266" xlink:href="#ArialMT-6d"/>
     <use x="588.998047" xlink:href="#ArialMT-69"/>
     <use x="611.214844" xlink:href="#ArialMT-63"/>
     <use x="661.214844" xlink:href="#ArialMT-29"/>
    </g>
   </g>
   <g id="PathCollection_30">
    <path d="M 1123.990295 198.335069 
L 1130.758192 198.335069 
M 1127.374244 201.719017 
L 1127.374244 194.951121 
" style="fill:#db57d3;stroke:#db57d3;stroke-width:2.025;"/>
   </g>
   <g id="text_35">
    <!-- OMP (guided) -->
    <g style="fill:#262626;" transform="translate(1156.174244 202.535069)scale(0.16 -0.16)">
     <use xlink:href="#ArialMT-4f"/>
     <use x="77.783203" xlink:href="#ArialMT-4d"/>
     <use x="161.083984" xlink:href="#ArialMT-50"/>
     <use x="227.767578" xlink:href="#ArialMT-20"/>
     <use x="255.550781" xlink:href="#ArialMT-28"/>
     <use x="288.851562" xlink:href="#ArialMT-67"/>
     <use x="344.466797" xlink:href="#ArialMT-75"/>
     <use x="400.082031" xlink:href="#ArialMT-69"/>
     <use x="422.298828" xlink:href="#ArialMT-64"/>
     <use x="477.914062" xlink:href="#ArialMT-65"/>
     <use x="533.529297" xlink:href="#ArialMT-64"/>
     <use x="589.144531" xlink:href="#ArialMT-29"/>
    </g>
   </g>
  </g>
 </g>
 <defs>
  <clipPath id="pa865f17080">
   <rect height="181.408" width="247.727655" x="47.39325" y="25.85"/>
  </clipPath>
  <clipPath id="p83fd9f053a">
   <rect height="181.408" width="247.727655" x="315.785596" y="25.85"/>
  </clipPath>
  <clipPath id="pec53cd0850">
   <rect height="181.408" width="247.727655" x="584.177942" y="25.85"/>
  </clipPath>
  <clipPath id="pdcd402d5d8">
   <rect height="181.408" width="247.727655" x="852.570289" y="25.85"/>
  </clipPath>
 </defs>
</svg>
